<?xml version="1.0" standalone="no"?>
<!DOCTYPE svg PUBLIC "-//W3C//DTD SVG 20010904//EN"
 "http://www.w3.org/TR/2001/REC-SVG-20010904/DTD/svg10.dtd">
<svg version="1.0" xmlns="http://www.w3.org/2000/svg"
 width="1808.000000pt" height="1808.000000pt" viewBox="0 0 1808.000000 1808.000000"
 preserveAspectRatio="xMidYMid meet">
<metadata>
Created by potrace 1.11, written by Peter Selinger 2001-2013
</metadata>
<g transform="translate(0.000000,1808.000000) scale(0.100000,-0.100000)"
fill="#000000" stroke="none">
<path d="M5644 18068 c-3 -4 -12 -8 -21 -8 -25 0 -80 -63 -92 -106 -15 -55
-10 -73 71 -238 21 -44 37 -80 36 -81 -2 -1 -39 -21 -82 -46 -78 -43 -186
-138 -237 -208 -24 -34 -100 -171 -94 -171 2 0 -5 -22 -15 -50 -10 -27 -21
-69 -25 -92 -4 -24 -9 -52 -12 -63 -6 -29 -5 -236 2 -265 3 -14 8 -36 11 -50
13 -62 39 -141 70 -205 28 -59 51 -99 129 -213 6 -8 30 -36 55 -62 75 -77 75
-76 31 -78 -21 -2 -49 -5 -62 -8 -22 -5 -38 -7 -121 -18 -18 -3 -53 -8 -78
-11 -162 -22 -230 -78 -232 -188 0 -39 28 -117 44 -117 4 0 8 -4 8 -10 0 -5
32 -61 70 -125 39 -64 70 -120 70 -125 0 -6 4 -10 9 -10 5 0 11 -8 14 -17 6
-18 37 -74 47 -83 11 -11 110 -182 110 -191 0 -5 5 -9 10 -9 6 0 10 -4 10 -9
0 -5 23 -46 50 -90 28 -44 50 -85 50 -90 0 -5 3 -11 8 -13 4 -2 50 -75 101
-163 52 -88 101 -168 109 -177 8 -10 11 -18 6 -18 -5 0 -4 -4 2 -8 13 -9 104
-159 104 -172 0 -6 4 -10 9 -10 5 0 11 -8 15 -17 3 -10 17 -36 31 -58 14 -22
28 -48 32 -57 3 -10 9 -18 13 -18 4 0 10 -8 13 -17 6 -18 38 -74 47 -83 3 -3
32 -50 64 -105 32 -55 66 -108 74 -117 8 -10 12 -18 9 -18 -6 0 52 -94 73
-117 6 -7 8 -13 5 -13 -3 0 11 -26 31 -57 20 -32 45 -72 55 -90 10 -17 30 -51
46 -75 15 -24 28 -45 28 -48 0 -3 12 -23 26 -45 14 -22 34 -56 45 -75 10 -19
21 -37 24 -40 12 -11 170 -282 170 -291 0 -5 4 -9 9 -9 5 0 11 -8 14 -17 6
-18 37 -73 47 -83 9 -9 70 -111 70 -118 1 -16 37 -48 71 -63 38 -18 106 -18
152 0 27 10 160 142 492 486 88 91 163 165 168 165 4 0 5 -4 2 -10 -3 -5 -1
-10 4 -10 6 0 11 -5 11 -11 0 -5 25 -63 56 -127 101 -210 143 -300 146 -312 2
-9 -55 -13 -235 -14 -186 -1 -240 -4 -246 -14 -5 -8 -12 -13 -16 -12 -12 4
-66 -51 -77 -79 -12 -30 -17 -101 -9 -116 3 -5 6 -12 6 -15 1 -3 28 -61 62
-130 82 -168 133 -280 133 -291 0 -5 4 -17 10 -27 11 -21 75 -185 80 -207 1
-5 15 -45 30 -87 16 -43 26 -78 23 -78 -3 0 -1 -6 5 -13 6 -7 13 -24 15 -37 2
-14 7 -32 10 -40 8 -17 37 -126 42 -155 2 -11 11 -47 20 -80 22 -84 24 -93 35
-155 6 -30 12 -66 15 -80 3 -14 7 -38 10 -55 3 -16 7 -43 10 -60 3 -16 8 -50
10 -75 2 -25 7 -61 10 -80 14 -93 20 -204 20 -410 -1 -193 -10 -383 -20 -400
-3 -5 -14 -82 -20 -137 -2 -18 -8 -41 -14 -51 -6 -11 -8 -22 -5 -24 3 -3 -4
-39 -16 -79 -11 -41 -20 -76 -20 -79 0 -3 -14 -50 -32 -105 -17 -55 -32 -102
-33 -105 0 -3 -6 -15 -13 -27 -7 -13 -10 -23 -7 -23 3 0 1 -9 -5 -21 -6 -11
-13 -28 -15 -37 -6 -22 -62 -181 -74 -207 -9 -20 -31 -85 -35 -108 -2 -7 -8
-24 -14 -40 -7 -15 -14 -38 -16 -50 -3 -12 -16 -54 -29 -94 -14 -39 -23 -74
-19 -77 3 -3 0 -6 -6 -6 -7 0 -11 -3 -11 -7 1 -5 0 -10 -1 -13 -1 -3 -3 -12
-5 -20 -2 -8 -11 -42 -20 -75 -9 -33 -18 -68 -20 -78 -2 -9 -6 -21 -9 -25 -3
-5 -7 -19 -10 -33 -3 -13 -16 -69 -31 -124 -14 -55 -28 -109 -30 -120 -2 -11
-4 -20 -5 -20 -1 0 -3 -9 -4 -20 -2 -11 -15 -72 -29 -135 -14 -63 -29 -131
-32 -150 -3 -19 -14 -84 -25 -145 -21 -125 -28 -169 -36 -240 -3 -27 -7 -61
-10 -75 -2 -14 -7 -63 -10 -110 -7 -93 -11 -135 -14 -135 -8 0 -13 -541 -6
-645 9 -122 22 -242 41 -365 2 -16 14 -79 26 -140 12 -60 23 -117 24 -125 1
-8 5 -22 8 -30 3 -8 15 -53 27 -100 26 -99 65 -217 91 -277 11 -24 19 -47 19
-52 0 -9 32 -83 86 -198 19 -40 34 -77 34 -83 0 -5 4 -10 8 -10 5 0 21 -27 37
-60 16 -33 32 -60 37 -60 4 0 8 -6 8 -13 0 -7 16 -36 35 -64 19 -29 35 -57 35
-63 0 -5 5 -10 10 -10 6 0 10 -4 10 -10 0 -5 6 -18 14 -27 8 -10 45 -58 81
-107 37 -49 72 -95 78 -102 7 -7 32 -36 57 -65 86 -102 276 -284 378 -363 15
-11 29 -24 30 -28 2 -5 8 -8 14 -8 6 0 21 -11 34 -26 13 -14 24 -21 24 -17 0
4 4 3 8 -2 4 -6 27 -24 52 -40 25 -17 51 -35 58 -42 6 -6 21 -15 32 -18 11 -3
20 -11 20 -16 0 -5 4 -9 10 -9 5 0 49 -24 97 -53 81 -48 354 -187 369 -187 3
0 20 -7 37 -15 102 -46 385 -140 487 -161 14 -3 50 -11 80 -19 63 -16 98 -23
154 -30 21 -3 42 -7 45 -9 3 -3 31 -7 61 -10 30 -4 71 -9 90 -11 49 -8 120
-15 151 -17 l27 -1 -2 -1246 c-1 -1238 -1 -1246 -21 -1247 -44 -3 -171 -14
-195 -18 -14 -3 -56 -7 -95 -11 -38 -4 -73 -8 -76 -11 -3 -2 -32 -6 -63 -8
-31 -3 -60 -7 -64 -10 -4 -2 -28 -7 -52 -11 -25 -4 -76 -13 -115 -22 -38 -8
-81 -17 -95 -19 -14 -3 -34 -8 -45 -11 -11 -4 -27 -8 -35 -9 -8 -1 -51 -12
-95 -24 -44 -12 -89 -24 -100 -26 -27 -7 -37 -10 -55 -17 -23 -8 -75 -19 -76
-15 0 2 -7 -2 -15 -8 -8 -7 -30 -15 -49 -19 -19 -4 -41 -12 -49 -19 -8 -6 -17
-10 -20 -10 -9 2 -171 -54 -236 -81 -122 -51 -254 -111 -272 -123 -13 -8 -23
-11 -23 -7 0 3 -13 -3 -29 -14 -16 -12 -31 -21 -34 -21 -9 0 -236 -130 -249
-143 -7 -7 -25 -18 -39 -25 -22 -12 -43 -27 -95 -71 -7 -5 -15 -7 -18 -4 -3 4
-6 2 -6 -4 0 -6 -18 -22 -40 -37 -59 -39 -257 -237 -271 -271 -21 -54 -18
-116 8 -156 27 -41 79 -83 93 -74 5 3 11 2 13 -3 3 -4 1215 -7 2694 -7 2656 0
2688 1 2718 20 80 53 114 164 72 241 -26 50 -267 284 -292 284 -4 0 -15 8 -24
18 -20 22 -220 155 -261 174 -16 7 -30 16 -30 20 0 5 -4 8 -9 8 -5 0 -37 16
-70 34 -34 19 -61 33 -61 30 0 -2 -17 6 -37 19 -39 23 -216 103 -273 122 -3 1
-18 7 -35 14 -70 30 -237 90 -320 115 -49 15 -101 31 -115 36 -22 8 -89 26
-130 35 -8 2 -71 18 -138 34 -68 17 -128 29 -133 25 -5 -3 -9 -1 -9 4 0 5 -6
9 -12 9 -7 1 -31 4 -53 8 -22 3 -49 8 -60 10 -11 2 -47 8 -80 14 -33 5 -80 13
-105 16 -25 3 -56 8 -70 11 -27 5 -104 12 -209 18 -35 3 -67 9 -70 14 -5 8 -7
2385 -2 2477 1 16 8 20 34 21 17 0 61 4 97 9 36 4 76 9 90 10 14 2 41 6 60 10
19 4 46 9 60 10 14 2 36 6 50 9 74 17 130 27 132 25 2 -1 12 3 24 9 20 11 31
14 99 27 44 9 306 94 350 114 11 6 81 36 155 67 74 32 136 61 138 66 2 4 12 8
23 8 10 0 19 4 19 10 0 5 3 9 8 8 4 -1 23 6 42 16 45 24 279 165 294 177 37
31 106 79 106 74 0 -3 10 4 22 16 13 11 39 33 58 48 107 81 317 279 398 375
99 118 249 325 292 403 11 21 30 54 42 73 41 68 146 286 178 370 18 47 38 99
45 115 7 17 27 80 45 140 17 61 34 117 37 125 3 8 7 22 8 30 2 8 6 26 9 40 4
14 11 45 16 70 5 25 12 56 15 70 4 14 8 39 11 55 3 17 12 75 22 130 15 86 17
175 17 625 0 289 -4 557 -9 595 -5 39 -10 81 -11 95 -4 28 -13 91 -20 130 -3
14 -7 43 -11 65 -3 22 -11 72 -19 110 -8 39 -17 90 -20 115 -4 24 -9 48 -11
52 -5 8 -8 22 -18 79 -3 19 -13 61 -21 94 -9 33 -17 69 -19 80 -3 11 -7 30
-10 43 -3 12 -8 32 -11 45 -3 12 -12 47 -21 77 -30 105 -35 125 -38 140 -2 8
-6 22 -9 30 -8 20 -57 184 -57 190 1 3 -9 32 -20 65 -12 33 -23 67 -25 75 -2
8 -4 15 -4 15 -2 0 -82 229 -86 245 -2 8 -4 16 -5 18 -2 1 -3 5 -4 10 -1 4 -4
12 -7 17 -4 6 -14 35 -24 65 -10 30 -20 59 -23 64 -5 9 -70 191 -71 201 -1 3
-1 6 -2 8 0 1 -2 9 -4 17 -2 8 -13 53 -25 100 -12 47 -23 94 -25 105 -8 51
-23 120 -25 120 0 0 -3 25 -5 55 -2 30 -6 65 -9 78 -18 82 -23 381 -11 572 11
174 12 183 19 201 4 8 8 40 10 70 4 56 14 123 23 149 4 13 8 37 17 116 1 11 5
24 8 30 3 5 9 29 14 54 9 50 10 58 14 65 1 3 4 10 5 15 1 6 3 11 5 13 1 1 3
11 5 22 6 42 14 77 40 162 52 172 98 308 109 322 6 8 9 15 7 15 -6 1 24 83 56
154 12 29 23 55 23 58 0 9 23 59 113 244 63 131 79 174 78 208 -1 77 -62 153
-133 168 -33 6 -278 5 -289 -1 -5 -4 -9 -3 -9 2 0 8 -190 7 -222 -1 -10 -2
-18 -1 -18 2 0 4 -47 6 -105 4 l-105 -3 5 43 c2 24 7 54 9 68 3 14 7 45 10 70
3 25 8 54 10 65 2 11 7 43 10 70 6 48 14 98 23 140 2 11 6 40 9 65 3 25 7 56
9 70 2 14 7 42 10 63 9 66 15 101 20 127 2 14 7 45 9 70 3 25 8 59 11 75 4 17
8 44 10 60 2 17 6 45 9 63 3 18 8 52 11 75 3 23 8 53 10 67 2 14 6 43 10 65 3
23 7 50 9 62 9 46 23 142 31 213 2 14 4 25 5 25 2 0 4 14 5 30 2 17 4 32 5 35
1 3 2 8 1 12 0 4 4 31 9 60 5 29 12 71 15 93 3 22 7 51 10 65 2 14 7 45 10 70
4 43 7 58 20 125 3 17 8 50 10 75 2 25 7 56 10 70 3 14 8 45 10 70 3 25 7 54
10 65 2 11 7 43 10 70 4 28 8 57 10 65 2 8 7 38 10 65 4 28 8 61 11 75 2 14 7
41 9 60 3 19 10 64 16 100 5 36 12 79 14 95 2 17 6 39 8 50 3 11 8 45 11 75 4
30 8 66 11 80 6 37 15 100 21 140 3 19 7 49 10 65 3 17 7 48 10 70 5 42 12 80
14 80 1 0 3 16 4 35 2 19 6 49 9 65 3 17 8 50 12 75 3 25 8 58 11 73 3 15 7
44 9 65 2 20 7 57 12 82 13 74 3 132 -31 172 -38 43 -82 61 -186 73 -19 2 -65
9 -102 15 -37 7 -78 13 -90 15 -13 1 -39 5 -58 9 -19 3 -53 8 -75 11 -51 7
-92 13 -130 21 -16 3 -63 7 -104 9 -74 4 -91 -1 -144 -45 -22 -18 -43 -66 -51
-112 -3 -18 -10 -55 -15 -83 -5 -27 -12 -74 -16 -104 -4 -30 -9 -63 -11 -75
-4 -22 -19 -113 -30 -181 -3 -22 -25 -161 -49 -310 -45 -273 -53 -326 -60
-380 -2 -16 -7 -43 -10 -60 -2 -16 -7 -41 -9 -55 -3 -14 -5 -27 -6 -30 -2 -3
-2 -8 -1 -12 0 -3 -6 -44 -14 -90 -9 -45 -17 -100 -20 -122 -3 -21 -8 -52 -10
-70 -9 -52 -16 -90 -20 -116 -14 -97 -20 -131 -30 -180 -2 -14 -7 -47 -11 -75
-3 -27 -10 -60 -15 -73 -6 -17 -6 -21 3 -16 7 4 8 3 4 -4 -10 -16 -20 -66 -32
-157 -3 -27 -8 -59 -11 -70 -2 -11 -6 -33 -9 -50 -2 -16 -7 -46 -10 -65 -4
-19 -8 -48 -10 -65 -1 -16 -5 -42 -8 -57 -10 -46 -14 -71 -20 -119 -7 -46 -9
-57 -26 -159 -5 -30 -12 -73 -15 -95 -3 -22 -8 -51 -10 -65 -2 -14 -7 -43 -10
-65 -3 -23 -7 -52 -10 -65 -6 -30 -13 -73 -20 -120 -2 -19 -7 -46 -10 -60 -6
-33 -17 -99 -20 -130 -2 -14 -4 -27 -5 -30 -1 -3 -2 -8 -1 -13 1 -4 -4 -28
-10 -55 -11 -49 -22 -130 -23 -169 -1 -13 -4 -23 -7 -23 -3 0 -6 -6 -6 -12 -2
-32 -17 -137 -28 -197 -1 -9 -6 -35 -9 -57 l-7 -41 -87 -2 c-47 -1 -89 -4 -94
-7 -4 -3 -8 -2 -8 3 0 7 -150 7 -212 0 -16 -2 -28 -1 -28 2 0 7 -195 4 -222
-3 -10 -2 -18 -1 -18 2 0 7 -156 6 -212 -1 -16 -2 -28 -1 -28 2 0 7 -195 4
-222 -3 -10 -2 -18 -1 -18 2 0 7 -156 6 -212 -1 -16 -2 -28 -1 -28 2 0 7 -195
4 -222 -3 -10 -2 -18 -1 -18 2 0 7 -156 6 -212 -1 -16 -2 -28 -1 -28 2 0 7
-195 4 -222 -3 -10 -2 -18 -1 -18 2 0 7 -156 6 -212 -1 -16 -2 -28 -1 -28 2 0
7 -195 4 -222 -3 -10 -2 -18 -1 -18 2 0 7 -156 6 -212 -1 -16 -2 -28 -1 -28 2
0 7 -195 4 -222 -3 -10 -2 -18 -1 -18 2 0 4 -28 6 -63 4 l-63 -2 -63 132 c-35
73 -80 168 -101 213 -124 265 -153 325 -174 366 l-24 47 525 518 c288 286 596
590 684 678 158 155 184 190 190 251 4 44 -14 89 -122 305 -54 107 -174 348
-267 535 -195 393 -189 383 -222 410 -47 38 -68 44 -150 40 -44 -2 -83 -6 -87
-8 -5 -3 -39 -8 -76 -12 -37 -3 -78 -8 -90 -11 -12 -2 -40 -6 -62 -9 -22 -2
-60 -7 -85 -11 -25 -3 -58 -8 -75 -9 -16 -2 -30 -4 -30 -5 0 -1 -16 -3 -35 -5
-19 -1 -55 -5 -80 -9 -25 -4 -65 -9 -90 -13 -25 -3 -53 -7 -64 -9 -24 -4 -122
-16 -161 -20 -16 -1 -30 -3 -30 -4 0 -1 -11 -3 -25 -5 -47 -6 -120 -15 -163
-20 -24 -2 -57 -7 -73 -10 -16 -3 -53 -8 -82 -10 l-52 -5 35 70 c43 86 85 207
91 267 2 25 8 63 13 84 14 63 4 259 -16 309 -3 8 -7 20 -9 27 -1 7 -14 38 -29
70 -14 32 -26 60 -25 62 1 2 -2 7 -7 10 -4 3 -21 23 -36 44 -30 40 -124 137
-133 137 -3 0 -25 16 -48 35 -24 19 -48 35 -54 35 -6 0 -17 6 -24 13 -17 17
-106 58 -188 86 -36 13 -72 26 -80 29 -17 6 -14 5 -100 25 -36 9 -85 18 -110
22 -25 3 -53 8 -62 11 -33 10 -133 17 -263 18 -126 1 -145 6 -150 36 -1 3 -30
64 -65 135 -72 149 -109 191 -173 200 -50 6 -87 4 -93 -7z m2392 -5438 c7 -14
55 -110 105 -215 50 -104 109 -228 131 -275 23 -47 60 -124 84 -172 l43 -87
-89 1 c-49 1 -92 -1 -95 -4 -3 -3 -20 -3 -38 1 -18 3 -52 4 -77 1 -91 -10 -93
-9 -136 135 -51 173 -146 431 -210 573 -13 29 -24 56 -24 60 0 4 66 7 146 7
144 0 145 0 160 -25z m3338 5 c-1 -5 -5 -28 -8 -50 -3 -22 -8 -51 -10 -65 -3
-14 -8 -45 -11 -70 -2 -25 -7 -56 -9 -70 -4 -23 -26 -160 -41 -255 -4 -22 -9
-56 -11 -75 -4 -34 -11 -70 -14 -80 -1 -3 -2 -12 -1 -21 1 -9 -3 -28 -8 -42
-10 -26 -14 -27 -83 -27 -40 -1 -82 0 -93 0 -140 5 -245 3 -245 -3 0 -5 -4 -6
-9 -2 -8 4 -57 6 -121 4 -8 0 -103 0 -210 1 -107 1 -199 1 -205 -1 -5 -1 -14
-1 -18 0 -5 1 -36 1 -70 1 -34 -1 -71 -1 -82 0 -138 5 -245 3 -245 -3 0 -5 -4
-6 -9 -2 -8 4 -57 6 -121 4 -8 0 -103 0 -210 1 -107 1 -199 1 -205 -1 -5 -1
-14 -1 -18 0 -7 1 -48 1 -137 0 -8 0 -84 1 -168 2 -84 1 -155 0 -157 -3 -3 -2
-19 -3 -36 0 -26 4 -35 13 -62 71 -18 36 -36 69 -40 72 -5 3 -8 9 -8 13 1 3
-5 19 -13 35 -9 16 -12 31 -9 35 4 3 1 6 -5 6 -7 0 -12 4 -12 9 0 9 -93 206
-188 401 -20 41 -37 78 -37 82 0 3 -3 10 -7 14 -31 30 -6 31 1465 30 975 -1
1472 -4 1471 -11z m1502 -4 c-10 -41 -19 -61 -29 -61 -6 0 -7 -3 -4 -6 4 -4 0
-19 -8 -33 -22 -41 -99 -245 -140 -371 -21 -63 -40 -122 -43 -130 -3 -8 -6
-17 -7 -20 -1 -3 -9 -33 -19 -67 -17 -56 -22 -63 -45 -64 -14 -1 -30 -1 -35 0
-23 5 -166 4 -170 0 -3 -3 -22 -3 -41 -1 l-37 4 7 53 c3 29 8 63 11 76 2 13 7
49 10 78 3 30 7 58 9 61 2 3 7 33 10 65 4 33 9 69 11 80 3 11 7 40 10 65 9 73
13 95 15 98 1 1 3 16 4 32 1 17 3 31 4 33 2 1 4 18 6 37 6 47 9 63 18 76 4 8
77 11 236 11 203 -1 230 -3 227 -16z m-361 -1119 c-11 -62 -38 -219 -38 -229
0 -7 -12 -13 -26 -14 -47 -2 -1058 4 -2036 12 -55 0 -104 0 -110 -1 -5 -1 -12
-2 -15 -1 -6 3 -806 9 -1613 13 -537 3 -547 3 -554 23 -3 11 -8 34 -9 50 -2
17 -6 41 -8 55 -2 14 -7 44 -11 67 l-7 41 2215 0 c2060 0 2215 -1 2212 -16z
m329 -5824 c-48 -95 -152 -273 -187 -318 -10 -14 -36 -49 -58 -78 -63 -87
-118 -149 -229 -261 -121 -121 -198 -191 -210 -191 -5 0 -10 -3 -12 -7 -5 -14
-96 -83 -107 -83 -6 0 -11 -4 -11 -8 0 -4 -15 -16 -32 -27 -18 -10 -35 -21
-38 -25 -3 -3 -23 -17 -45 -30 -22 -13 -43 -29 -47 -34 -4 -6 -8 -7 -8 -2 0 5
-8 2 -17 -6 -51 -45 -473 -250 -473 -230 0 4 -4 3 -8 -3 -6 -8 -137 -59 -177
-69 -36 -9 -102 -28 -115 -33 -8 -3 -19 -7 -25 -8 -5 -2 -39 -10 -74 -19 -35
-10 -66 -15 -69 -12 -3 3 -10 2 -16 -3 -6 -5 -42 -14 -80 -20 -39 -7 -74 -15
-79 -18 -5 -3 -30 -7 -55 -9 -26 -1 -76 -6 -112 -10 -138 -15 -500 -9 -610 11
-14 3 -41 7 -60 10 -19 3 -46 8 -60 10 -14 3 -36 7 -50 10 -14 3 -38 8 -55 12
-16 4 -38 8 -47 9 -10 1 -20 3 -23 4 -3 1 -8 3 -12 4 -5 1 -26 7 -47 14 -22 6
-43 9 -47 6 -4 -2 -10 0 -13 5 -5 8 -63 25 -78 22 -5 0 -8 4 -8 10 0 5 -4 8
-8 5 -6 -4 -133 36 -192 61 -8 3 -19 7 -25 8 -36 9 -359 166 -363 177 -2 4 -9
8 -14 8 -6 0 -47 23 -90 50 -43 28 -83 50 -88 50 -6 0 -10 4 -10 8 0 4 -14 16
-31 26 -36 21 -157 112 -180 135 -9 9 -31 27 -49 41 -83 61 -91 85 -22 63 26
-8 60 -17 75 -19 16 -2 34 -7 40 -11 6 -4 18 -8 27 -9 8 -2 33 -8 55 -14 22
-6 47 -13 55 -15 8 -2 15 -4 15 -5 0 -1 7 -3 15 -5 8 -2 35 -8 60 -14 25 -7
56 -14 70 -17 13 -3 30 -10 37 -16 7 -6 13 -8 13 -5 0 2 33 -4 73 -15 39 -11
79 -21 87 -23 8 -2 15 -4 15 -5 0 -1 7 -3 15 -5 8 -2 101 -26 205 -55 105 -29
199 -53 210 -55 11 -2 20 -4 20 -5 0 -1 7 -3 15 -5 8 -2 49 -13 90 -25 41 -11
85 -23 97 -26 12 -2 34 -9 48 -14 14 -5 25 -7 25 -5 0 2 12 0 28 -6 15 -6 59
-19 97 -29 39 -10 96 -26 128 -34 32 -9 70 -14 85 -11 15 2 50 7 77 11 28 3
59 8 70 11 11 2 38 6 60 8 22 2 51 6 65 9 13 3 42 8 65 11 43 7 78 12 110 19
11 2 43 7 70 10 28 4 57 9 65 11 8 2 35 6 60 9 25 3 54 8 65 10 41 7 151 26
175 30 14 3 25 5 25 6 0 1 16 3 35 5 19 2 46 6 60 9 13 3 42 8 65 11 22 3 54
8 70 12 17 3 40 7 52 9 12 1 34 5 50 8 44 9 96 18 123 21 105 12 177 39 255
96 44 32 92 69 107 82 15 13 39 32 53 43 15 10 44 35 65 54 158 142 189 166
330 255 61 39 123 80 136 93 14 12 28 22 32 22 4 0 23 14 42 30 19 16 40 33
45 37 97 73 177 145 294 266 47 48 86 87 88 87 2 0 -18 -42 -43 -92z m-2314
-4722 c47 -3 101 -8 120 -10 19 -3 58 -7 85 -10 28 -3 68 -8 90 -11 22 -3 54
-8 70 -10 27 -4 69 -12 160 -29 40 -8 61 -12 120 -26 28 -6 61 -14 73 -16 34
-7 118 -30 182 -50 30 -10 58 -17 63 -16 4 1 23 -4 42 -13 20 -8 37 -14 40
-15 6 -1 15 -4 95 -30 80 -27 162 -57 217 -82 24 -10 45 -18 48 -18 3 0 40
-16 82 -36 43 -19 94 -43 113 -51 19 -9 42 -22 50 -29 8 -7 20 -13 25 -14 23
-3 245 -135 245 -146 0 -1 -969 -2 -2152 -2 -1623 0 -2148 3 -2135 12 10 6 41
26 69 44 27 17 56 32 63 32 7 0 15 4 17 8 5 13 225 122 232 115 3 -3 6 -2 6 3
0 8 59 36 80 39 3 0 10 3 15 7 6 3 42 18 80 33 76 29 129 49 160 61 11 4 25 8
30 9 6 0 15 3 20 6 6 4 28 12 50 18 22 7 49 16 60 21 16 6 103 31 125 35 3 1
25 7 50 14 25 7 53 15 62 16 10 2 22 6 26 9 5 3 19 7 33 10 13 2 54 11 92 20
37 9 79 18 95 21 15 3 38 7 52 11 14 3 39 7 55 10 34 4 70 12 70 14 0 1 18 3
40 5 22 2 53 6 69 9 79 14 164 23 301 32 55 3 101 7 102 8 4 3 234 -3 313 -8z"/>
</g>
</svg>
