<?xml version="1.0" encoding="utf-8"?>
<!-- Generator: Adobe Illustrator 23.0.1, SVG Export Plug-In . SVG Version: 6.00 Build 0)  -->
<svg version="1.1" id="Layer_1" xmlns="http://www.w3.org/2000/svg" xmlns:xlink="http://www.w3.org/1999/xlink" x="0px" y="0px"
	 viewBox="0 0 1981 1102" style="enable-background:new 0 0 1981 1102;" xml:space="preserve">
<style type="text/css">
	.st0{fill-rule:evenodd;clip-rule:evenodd;fill:url(#SVGID_1_);}
	.st1{fill-rule:evenodd;clip-rule:evenodd;fill:#4F3E37;}
	.st2{fill-rule:evenodd;clip-rule:evenodd;fill:#496012;}
	.st3{fill-rule:evenodd;clip-rule:evenodd;fill:#738A21;}
	.st4{fill:#7F5C36;}
	.st5{fill:none;}
	.st6{fill:#C69C6D;}
	.st7{fill:none;stroke:#F73A00;stroke-width:8;stroke-miterlimit:10;}
	.st8{fill:#1BAFAF;}
	.st9{fill:#F4F7D2;}
	.st10{fill:#ED0A40;}
	.st11{fill:#FFFF00;}
	.st12{display:none;}
	.st13{display:inline;}
	.st14{fill:#3F1CAD;}
</style>
<g id="Background">
	<g>
		
			<linearGradient id="SVGID_1_" gradientUnits="userSpaceOnUse" x1="990.5" y1="-9.094947e-13" x2="990.5" y2="1102" gradientTransform="matrix(1 0 0 -1 0 1102)">
			<stop  offset="1.980641e-02" style="stop-color:#E4D3BB"/>
			<stop  offset="0.1435" style="stop-color:#FAF2D9"/>
			<stop  offset="0.2589" style="stop-color:#FFF3E3"/>
			<stop  offset="0.4024" style="stop-color:#ECEFBD"/>
			<stop  offset="0.5686" style="stop-color:#D9A037"/>
			<stop  offset="0.7116" style="stop-color:#D7761B"/>
			<stop  offset="0.8507" style="stop-color:#751F18"/>
			<stop  offset="1" style="stop-color:#350816"/>
		</linearGradient>
		<rect class="st0" width="1981" height="1102"/>
		<path id="broun_plams" class="st1" d="M1012.3,431.3c21.4-35.7,42.9-57.2,64.3-78.6c-14.3,21.4-28.6,50-21.4,64.3
			c7.1-28.6,28.6-57.2,57.2-85.8c-14.3,28.6-21.4,50-14.3,64.3c7.1-28.6,28.6-64.3,64.3-85.8c-28.6,28.6-28.6,50-28.6,57.2
			c14.3-28.6,35.7-50,64.3-57.2c-14.3,14.3-28.6,28.6-28.6,42.9c14.3-14.3,57.2-71.5,107.2-28.6c-107.2-21.4-114.4,157.3-85.8,207.3
			c-7.1-35.7-7.1-57.2-7.1-78.6c7.1,21.4,14.3,42.9,21.4,50c-7.1-21.4-14.3-50-14.3-78.6c14.3,28.6,21.4,35.7,28.6,42.9
			c-14.3-21.4-14.3-50-7.1-78.6c0,28.6,7.1,35.7,14.3,42.9c-7.1-21.4-7.1-42.9,0-64.3c0,21.4,0,35.7,7.1,42.9
			c0-50,7.1-64.3,42.9-71.5v14.3h-7.1l7.1,21.4h-7.1l7.1,28.6h-7.1l7.1,21.4h-7.1l7.1,21.4h-7.1l7.1,28.6h-7.1l7.1,21.4h-7.1
			l7.1,21.4h-7.1l7.1,28.6h-7.1l7.1,21.4h-7.1l7.1,28.6h-7.1l7.1,28.6h-7.1l7.1,21.4h-7.1l7.1,28.6h-7.1v21.4h-7.1l7.1,28.6h-7.1
			l7.1,35.7c-64.3,7.1-121.5,50-300.2,85.8c-71.5-7.1-78.6-7.1-100.1-28.6c-7.1-7.1-14.3-7.1-28.6-14.3l7.1-14.3h-7.1l7.1-14.3h-7.1
			V767l0,0v-14.3l0,0v-7.1l0,0v-14.3l0,0V717l0,0v-7l0,0v-14.3l0,0v-7.1l0,0v-14.3l0,0V660l0,0v-7.1l0,0v-14.3l0,0v-7.1l0,0v-14.3
			l0,0V610c21.4,7.1,28.6,14.3,21.4,35.7c7.1-7.1,7.1-14.3,7.1-14.3c7.1,7.1,0,14.3-7.1,21.4c7.1,0,14.3,0,14.3-14.3
			c7.1,14.3,0,21.4-7.1,28.6c0,0,7.1-7.1,14.3-14.3c0,14.3-7.1,21.4-14.3,28.6c7.1,0,14.3-7.1,14.3-14.3c0,7.1,0,14.3-7.1,28.6
			c21.4-14.3,35.7-92.9-35.7-85.8c28.6-21.4,28.6-14.3,50,7.1c0-7.1-7.1-14.3-7.1-21.4c7.1,7.1,14.3,14.3,14.3,28.6
			c7.1-7.1,7.1-14.3,0-28.6c14.3,14.3,14.3,21.4,14.3,35.7c7.1-7.1,7.1-14.3,7.1-28.6c7.1,14.3,7.1,28.6,14.3,35.7
			c0,0,0-14.3-7.1-21.4c7.1,7.1,14.3,14.3,21.4,28.6c-7.1-100.1-100.1-50-107.2-42.9c0-21.4,7.1-21.4,28.6-21.4
			c0-7.1-7.1-7.1-14.3-7.1c7.1-7.1,21.4-7.1,28.6,0c0,0-7.1-7.1-21.4-7.1c14.3-7.1,28.6,0,35.7,7.1c0-7.1-7.1-14.3-14.3-14.3
			c7.1,0,21.4,0,35.7,7.1c-7.1-7.1-14.3-7.1-21.4-14.3c7.1,0,14.3,0,35.7,7.1c-21.4-14.3-85.8-21.4-100.1,21.4c0-7.1,0-14.3,0-28.6
			c-7.1,14.3,0,21.4,0,28.6c-21.4-42.9-78.6-42.9-92.9-35.7c14.3,0,21.4,0,35.7,0c-14.3,7.1-21.4,7.1-21.4,14.3
			c7.1-7.1,21.4-7.1,28.6-7.1c-7.1,7.1-14.3,7.1-14.3,14.3c7.1-7.1,21.4-7.1,35.7-7.1c-14.3,7.1-14.3,7.1-21.4,14.3
			c14.3-7.1,21.4-7.1,28.6,0c-7.1,0-14.3,0-14.3,0c21.4,7.1,28.6,14.3,28.6,28.6c-7.1-14.3-78.6-57.2-121.5,50
			c14.3-14.3,21.4-21.4,28.6-28.6c-7.1,7.1-7.1,21.4-7.1,21.4c0-7.1,14.3-21.4,28.6-35.7c-7.1,14.3-14.3,21.4-14.3,28.6
			c7.1-14.3,14.3-28.6,35.7-35.7c-14.3,14.3-14.3,21.4-14.3,21.4c7.1-7.1,14.3-21.4,28.6-21.4c-7.1,0-14.3,14.3-14.3,14.3
			c7.1-7.1,28.6-28.6,50-14.3c-50-7.1-50,78.6-35.7,100.1c-7.1-14.3-7.1-28.6-7.1-35.7c0,7.1,7.1,21.4,7.1,21.4c0-7.1,0-21.4,0-35.7
			c0,14.3,7.1,14.3,7.1,21.4c0-14.3-7.1-21.4,0-35.7c0,14.3,0,14.3,7.1,21.4c-7.1-14.3-7.1-21.4,0-28.6c0,0,0,7.1,0,14.3
			c7.1-21.4,7.1-28.6,21.4-28.6l0,0l0,0v14.3l0,0v7.1l0,0v14.3l0,0v7.1l0,0v14.3l0,0v14.3l0,0v7.1l0,0V710l0,0v7.1l0,0v14.3l0,0
			v14.3l0,0v7.1h-7.1l7.1,14.3h-7.1l7.1,7.1h-7.1l7.1,14.3h-7.1l7.1,14.3c-42.9,7.1-71.5,35.7-214.4,57.2l-14.3-7.1l7.1-42.9h-7.1
			l7.1-35.7h-7.1l7.1-35.7h-7.1l7.1-35.7h-14.3l7.1-35.7h-7.1l7.1-35.7h-7.1l7.1-35.7h-7.1l7.1-35.7h-7.1l7.1-28.6h-7.1l7.1-35.7
			h-7.1l7.1-35.7h-7.1l7.1-28.6h-7.1l7.1-35.7h-7.1l7.1-35.7h-7.1l7.1-28.6h-7.1l7.1-35.7h-14.3l7.1-14.3
			c50,7.1,57.2,28.6,57.2,92.9c7.1-7.1,14.3-28.6,14.3-50c7.1,28.6,7.1,57.2,0,85.8c7.1-7.1,14.3-21.4,21.4-57.2
			c7.1,35.7,0,71.5-7.1,100.1c7.1-7.1,14.3-21.4,28.6-50c0,35.7-7.1,71.5-14.3,100.1c7.1-7.1,21.4-35.7,21.4-64.3
			c7.1,28.6,0,57.2-7.1,100.1c35.7-57.2,28.6-307.4-114.4-278.8c64.3-57.2,121.5,14.3,150.1,42.9c0-21.4-21.4-42.9-42.9-64.3
			c42.9,14.3,71.5,42.9,85.8,85.8c0-21.4,0-42.9-35.7-78.6c50,28.6,78.6,71.5,92.9,107.2c0-14.3-7.1-35.7-21.4-78.6
			c28.6,35.7,64.3,78.6,78.6,114.4c0-14.3-14.3-57.2-35.7-85.8c28.6,28.6,57.2,57.2,92.9,100.1C826.4,73.9,612,195.4,583.4,245.4
			c21.4-50,28.6-71.5,92.9-78.6c-7.1-7.1-28.6-7.1-42.9-7.1c28.6-14.3,57.2-21.4,78.6-7.1c-7.1-7.1-14.3-21.4-50-21.4
			c35.7-14.3,71.5-7.1,100.1,0c-7.1-7.1-21.4-21.4-50-35.7c35.7,0,71.5,7.1,92.9,14.3c0-7.1-28.6-21.4-50-28.6c21.4,0,50,0,92.9,0
			c-50-28.6-221.6-21.4-271.6,100.1c0-21.4,7.1-50-7.1-71.5c-7.1,28.6-7.1,50,0,64.3c-43-121.7-236-100.2-293.2-57.4
			c50-14.3,78.6-14.3,107.2-14.3c-28.6,7.1-57.2,21.4-64.3,35.7c28.6-14.3,71.5-21.4,107.2-28.6c-35.7,21.4-50,28.6-57.2,42.9
			c28.6-14.3,64.3-28.6,114.4-21.4c-42.9,7.1-57.2,21.4-64.3,35.7c28.6-14.3,57.2-21.4,92.9-7.1c-21.4,0-42.9,7.1-57.2,21.4
			c71.5,0,100.1,7.1,92.9,64.3C533.4,216.8,240.3,73.9,226,381.2c21.4-42.9,35.7-71.5,57.2-100.1c-14.3,28.6-14.3,71.5-7.1,85.8
			c7.1-35.7,21.4-78.6,42.9-114.4c-7.1,42.9-7.1,71.5,7.1,85.8c0-35.7,14.3-78.6,50-107.2c-21.4,35.7-14.3,57.2-7.1,78.6
			c0-42.9,21.4-64.3,57.2-78.6c-14.3,14.3-28.6,35.7-21.4,57.2c50-64.3,64.3-78.6,143-28.6c-221.6-21.4-164.4,214.4-100.1,264.5
			c-21.4-35.7-28.6-64.3-35.7-85.8c14.3,21.4,35.7,42.9,50,50c-21.4-21.4-35.7-57.2-42.9-85.8c21.4,21.4,35.7,35.7,50,42.9
			c-21.4-21.4-35.7-57.2-35.7-92.9c14.3,35.7,28.6,42.9,42.9,50c-21.4-21.4-28.6-50-21.4-78.6c7.1,21.4,14.3,35.7,28.6,42.9
			c-14.3-64.3-7.1-78.6,71.5-92.9v21.4h-7.1l7.1,35.7h-7.1l7.1,28.6h-7.1l7.1,35.7h-7.1l7.1,35.7h-7.1l7.1,28.6h-7.1l7.1,35.7h-7.1
			l7.1,35.7h-7.1l7.1,28.6h-7.1l7.1,35.7h-7.1l7.1,35.7h-14.3l14.3,35.7h-14.3l7.1,35.7h-7.1l7.1,35.7h-7.1l7.1,35.7h-7.1l7.1,35.7
			h-14.3l14.3,42.9c-100.2,21.9-178.8,72-236,143.5c278.8,114.4,600.4-7.1,1015-7.1c-200.1-57.2-471.8,35.7-571.8-71.5
			c-14.3-7.1-28.6-21.4-42.9-28.6c85.8,0,293.1-14.3,421.7-28.6c135.8-14.3,386,57.2,500.4,7.1c-178.7-7.1-193-50-200.1-57.2
			c-35.7-35.7-64.3-42.9-121.5-57.2l7.1-28.6h-7.1v-28.6h-7.1l7.1-21.4h-7.1l7.1-28.6h-7.1l7.1-21.4h-7.1l7.1-28.6h-7.1l7.1-28.6
			h-7.1v-21.4l0,0V517l0,0v-21.4l0,0v-21.4l0,0v-28.6l0,0v-21.4l0,0v-21.4l0,0v-28.6l0,0v-21.4h-7.1l7.1-14.3
			c57.2,7.1,57.2,21.4,50,64.3c7.1-7.1,14.3-14.3,21.4-28.6c0,14.3,0,35.7-14.3,57.2c7.1-7.1,21.4-14.3,28.6-42.9
			c0,28.6-14.3,50-28.6,71.5c14.3-7.1,21.4-14.3,42.9-35.7c-7.1,28.6-21.4,50-35.7,64.3c14.3,0,28.6-21.4,35.7-35.7
			c0,21.4-7.1,35.7-21.4,64.3c42.9-35.7,85.8-207.3-71.5-193c57.2-35.7,64.3-21.4,100.1,21.4c0-14.3-7.1-28.6-14.3-42.9
			c21.4,7.1,35.7,28.6,42.9,57.2c0-14.3,7.1-28.6-7.1-57.2c28.6,21.4,35.7,50,35.7,78.6c7.1-14.3,7.1-28.6,7.1-64.3
			c14.3,28.6,28.6,57.2,28.6,85.8c7.1-14.3,7.1-42.9,0-64.3c14.3,21.4,21.4,42.9,35.7,71.5c-7.1-221.6-221.6-114.4-235.9-100.1
			c0-42.9,14.3-42.9,71.5-42.9c-7.1-7.1-28.6-14.3-42.9-14.3c21.4-7.1,42.9-7.1,71.5,7.1c-14.3-14.3-21.4-21.4-50-28.6
			c35.7-7.1,57.2,7.1,78.6,14.3c0-7.1-14.3-21.4-35.7-28.6c28.6,0,57.2,7.1,71.5,21.4c0-14.3-21.4-21.4-42.9-28.6
			c21.4,0,42.9,0,78.6,14.3c-42.9-35.7-178.7-50-207.3,35.7c0-7.1,0-28.6-7.1-50c-7.1,21.4-7.1,42.9-7.1,57.2
			c-35.7-92.9-157.3-92.9-193-71.5c28.6,0,50,0,64.3,0c-14.3,0-35.7,14.3-35.7,21.4c14.3-7.1,42.9-14.3,71.5-7.1
			c-21.4,7.1-35.7,14.3-35.7,21.4c14.3-7.1,42.9-14.3,71.5,0c-28.6,0-35.7,7.1-42.9,14.3c21.4-7.1,42.9-7.1,64.3,7.1
			c-14.3-7.1-28.6,0-35.7,7.1c50,7.1,57.2,21.4,71.5,57.2C1262.5,274,1105.2,188.2,1012.3,431.3z M955.1,845.8
			c-71.5,14.3-150.1,28.6-257.3,35.7c-14.3-7.1-28.6-14.3-50-14.3c42.9-7.1,85.8-7.1,114.4-14.3
			C812.1,838.7,890.8,845.8,955.1,845.8z"/>
		<g>
			<path class="st2" d="M826.8,615.4c0,0-1.7-5-2.5-7.5c-23.7,5-26.2,10-21.2,31.2c-5-3.7-7.5-8.7-8.7-15
				c-2.5,8.7-1.2,17.5,6.2,24.9c-5-2.5-10-5-15-16.2c0,12.5,6.2,22.5,12.5,29.9c-5-1.2-10-6.2-17.5-15c3.7,11.2,8.7,22.5,15,28.7
				c-5-1.2-12.5-8.7-16.2-16.2c1.2,8.7,5,16.2,10,28.7c-20-17.5-38.7-92.3,33.7-86.1c-26.2-16.2-29.9-11.2-46.1,10
				c-1.2-6.2,2.5-13.7,6.2-20c-10,5-16.2,13.7-17.5,26.2c-1.2-6.2-3.7-12.5,2.5-26.2c-12.5,10-16.2,23.7-17.5,34.9
				c-2.5-5-2.5-13.7-1.2-26.2c-7.5,11.2-12.5,24.9-13.7,34.9c-2.5-5-2.5-17.5,1.2-26.2c-6.2,7.5-11.2,16.2-17.5,32.4
				c5-101,99.8-52.4,104.8-44.9c1.2-18.7-7.5-21.2-29.9-21.2c2.5-3.7,10-5,17.5-6.2c-10-3.7-20-3.7-29.9,2.5
				c3.7-3.7,6.2-8.7,20-11.2c-13.7-2.5-26.2,2.5-36.2,7.5c2.5-5,7.5-8.7,18.7-15c-12.5,1.2-26.2,5-33.7,10c1.2-3.7,11.2-10,20-12.5
				c-10,0-20,1.2-33.7,5c17.5-15,79.8-21.2,92.3,18.7c-1.2-6.2-1.2-12.5,2.5-22.5c2.5,8.7,1.2,18.7,2.5,23.7
				c15-38.7,71.1-41.2,86.1-29.9c-13.7-2.5-22.5-2.5-31.2-1.2c7.5,1.2,16.2,6.2,17.5,8.7c-7.5-2.5-18.7-3.7-29.9-3.7
				c8.7,3.7,13.7,7.5,15,11.2c-7.5-3.7-18.7-6.2-31.2-1.2c11.2,0,13.7,3.7,16.2,7.5c-7.5-3.7-17.5-2.5-26.2,2.5
				c6.2-1.2,12.5,0,15,3.7c-21.2,2.5-24.9,8.7-29.9,23.7c8.7-16.2,78.6-54.9,118.5,52.4c-10-16.2-18.7-24.9-27.4-33.7
				c6.2,8.7,11.2,22.5,10,27.4c-5-11.2-15-26.2-26.2-37.4c6.2,13.7,8.7,21.2,7.5,27.4c-5-12.5-13.7-26.2-28.7-36.2
				c10,12.5,10,20,11.2,24.9c-6.2-12.5-15-21.2-27.4-27.4c6.2,6.2,12.5,13.7,12.5,20c-7.5-7.5-27.4-31.2-48.6-12.5
				c47.4-8.7,49.9,71.1,38.7,91.1c2.5-13.7,2.5-23.7,1.2-32.4c-1.2,7.5-5,17.5-7.5,20c2.5-8.7,5-21.2,5-33.7
				c-3.7,11.2-7.5,16.2-10,18.7c3.7-10,6.2-21.2,2.5-34.9c-1.2,13.7-3.7,16.2-6.2,20c3.7-10,2.5-18.7-1.2-28.7
				c0,7.5,0,13.7-3.7,17.5c0-21.2-2.5-27.4-18.7-29.9l-1.2,5"/>
		</g>
		<g>
			<path class="st2" d="M1280.1,352.8c0,0-4-11.9-6-17.9c-56.6,11.9-62.6,23.8-50.7,74.5c-11.9-8.9-17.9-20.9-20.9-35.8
				c-6,20.9-3,41.7,14.9,59.6c-11.9-6-23.8-11.9-35.8-38.7c0,29.8,14.9,53.6,29.8,71.5c-11.9-3-23.8-14.9-41.7-35.8
				c8.9,26.8,20.9,53.6,35.8,68.5c-11.9-3-29.8-20.9-38.7-38.7c3,20.9,11.9,38.7,23.8,68.5c-47.7-41.7-92.4-220.5,80.5-205.6
				c-62.6-38.7-71.5-26.8-110.3,23.8c-3-14.9,6-32.8,14.9-47.7c-23.8,11.9-38.7,32.8-41.7,62.6c-3-14.9-8.9-29.8,6-62.6
				c-29.8,23.8-38.7,56.6-41.7,83.4c-6-11.9-6-32.8-3-62.6c-17.9,26.8-29.8,59.6-32.8,83.4c-6-11.9-6-41.7,3-62.6
				c-14.9,17.9-26.8,38.7-41.7,77.5c11.9-241.4,238.4-125.2,250.3-107.3c3-44.7-17.9-50.7-71.5-50.7c6-8.9,23.8-11.9,41.7-14.9
				c-23.8-8.9-47.7-8.9-71.5,6c8.9-8.9,14.9-20.9,47.7-26.8c-32.8-6-62.6,6-86.4,17.9c6-11.9,17.9-20.9,44.7-35.8
				c-29.8,3-62.6,11.9-80.5,23.8c3-8.9,26.8-23.8,47.7-29.8c-23.8,0-47.7,3-80.5,11.9c41.7-35.8,190.7-50.7,220.5,44.7
				c-3-14.9-3-29.8,6-53.6c6,20.9,3,44.7,6,56.6c35.8-92.4,169.9-98.3,205.6-71.5c-32.8-6-53.6-6-74.5-3c17.9,3,38.7,14.9,41.7,20.9
				c-17.9-6-44.7-8.9-71.5-8.9c20.9,8.9,32.8,17.9,35.8,26.8c-17.9-8.9-44.7-14.9-74.5-3c26.8,0,32.8,8.9,38.7,17.9
				c-17.9-8.9-41.7-6-62.6,6c14.9-3,29.8,0,35.8,8.9c-50.7,6-59.6,20.9-71.5,56.6c20.9-38.7,187.7-131.1,283.1,125.2
				c-23.8-38.7-44.7-59.6-65.6-80.5c14.9,20.9,26.8,53.6,23.8,65.6c-11.9-26.8-35.8-62.6-62.6-89.4c14.9,32.8,20.9,50.7,17.9,65.6
				c-11.9-29.8-32.8-62.6-68.5-86.4c23.8,29.8,23.8,47.7,26.8,59.6c-14.9-29.8-35.8-50.7-65.6-65.6c14.9,14.9,29.8,32.8,29.8,47.7
				c-17.9-17.9-65.6-74.5-116.2-29.8c113.2-20.9,119.2,169.9,92.4,217.5c6-32.8,6-56.6,3-77.5c-3,17.9-11.9,41.7-17.9,47.7
				c6-20.9,11.9-50.7,11.9-80.5c-8.9,26.8-17.9,38.7-23.8,44.7c8.9-23.8,14.9-50.7,6-83.4c-3,32.8-8.9,38.7-14.9,47.7
				c8.9-23.8,6-44.7-3-68.5c0,17.9,0,32.8-8.9,41.7c0-50.7-6-65.6-44.7-71.5l-3,11.9"/>
		</g>
		<g>
			<path class="st2" d="M558.5,293.9c0,0-5.6-16.7-8.3-25c-79.3,16.7-87.6,33.4-70.9,104.3c-16.7-12.5-25-29.2-29.2-50.1
				c-8.3,29.2-4.2,58.4,20.9,83.4c-16.7-8.3-33.4-16.7-50.1-54.2c0,41.7,20.9,75.1,41.7,100.1c-16.7-4.2-33.4-20.9-58.4-50.1
				c12.5,37.5,29.2,75.1,50.1,95.9c-16.7-4.2-41.7-29.2-54.2-54.2c4.2,29.2,16.7,54.2,33.4,95.9C366.6,481.6,304.1,231.3,546,252.2
				c-87.6-54.2-100.1-37.5-154.3,33.4c-4.2-20.9,8.3-45.9,20.9-66.7c-33.4,16.7-54.2,45.9-58.4,87.6c-4.2-20.9-12.5-41.7,8.3-87.6
				c-41.7,33.4-54.2,79.3-58.4,116.8c-8.3-16.7-8.3-45.9-4.2-87.6c-25,37.5-41.7,83.4-45.9,116.8c-8.3-16.7-8.3-58.4,4.2-87.6
				c-20.9,25-37.5,54.2-58.4,108.5c16.7-337.9,333.7-175.2,350.4-150.2c4.2-62.6-25-70.9-100.1-70.9c8.3-12.5,33.4-16.7,58.4-20.9
				c-33.4-12.5-66.7-12.5-100.1,8.3c12.5-12.5,20.9-29.2,66.7-37.5c-45.9-8.3-87.6,8.3-121,25c8.3-16.7,25-29.2,62.6-50.1
				c-41.7,4.2-87.6,16.7-112.6,33.4c4.2-12.5,37.5-33.4,66.7-41.7c-33.4,0-66.7,4.2-112.6,16.7c58.4-50.1,267-70.9,308.7,62.6
				c-4.2-20.9-4.2-41.7,8.3-75.1c8.3,29.2,4.2,62.6,8.3,79.3C633.6,35.3,821.3,26.9,871.4,64.5c-45.9-8.3-75.1-8.3-104.3-4.2
				c25,4.2,54.2,20.9,58.4,29.2c-25-8.3-62.6-12.5-100.1-12.5c29.2,12.5,45.9,25,50.1,37.5c-25-12.5-62.6-20.9-104.3-4.2
				c37.5,0,45.9,12.5,54.2,25c-25-12.5-58.4-8.3-87.6,8.3c20.9-4.2,41.7,0,50.1,12.5c-70.9,8.3-83.4,29.2-100.1,79.3
				C616.9,181.3,850.5,52,984,410.7c-33.4-54.2-62.6-83.4-91.8-112.6c20.9,29.2,37.5,75.1,33.4,91.8
				c-16.7-37.5-50.1-87.6-87.6-125.1c20.9,45.9,29.2,70.9,25,91.8c-16.7-41.7-45.9-87.6-95.9-121c33.4,41.7,33.4,66.7,37.5,83.4
				c-20.9-41.7-50.1-70.9-91.8-91.8c20.9,20.9,41.7,45.9,41.7,66.7c-25-25-91.8-104.3-162.7-41.7C750.4,223,758.7,490,721.2,556.7
				c8.3-45.9,8.3-79.3,4.2-108.5c-4.2,25-16.7,58.4-25,66.7c8.3-29.2,16.7-70.9,16.7-112.6c-12.5,37.5-25,54.2-33.4,62.6
				c12.5-33.4,20.9-70.9,8.3-116.8c-4.2,45.9-12.5,54.2-20.9,66.7c12.5-33.4,8.3-62.6-4.2-95.9c0,25,0,45.9-12.5,58.4
				c0-70.9-8.3-91.8-62.6-100.1l-4.2,16.7"/>
		</g>
		<g>
			<path class="st3" d="M827.6,615.8c0,0-1.5-4.4-2.2-6.6c-20.9,4.4-23.1,8.8-18.7,27.6c-4.4-3.3-6.6-7.7-7.7-13.2
				c-2.2,7.7-1.1,15.4,5.5,22c-4.4-2.2-8.8-4.4-13.2-14.3c0,11,5.5,19.8,11,26.5c-4.4-1.1-8.8-5.5-15.4-13.2
				c3.3,9.9,7.7,19.8,13.2,25.4c-4.4-1.1-11-7.7-14.3-14.3c1.1,7.7,4.4,14.3,8.8,25.4c-17.6-15.4-34.2-81.6,29.8-76.1
				c-23.1-14.3-26.5-9.9-40.8,8.8c-1.1-5.5,2.2-12.1,5.5-17.6c-8.8,4.4-14.3,12.1-15.4,23.1c-1.1-5.5-3.3-11,2.2-23.1
				c-11,8.8-14.3,20.9-15.4,30.9c-2.2-4.4-2.2-12.1-1.1-23.1c-6.6,9.9-11,22-12.1,30.9c-2.2-4.4-2.2-15.4,1.1-23.1
				c-5.5,6.6-9.9,14.3-15.4,28.7c4.4-89.3,88.2-46.3,92.6-39.7c1.1-16.5-6.6-18.7-26.5-18.7c2.2-3.3,8.8-4.4,15.4-5.5
				c-8.8-3.3-17.6-3.3-26.5,2.2c3.3-3.3,5.5-7.7,17.6-9.9c-12.1-2.2-23.1,2.2-32,6.6c2.2-4.4,6.6-7.7,16.5-13.2
				c-11,1.1-23.1,4.4-29.8,8.8c1.1-3.3,9.9-8.8,17.6-11c-8.8,0-17.6,1.1-29.8,4.4c15.4-13.2,70.5-18.7,81.6,16.5
				c-1.1-5.5-1.1-11,2.2-19.8c2.2,7.7,1.1,16.5,2.2,20.9c13.2-34.2,62.8-36.4,76.1-26.5c-12.1-2.2-19.8-2.2-27.6-1.1
				c6.6,1.1,14.3,5.5,15.4,7.7c-6.6-2.2-16.5-3.3-26.5-3.3c7.7,3.3,12.1,6.6,13.2,9.9c-6.6-3.3-16.5-5.5-27.6-1.1
				c9.9,0,12.1,3.3,14.3,6.6c-6.6-3.3-15.4-2.2-23.1,2.2c5.5-1.1,11,0,13.2,3.3c-18.7,2.2-22,7.7-26.5,20.9
				c7.7-14.3,69.4-48.5,104.7,46.3c-8.8-14.3-16.5-22-24.2-29.8c5.5,7.7,9.9,19.8,8.8,24.2c-4.4-9.9-13.2-23.1-23.1-33.1
				c5.5,12.1,7.7,18.7,6.6,24.2c-4.4-11-12.1-23.1-25.4-32c8.8,11,8.8,17.6,9.9,22c-5.5-11-13.2-18.7-24.2-24.2
				c5.5,5.5,11,12.1,11,17.6c-6.6-6.6-24.2-27.6-43-11c41.9-7.7,44.1,62.8,34.2,80.5c2.2-12.1,2.2-20.9,1.1-28.7
				c-1.1,6.6-4.4,15.4-6.6,17.6c2.2-7.7,4.4-18.7,4.4-29.8c-3.3,9.9-6.6,14.3-8.8,16.5c3.3-8.8,5.5-18.7,2.2-30.9
				c-1.1,12.1-3.3,14.3-5.5,17.6c3.3-8.8,2.2-16.5-1.1-25.4c0,6.6,0,12.1-3.3,15.4c0-18.7-2.2-24.2-16.5-26.5l-1.1,4.4"/>
		</g>
		<g>
			<path class="st3" d="M551.3,294.6c0,0-5.3-15.8-7.9-23.7c-75,15.8-82.9,31.6-67.1,98.7c-15.8-11.8-23.7-27.6-27.6-47.4
				c-7.9,27.6-3.9,55.3,19.7,79c-15.8-7.9-31.6-15.8-47.4-51.3c0,39.5,19.7,71.1,39.5,94.8c-15.8-3.9-31.6-19.7-55.3-47.4
				c11.8,35.5,27.6,71.1,47.4,90.8c-15.8-3.9-39.5-27.6-51.3-51.3c3.9,27.6,15.8,51.3,31.6,90.8c-63.2-55.3-122.4-292.1,106.6-272.4
				c-82.9-51.3-94.8-35.5-146.1,31.6c-3.9-19.7,7.9-43.4,19.7-63.2c-31.6,15.8-51.3,43.4-55.3,82.9c-3.9-19.7-11.8-39.5,7.9-82.9
				c-39.5,31.6-51.3,75-55.3,110.5c-7.9-15.8-7.9-43.4-3.9-82.9c-23.7,35.5-39.5,79-43.4,110.5c-7.9-15.8-7.9-55.3,3.9-82.9
				c-19.7,23.7-35.5,51.3-55.3,102.6c15.8-319.8,315.8-165.8,331.6-142.1c3.9-59.2-23.7-67.1-94.8-67.1
				c7.9-11.8,31.6-15.8,55.3-19.7c-31.6-11.8-63.2-11.8-94.8,7.9c11.8-11.8,19.7-27.6,63.2-35.5c-43.4-7.9-82.9,7.9-114.5,23.7
				c7.9-15.8,23.7-27.6,59.2-47.4c-39.5,3.9-82.9,15.8-106.6,31.6c3.9-11.8,35.5-31.6,63.2-39.5c-31.6,0-63.2,3.9-106.6,15.8
				C322.2,61.7,519.6,42,559,168.3c-3.9-19.7-3.9-39.5,7.9-71.1c7.9,27.6,3.9,59.2,7.9,75C622.4,49.8,800,41.9,847.4,77.4
				c-43.4-7.9-71.1-7.9-98.7-3.9c23.7,3.9,51.3,19.7,55.3,27.6c-23.7-7.9-59.2-11.8-94.8-11.8c27.6,11.8,43.4,23.7,47.4,35.5
				c-23.7-11.8-59.2-19.7-98.7-3.9c35.5,0,43.4,11.8,51.3,23.7c-23.7-11.8-55.3-7.9-82.9,7.9c19.7-3.9,39.5,0,47.4,11.8
				c-67.1,7.9-79,27.6-94.8,75C606.6,188,827.7,65.6,954,405.1c-31.6-51.3-59.2-79-86.9-106.6c19.7,27.6,35.5,71.1,31.6,86.9
				c-15.8-35.5-47.4-82.9-82.9-118.4c19.7,43.4,27.6,67.1,23.7,86.9c-15.8-39.5-43.4-82.9-90.8-114.5c31.6,39.5,31.6,63.2,35.5,79
				c-19.7-39.5-47.4-67.1-86.9-86.9c19.7,19.7,39.5,43.4,39.5,63.2c-23.7-23.7-86.9-98.7-154-39.5c150-27.6,157.9,225,122.4,288.2
				c7.9-43.4,7.9-75,3.9-102.6c-3.9,23.7-15.8,55.3-23.7,63.2c7.9-27.6,15.8-67.1,15.8-106.6c-11.8,35.5-23.7,51.3-31.6,59.2
				c11.8-31.6,19.7-67.1,7.9-110.5c-3.9,43.4-11.8,51.3-19.7,63.2c11.8-31.6,7.9-59.2-3.9-90.8c0,23.7,0,43.4-11.8,55.3
				c0-67.1-7.9-86.9-59.2-94.8l-3.9,15.8"/>
		</g>
		<g>
			<path class="st3" d="M1278.2,352.6c0,0-4.2-12.6-6.3-18.9c-59.8,12.6-66,25.2-53.5,78.6c-12.6-9.4-18.9-22-22-37.7
				c-6.3,22-3.1,44,15.7,62.9c-12.6-6.3-25.2-12.6-37.7-40.9c0,31.4,15.7,56.6,31.4,75.5c-12.6-3.1-25.2-15.7-44-37.7
				c9.4,28.3,22,56.6,37.7,72.3c-12.6-3.1-31.4-22-40.9-40.9c3.1,22,12.6,40.9,25.2,72.3c-50.3-44-97.5-232.7,84.9-217
				c-66-40.9-75.5-28.3-116.4,25.2c-3.1-15.7,6.3-34.6,15.7-50.3c-25.2,12.6-40.9,34.6-44,66c-3.1-15.7-9.4-31.4,6.3-66
				c-31.4,25.2-40.9,59.8-44,88.1c-6.3-12.6-6.3-34.6-3.1-66c-18.9,28.3-31.4,62.9-34.6,88.1c-6.3-12.6-6.3-44,3.1-66
				c-15.7,18.9-28.3,40.9-44,81.8c12.6-254.7,251.6-132.1,264.2-113.2c3.1-47.2-18.9-53.5-75.5-53.5c6.3-9.4,25.2-12.6,44-15.7
				c-25.2-9.4-50.3-9.4-75.5,6.3c9.4-9.4,15.7-22,50.3-28.3c-34.6-6.3-66,6.3-91.2,18.9c6.3-12.6,18.9-22,47.2-37.7
				c-31.4,3.1-66,12.6-84.9,25.2c3.1-9.4,28.3-25.2,50.3-31.4c-25.2,0-50.3,3.1-84.9,12.6c44-37.7,201.3-53.5,232.7,47.2
				c-3.1-15.7-3.1-31.4,6.3-56.6c6.3,22,3.1,47.2,6.3,59.8c37.7-97.5,179.3-103.8,217-75.5c-34.6-6.3-56.6-6.3-78.6-3.1
				c18.9,3.1,40.9,15.7,44,22c-18.9-6.3-47.2-9.4-75.5-9.4c22,9.4,34.6,18.9,37.7,28.3c-18.9-9.4-47.2-15.7-78.6-3.1
				c28.3,0,34.6,9.4,40.9,18.9c-18.9-9.4-44-6.3-66,6.3c15.7-3.1,31.4,0,37.7,9.4c-53.5,6.3-62.9,22-75.5,59.8
				c22-40.9,198.1-138.4,298.8,132.1c-25.2-40.9-47.2-62.9-69.2-84.9c15.7,22,28.3,56.6,25.2,69.2c-12.6-28.3-37.7-66-66-94.3
				c15.7,34.6,22,53.5,18.9,69.2c-12.6-31.4-34.6-66-72.3-91.2c25.2,31.4,25.2,50.3,28.3,62.9c-15.7-31.4-37.7-53.5-69.2-69.2
				c15.7,15.7,31.4,34.6,31.4,50.3c-18.9-18.9-69.2-78.6-122.6-31.4c119.5-22,125.8,179.3,97.5,229.6c6.3-34.6,6.3-59.8,3.1-81.8
				c-3.1,18.9-12.6,44-18.9,50.3c6.3-22,12.6-53.5,12.6-84.9c-9.4,28.3-18.9,40.9-25.2,47.2c9.4-25.2,15.7-53.5,6.3-88.1
				c-3.1,34.6-9.4,40.9-15.7,50.3c9.4-25.2,6.3-47.2-3.1-72.3c0,18.9,0,34.6-9.4,44c0-53.5-6.3-69.2-47.2-75.5l-3.1,12.6"/>
		</g>
	</g>
</g>
<g id="Coconut">
	<g id="Ball">
		<ellipse class="st4" cx="977.6" cy="638.5" rx="20.4" ry="19"/>
		<path class="st5" d="M995.3,630.1l-1.9,0.9c-0.1,0-0.1,0-0.2,0c-0.1,0-0.3-0.1-0.3-0.2c-0.1-0.2,0-0.4,0.2-0.5l1.9-0.9
			c-0.1-0.1-0.2-0.3-0.2-0.4l-1.9,0.9c-0.1,0-0.1,0-0.2,0c-0.1,0-0.3-0.1-0.3-0.2c-0.1-0.2,0-0.4,0.2-0.5l1.8-0.9
			c-0.1-0.2-0.2-0.3-0.3-0.5l-1.9,0.9c-0.1,0-0.1,0-0.2,0c-0.1,0-0.3-0.1-0.3-0.2c-0.1-0.2,0-0.4,0.2-0.5l1.8-0.9
			c-3.5-4.2-9.1-6.8-15.9-6.8c-6.2,0-11.5,2.2-15,5.8c0.9,0.6,2.6,1.4,5.1,1.3c0.2,0,0.4,0.2,0.4,0.4s-0.2,0.4-0.4,0.4
			c-0.1,0-0.2,0-0.4,0c-2.7,0-4.4-0.9-5.3-1.5c-2.6,2.9-4,6.6-4,10.8c0,6.5,3.5,12.2,8.7,15.5c-2.5-2.7-3.9-5.4-4-5.5
			c-0.1-0.2,0-0.4,0.2-0.5s0.4,0,0.5,0.2c0,0,2.3,4.1,5.8,7.2c2.6,1.2,5.4,1.8,8.4,1.8c10.8,0,19.6-8.4,19.6-18.7
			C997.1,634.9,996.4,632.3,995.3,630.1z M971.5,623.6c-1.2,1-4,1.2-4.1,1.2l0,0c-0.2,0-0.4-0.2-0.4-0.3c0-0.2,0.2-0.4,0.4-0.4
			c0.7,0,2.8-0.3,3.7-1c0.2-0.1,0.4-0.1,0.5,0C971.7,623.2,971.7,623.5,971.5,623.6z M982,623.5l-0.8,1.7c-0.1,0.1-0.2,0.2-0.4,0.2
			c-0.1,0-0.1,0-0.2,0c-0.2-0.1-0.3-0.3-0.2-0.5l0.8-1.7c0.1-0.2,0.3-0.3,0.5-0.2C982,623.1,982.1,623.3,982,623.5z M987.1,652.6
			c-0.7,0.5-1.5,0.9-2.3,1.3c-0.1,0-0.2,0.1-0.3,0.1c-0.2,0-0.4-0.1-0.5-0.3c-0.1-0.3,0-0.6,0.2-0.7c0.7-0.4,1.5-0.8,2.1-1.2
			c0.3-0.2,0.6-0.1,0.8,0.1C987.4,652.1,987.3,652.4,987.1,652.6z M988.9,651.2c-0.1,0.1-0.2,0.1-0.4,0.1s-0.3-0.1-0.4-0.2
			c-0.2-0.2-0.2-0.6,0-0.8c4.3-3.7,5.6-8.1,5.6-8.2c0.1-0.3,0.4-0.5,0.7-0.4s0.5,0.4,0.4,0.7C994.8,642.7,993.5,647.3,988.9,651.2z"
			/>
		<path d="M956,637.7c0,11.3,9.6,20.5,21.5,20.5S999,649,999,637.7c0-5.4-2.3-10.3-6.3-13.8c-3.9-3.4-9.3-5.2-15.2-5.2"/>
		<path d="M977.5,618.7c-5.8,0-11.2,1.8-15.2,5.2c-4.1,3.5-6.3,8.4-6.3,13.8"/>
		<path class="st6" d="M969.4,622.3c2.7-1.2,5.6-1.8,8.4-1.8c4.6,1.3,8.4,4.1,8.4,4.1c0.2,0.1,0.4,0.1,0.5-0.1
			c0.1-0.2,0.1-0.4-0.1-0.5c-0.1-0.1-2.7-1.9-6.1-3.4c6.2,0.9,11.9,4.6,14.9,10.4c1.9,3.8,2.2,7.8,1.2,11.4c-1.1-0.2-3-0.2-5.4,0.9
			c-0.1,0-0.2,0.1-0.3,0.1c-0.2,0.1-0.3,0.3-0.2,0.5s0.3,0.3,0.5,0.2c2.3-1.1,4.2-1.1,5.2-0.9c-1.5,4.7-5.3,8.8-10.9,11.4
			c-6.1,2.8-12.4,2.8-17.5,0.4l1.2-1.5c0.1-0.2,0.1-0.4-0.1-0.5c-0.1-0.1-0.3-0.1-0.4,0c-0.1,0-0.1,0.1-0.1,0.1l-1.3,1.6
			c-0.2-0.1-0.3-0.2-0.5-0.3l1.3-1.6c0.1-0.2,0.1-0.4-0.1-0.5c-0.1-0.1-0.3-0.1-0.4,0c-0.1,0-0.1,0.1-0.1,0.1l-1.3,1.6
			c-0.1-0.1-0.3-0.2-0.4-0.3l1.3-1.6c0.1-0.2,0.1-0.4-0.1-0.5c-0.1-0.1-0.3-0.1-0.4,0c-0.1,0-0.1,0.1-0.1,0.1l-1.3,1.6
			c-2.1-1.6-3.8-3.6-5.1-6.1C955.5,637.9,959.7,626.7,969.4,622.3z"/>
		<path d="M986.4,651.7c-0.7,0.5-1.4,0.9-2.1,1.2c-0.3,0.1-0.4,0.5-0.2,0.7c0.1,0.2,0.3,0.3,0.5,0.3c0.1,0,0.2,0,0.3-0.1
			c0.8-0.4,1.5-0.8,2.3-1.3c0.3-0.2,0.3-0.5,0.1-0.8C987,651.6,986.7,651.5,986.4,651.7z"/>
		<path d="M994.4,641.8c-0.3-0.1-0.6,0.1-0.7,0.4c0,0-1.3,4.5-5.6,8.2c-0.2,0.2-0.3,0.6,0,0.8c0.1,0.1,0.3,0.2,0.4,0.2
			c0.1,0,0.3,0,0.4-0.1c4.6-3.9,5.9-8.5,5.9-8.7C994.9,642.2,994.7,641.9,994.4,641.8z"/>
		<path d="M981.8,623c-0.2-0.1-0.4,0-0.5,0.2l-0.8,1.7c-0.1,0.2,0,0.4,0.2,0.5c0.1,0,0.1,0,0.2,0c0.1,0,0.3-0.1,0.4-0.2l0.8-1.7
			C982.1,623.3,982,623.1,981.8,623z"/>
		<path d="M971,623.1c-0.8,0.7-2.9,1-3.7,1c-0.2,0-0.4,0.2-0.4,0.4s0.2,0.3,0.4,0.3l0,0c0.1,0,2.9-0.2,4.1-1.2
			c0.2-0.1,0.2-0.4,0-0.5C971.4,622.9,971.2,622.9,971,623.1z"/>
	</g>
</g>
<g id="bane">
	<rect id="Orange_x5F_reg" x="361" y="310" class="st7" width="1228" height="666"/>
</g>
<g id="right_paddle">
	<g>
		<polygon id="straw" class="st8" points="1568.6,619.2 1561.2,620.4 1550.9,556.6 1558.3,555.3 		"/>
		<path id="the_drink" class="st9" d="M1607.6,698.8l-21,5.7c-0.5,0-18.8-2.9-19.3-3.2c-7.7-5.4-20.9-20.4-20.5-18.2l3-29.7
			c3.2-1.6,3.3-15.2,3.5-15.9c2.6-7.1-2.9-16.7,1.6-16.7l55.9-0.4c1.4,0,2.5,1.3,2.3,2.7c-1.6,9.3,1.7,33.6,6.4,37.3
			c0.6,0.5,1,1.2,1,2l-1.5,24.1c0,4.1-8.1,10.3-10.2,11.9C1608.5,698.6,1608.1,698.8,1607.6,698.8z"/>
		<path id="coctailberry" class="st10" d="M1634.5,565.8h-3.7c-4.8,0-8.8-4-8.8-8.8v-0.4c0-4.8,4-8.8,8.8-8.8h3.7
			c4.8,0,8.8,4,8.8,8.8v0.4C1643.3,561.9,1639.3,565.8,1634.5,565.8z"/>
		<polygon id="pineapple" class="st11" points="1598.8,577.6 1605.5,561.3 1645.1,568 1626.3,601.8 		"/>
		<g id="outline">
			<g id="fyld" class="st12">
				<path class="st13" d="M1592,705.6c-13.5,0-39.5-8.3-36.3-41c0.7-6.8,3.6-14.6,7.2-23.6c3.4-8.5-1-18.1-2.9-24.9l24.8-0.4
					l31.6-0.6c-2,7-5,16.2-1.4,25.1c21.1,52.1-7,65.4-23.2,65.4"/>
				<g class="st13">
					<path d="M1583.5,715C1583.4,715,1583.4,715,1583.5,715c-0.1,0-0.1,0-0.2,0H1583.5z"/>
					<path d="M1553.3,619.4L1553.3,619.4c0.9,3.5,1.5,7.5,1.6,11.7C1555,627,1554.3,622.9,1553.3,619.4z"/>
					<path d="M1583.4,704.9L1583.4,704.9L1583.4,704.9C1583.3,704.9,1583.4,704.9,1583.4,704.9c-12.3,0-35.5-7.3-37.1-32.2
						c-1.8,33,23.9,42.3,37.1,42.3s39-9.3,37.2-42.3C1618.9,697.7,1595.7,704.9,1583.4,704.9z"/>
				</g>
				<polyline class="st13" points="1564.9,618.8 1555.5,555.9 1563.2,554.7 1573.3,618.4 				"/>
				<polygon class="st13" points="1611.9,562.2 1605.2,575.9 1632.5,603.7 1654,567.8 				"/>
				<path class="st13" d="M1648.7,556.6c0,0,1.3-10.2-11.6-8.8s-10.4,9.4-10.4,9.4s0.8,8.8,10.9,8.8
					C1647.8,566,1648.7,556.6,1648.7,556.6z"/>
			</g>
			<g id="linjer">
				<g>
					<path class="st5" d="M1558.9,617.6l-1.4-9.5h-5.9c1,2.2,2.4,5.5,3.5,9.5H1558.9z"/>
					<path class="st5" d="M1583.5,707.1L1583.5,707.1C1583.5,707.1,1583.4,707.1,1583.5,707.1
						C1583.4,707.1,1583.4,707.1,1583.5,707.1L1583.5,707.1c-9.1,0-23.2-4.4-31.8-14.3c1.4,3.1,3.2,6,5.5,8.5
						c7.7,8.5,19,11.5,26.3,11.6c7,0,20.8-3.2,28.9-14.9c1.1-1.6,2-3.3,2.8-5C1606.5,702.7,1592.5,707,1583.5,707.1z"/>
					<polygon class="st5" points="1557.8,557.2 1554.3,557.7 1561.2,603.7 1565.2,603.7 					"/>
					<polygon class="st5" points="1602.1,617.6 1606.6,608.1 1583.5,608.1 1583.3,608.1 1570.2,608.1 1571.7,617.6 					"/>
					<polygon class="st5" points="1565.9,608.1 1561.9,608.1 1563.3,617.6 1567.4,617.6 					"/>
					<path class="st5" d="M1610.1,759.9c-7.1-4.7-18.6-7.7-26.8-7.7c-8.2,0-19.5,3-26.5,7.7H1610.1z"/>
					<path class="st5" d="M1642.3,556.4c0-0.1,0.3-2.7-1.3-4.6c-1.2-1.3-3.1-2-5.8-2c-0.7,0-1.4,0-2.1,0.1c-4,0.5-6.8,1.6-8,3.4
						c-1,1.5-0.6,3.1-0.6,3.2c0,0.1,0.1,0.3,0.1,0.4c0.1,0.6,0.7,4.9,5.4,6.4l3.5,0.5C1641.5,563.8,1642.3,556.7,1642.3,556.4z"/>
					<path class="st5" d="M1629.2,567.6l-23.2-3l-5.3,10.9l24.2,24.7l18.4-30.8l-10.1-1.3C1631.7,568.1,1630.4,567.9,1629.2,567.6z"
						/>
					<path class="st5" d="M1611.3,617.6c0.1,0,0.3,0,0.4,0c1.1-4,2.5-7.3,3.5-9.6h-3.8l-4.5,9.5L1611.3,617.6L1611.3,617.6z"/>
					<path class="st5" d="M1610.7,621.9h-54.6c1.4,7.1,1.7,15.7-1.5,24.1c-3.4,8.9-5.4,17.2-6.1,24.6c-0.1,0.7-0.1,1.4-0.1,2
						c0,0.1,0,0.1,0,0.2c0,22.8,25.6,29.9,35,29.9s35-7.1,35-29.9v-0.1c-0.5-7.9-2.6-16.9-6.3-26.7
						C1609,637.6,1609.3,629,1610.7,621.9z M1605.3,660.3c-1-4.5-2.5-9.3-4.4-14.3c-0.4-1.1,0.1-2.4,1.2-2.8
						c1.1-0.4,2.4,0.1,2.8,1.3c1.9,5.1,3.5,10.1,4.6,14.8c0.3,1.2-0.5,2.3-1.6,2.6c-0.2,0-0.3,0.1-0.5,0.1
						C1606.4,661.9,1605.5,661.3,1605.3,660.3z M1611.4,679.8c-0.1,1.1-1,2-2.1,2c-0.1,0-0.1,0-0.2,0c-1.2-0.1-2.1-1.1-2-2.3
						c0.2-3.2,0.1-6.7-0.3-10.3c-0.1-1.2,0.7-2.3,1.9-2.4c1.2-0.1,2.2,0.7,2.4,1.9C1611.6,672.6,1611.6,676.4,1611.4,679.8z"/>
					<path d="M1607.9,661.9c1.2-0.3,1.9-1.4,1.6-2.6c-1.1-4.7-2.6-9.7-4.6-14.8c-0.4-1.1-1.7-1.7-2.8-1.3c-1.1,0.4-1.7,1.7-1.2,2.8
						c1.9,5,3.4,9.8,4.4,14.3c0.2,1,1.1,1.7,2.1,1.7C1607.5,661.9,1607.7,661.9,1607.9,661.9z"/>
					<path d="M1608.7,666.9c-1.2,0.1-2,1.2-1.9,2.4c0.4,3.6,0.5,7.1,0.3,10.3c-0.1,1.2,0.8,2.2,2,2.3c0.1,0,0.1,0,0.2,0
						c1.1,0,2.1-0.9,2.1-2c0.2-3.5,0.2-7.2-0.3-11.1C1611,667.6,1609.9,666.7,1608.7,666.9z"/>
					<path d="M1648.8,566.8c-0.3-0.7-0.9-1.1-1.7-1.2l-4.7-0.6c2.8-2.5,4-5.9,4.2-8.1c0-0.2,0.6-4.6-2.4-7.9
						c-0.9-1.1-2.1-1.9-3.5-2.5l1.2-2.5c0.5-1.1,0.1-2.4-1-2.9s-2.4-0.1-2.9,1l-1.6,3.4c-1.2-0.1-2.5,0-3.8,0.1
						c-5.5,0.6-9.3,2.4-11.2,5.4c-1.8,2.8-1.3,5.6-1.1,6.5c0.2,1.3,0.7,3.1,1.7,4.7l-17-2.2c-0.9-0.1-1.8,0.4-2.2,1.2l-6.7,13.7
						c-0.4,0.8-0.2,1.8,0.4,2.5l16.6,17l-4.5,9.3h-25.2h-0.2h-13.8l-7.8-49.4c-0.2-1.2-1.3-2-2.5-1.8l-7.7,1.2
						c-1.2,0.2-2,1.3-1.8,2.5l7.1,47.5h-8.8c-0.8,0-1.5,0.4-1.9,1.1s-0.4,1.5,0,2.2c0.1,0.2,11.1,19.7,4.4,37.5
						c-3.5,9.3-5.6,17.9-6.4,25.7c-1.3,14.1,2,25.6,9.7,34c7.9,8.7,19.1,12.3,27.2,12.9V748c-10.9,0.6-25.5,5.3-31.8,12.7
						c0,0,0,0.1-0.1,0.1c0,0.1-0.1,0.1-0.1,0.2c0,0.1-0.1,0.1-0.1,0.2c0,0.1-0.1,0.1-0.1,0.2c0,0.1,0,0.1-0.1,0.2c0,0.1,0,0.1,0,0.2
						c0,0.1,0,0.2,0,0.2v0.1v0.1c0,0.1,0,0.1,0,0.2c0,0.1,0,0.1,0,0.2c0,0.1,0,0.1,0.1,0.2c0,0.1,0,0.1,0.1,0.2
						c0,0.1,0.1,0.1,0.1,0.2c0,0.1,0.1,0.1,0.1,0.2c0,0.1,0.1,0.1,0.1,0.2c0.1,0.1,0.1,0.1,0.2,0.2c0,0,0,0,0.1,0.1
						c0,0,0.1,0,0.1,0.1c0.1,0,0.1,0.1,0.2,0.1s0.1,0.1,0.2,0.1s0.1,0.1,0.2,0.1s0.2,0.1,0.2,0.1h0.1c0.1,0,0.3,0,0.4,0l0,0h64.9
						c0.1,0,0.1,0,0.2,0s0.1,0,0.1,0c0.1,0,0.2,0,0.3-0.1h0.1c0.1,0,0.2-0.1,0.3-0.1c0,0,0.1,0,0.1-0.1c0.1,0,0.2-0.1,0.2-0.2
						c0,0,0,0,0.1,0l0,0c0.1-0.1,0.1-0.1,0.2-0.2l0.1-0.1c0-0.1,0.1-0.1,0.1-0.2c0-0.1,0.1-0.1,0.1-0.2c0-0.1,0.1-0.1,0.1-0.2
						c0-0.1,0-0.1,0.1-0.2c0-0.1,0-0.1,0-0.2c0-0.1,0-0.1,0-0.2v-0.1v-0.1c0-0.1,0-0.2,0-0.2c0-0.1,0-0.1,0-0.2c0-0.1,0-0.2-0.1-0.2
						c0-0.1,0-0.1-0.1-0.2c0-0.1-0.1-0.1-0.1-0.2c0-0.1-0.1-0.1-0.1-0.2l-0.1-0.1c-6.3-7.4-21-12.1-32.1-12.7v-30.8
						c9.6-0.6,22.5-5.2,30.4-16.7c9.2-13.4,9.3-32.2,0.3-56c-6.7-17.7,4.3-37.3,4.4-37.5c0.4-0.7,0.4-1.5,0-2.2s-1.1-1.1-1.9-1.1
						h-5.2l2.9-6.1l7.4,7.6c0.4,0.4,1,0.6,1.5,0.6c0.1,0,0.2,0,0.3,0c0.7-0.1,1.2-0.5,1.6-1l21.5-36
						C1649,568.2,1649.1,567.5,1648.8,566.8z M1583.3,608.1h0.2h23.2l-4.5,9.5h-30.4l-1.5-9.5H1583.3z M1563.3,617.6l-1.4-9.5h4
						l1.5,9.5H1563.3z M1554.3,557.7l3.5-0.5l7.4,46.6h-4L1554.3,557.7z M1557.5,608.1l1.4,9.5h-3.9c-1.1-4-2.4-7.3-3.5-9.5H1557.5z
						 M1583.3,752.2c8.2,0,19.7,3,26.8,7.7h-53.3C1563.8,755.2,1575.1,752.2,1583.3,752.2z M1583.4,712.9c-7.3,0-18.5-3-26.3-11.6
						c-2.3-2.5-4.1-5.4-5.5-8.5c8.6,9.9,22.7,14.2,31.7,14.3l0,0c0,0,0,0,0.1,0s0,0,0.1,0l0,0c9,0,23-4.4,31.6-14.1
						c-0.8,1.8-1.7,3.4-2.8,5C1604.3,709.7,1590.4,712.9,1583.4,712.9z M1618.4,672.7C1618.4,672.8,1618.4,672.8,1618.4,672.7
						c0,22.9-25.6,30-35,30s-35-7.1-35-29.9c0-0.1,0-0.1,0-0.2c0-0.7,0.1-1.3,0.1-2c0.7-7.4,2.7-15.7,6.1-24.6
						c3.2-8.4,2.9-17,1.5-24.1h54.6c-1.4,7.1-1.7,15.7,1.5,24.1C1615.9,655.9,1618,664.8,1618.4,672.7z M1615.2,608.1
						c-1,2.3-2.4,5.6-3.5,9.6c-0.1,0-0.3,0-0.4,0h-4.4l4.5-9.5L1615.2,608.1L1615.2,608.1z M1624.6,557c0-0.1,0-0.3-0.1-0.4
						c0-0.1-0.5-1.7,0.6-3.2c1.2-1.8,4-3,8-3.4c0.8-0.1,1.5-0.1,2.1-0.1c2.7,0,4.6,0.7,5.8,2c1.6,1.8,1.3,4.5,1.3,4.6
						c0,0.3-0.8,7.4-8.8,7.4l-3.5-0.5C1625.3,561.9,1624.6,557.6,1624.6,557z M1624.9,600.2l-24.2-24.7l5.3-10.9l23.2,3
						c1.2,0.3,2.5,0.5,3.9,0.5l10.1,1.3L1624.9,600.2z"/>
				</g>
			</g>
		</g>
	</g>
</g>
<g id="left_paddle">
	<g>
		
			<rect id="straw_1_" x="353.6" y="573.4" transform="matrix(0.1604 -0.9871 0.9871 0.1604 -245.3767 866.0178)" class="st14" width="65.6" height="7.6"/>
		<path id="the_drink_1_" class="st9" d="M337.7,689.7l21.4,5.8c0.5,0,19.2-3,19.6-3.3c7.9-5.4,21.3-20.7,20.8-18.4l-3-30.1
			c-3.3-1.6-3.3-15.4-3.6-16.1c-2.6-7.2,3-16.9-1.6-16.9l-56.9-0.4c-1.5,0-2.6,1.3-2.3,2.7c1.6,9.5-1.8,34.1-6.5,37.8
			c-0.6,0.5-1,1.2-1,2l1.5,24.4c0,4.2,8.2,10.4,10.4,12C336.8,689.5,337.2,689.7,337.7,689.7z"/>
		<path id="coctailberry_1_" class="st10" d="M310.5,554.9h3.4c5,0,9.1-4.1,9.1-9.1l0,0c0-5-4.1-9.1-9.1-9.1h-3.4
			c-5,0-9.1,4.1-9.1,9.1l0,0C301.4,550.8,305.5,554.9,310.5,554.9z"/>
		<polygon id="pineapple_1_" class="st11" points="346.6,566.9 339.8,550.3 299.5,557.2 318.7,591.4 		"/>
		<g>
			<g id="fyld_1_" class="st12">
				<path class="st13" d="M353.7,696.6c-16.6,0-45.1-13.4-23.6-66.3c3.6-9,0.6-18.3-1.4-25.4l32.2,0.6l25.2,0.4
					c-1.9,7-6.4,16.7-2.9,25.3c3.7,9.1,6.7,17,7.3,23.9C393.7,688.3,367.3,696.7,353.7,696.6"/>
				<g class="st13">
					<path d="M362.4,706.2C362.4,706.2,362.3,706.2,362.4,706.2c-0.1,0-0.1,0-0.2,0H362.4z"/>
					<path d="M391.2,621.2c0.1-4.3,0.8-8.3,1.7-11.9l0,0C391.9,612.8,391.2,616.9,391.2,621.2z"/>
					<path d="M324.5,663.3c-1.8,33.4,24.3,42.9,37.8,42.9c13.4,0,39.6-9.5,37.8-42.9c-1.6,25.2-25.2,32.6-37.8,32.6h0.1h-0.2h0.1
						C349.8,695.9,326.2,688.5,324.5,663.3z"/>
				</g>
				<polyline class="st13" points="372.6,608.2 382.8,543.7 390.7,544.9 381.1,608.6 				"/>
				<polygon class="st13" points="290.5,556.9 312.4,593.4 340.1,565.2 333.3,551.3 				"/>
				<path class="st13" d="M307.1,555.1c10.3,0,11.1-8.9,11.1-8.9s2.6-8-10.6-9.5s-11.8,8.9-11.8,8.9S296.8,555.1,307.1,555.1z"/>
			</g>
			<g id="linjer_1_">
				<g>
					<path class="st5" d="M391.1,607.4c1.1-4,2.5-7.4,3.5-9.6h-6l-1.4,9.6H391.1z"/>
					<path class="st5" d="M330,683.8c0.8,1.8,1.8,3.5,2.9,5.1c8.2,11.9,22.3,15.1,29.4,15.1c7.4,0,18.9-3.1,26.7-11.7
						c2.3-2.6,4.2-5.4,5.6-8.6c-8.7,10-23.1,14.4-32.3,14.5l0,0c0,0,0,0-0.1,0c0,0,0,0-0.1,0l0,0C353,698.1,338.8,693.7,330,683.8z"
						/>
					<polygon class="st5" points="380.8,593.4 384.9,593.4 391.9,546.7 388.3,546.2 					"/>
					<polygon class="st5" points="374.2,607.4 375.7,597.7 362.4,597.7 362.2,597.7 338.7,597.7 343.3,607.4 					"/>
					<polygon class="st5" points="378.6,607.4 382.7,607.4 384.2,597.7 380.1,597.7 					"/>
					<path class="st5" d="M389.3,751.6c-7.1-4.8-18.6-7.8-27-7.8c-8.3,0-20,3.1-27.2,7.8H389.3z"/>
					<path class="st5" d="M311.4,552.9l3.5-0.5c4.8-1.5,5.5-5.9,5.5-6.5c0-0.1,0-0.3,0.1-0.4c0-0.1,0.5-1.7-0.6-3.2
						c-1.2-1.8-4-3-8.1-3.5c-0.8-0.1-1.5-0.1-2.2-0.1c-2.7,0-4.7,0.7-5.8,2c-1.6,1.8-1.4,4.6-1.4,4.6
						C302.4,545.7,303.3,552.8,311.4,552.9z"/>
					<path class="st5" d="M311.7,557.3l-10.3,1.3l18.7,31.2l24.6-25.1l-5.4-11.1l-23.6,3.1C314.5,557.1,313.2,557.3,311.7,557.3z"/>
					<path class="st5" d="M338.4,607.4l-4.6-9.6H330c1.1,2.3,2.4,5.6,3.5,9.7c0.1,0,0.3,0,0.4,0h4.5V607.4z"/>
					<path class="st5" d="M333.1,636.2c-3.8,10-5.9,19.1-6.4,27.1v0.1c0,23.1,26,30.3,35.6,30.3s35.6-7.2,35.6-30.3
						c0-0.1,0-0.1,0-0.2c0-0.7-0.1-1.4-0.1-2c-0.7-7.5-2.8-15.9-6.2-24.9c-3.2-8.5-2.9-17.2-1.5-24.4h-55.5
						C336,619,336.3,627.7,333.1,636.2z M337.9,652.3c-0.2,0-0.3,0-0.5-0.1c-1.2-0.3-1.9-1.4-1.6-2.6c1.1-4.8,2.7-9.8,4.6-15
						c0.4-1.1,1.7-1.7,2.8-1.3c1.1,0.4,1.7,1.7,1.3,2.8c-1.9,5-3.4,9.9-4.5,14.4C339.8,651.6,338.9,652.3,337.9,652.3z M334.1,659.3
						c0.1-1.2,1.2-2.1,2.4-1.9c1.2,0.1,2.1,1.2,1.9,2.4c-0.4,3.7-0.5,7.2-0.3,10.4c0.1,1.2-0.8,2.3-2,2.3c-0.1,0-0.1,0-0.2,0
						c-1.1,0-2.1-0.9-2.2-2C333.6,666.9,333.7,663.2,334.1,659.3z"/>
					<path d="M337.9,652.3c1,0,1.9-0.7,2.1-1.7c1.1-4.6,2.6-9.4,4.5-14.4c0.4-1.1-0.1-2.4-1.3-2.8c-1.1-0.4-2.4,0.1-2.8,1.3
						c-2,5.2-3.5,10.3-4.6,15c-0.3,1.2,0.5,2.4,1.6,2.6C337.6,652.3,337.7,652.3,337.9,652.3z"/>
					<path d="M334.1,659.3c-0.4,3.9-0.5,7.7-0.3,11.2c0.1,1.2,1,2,2.2,2c0.1,0,0.1,0,0.2,0c1.2-0.1,2.1-1.1,2-2.3
						c-0.2-3.3-0.1-6.8,0.3-10.4c0.1-1.2-0.7-2.3-1.9-2.4C335.3,657.2,334.2,658.1,334.1,659.3z"/>
					<path d="M295.9,558l21.9,36.5c0.3,0.6,0.9,1,1.6,1c0.1,0,0.2,0,0.3,0c0.6,0,1.1-0.2,1.6-0.7l7.5-7.7l2.9,6.1h-5.3
						c-0.8,0-1.5,0.4-1.9,1.1s-0.4,1.5,0,2.2c0.1,0.2,11.3,20,4.5,38c-9.1,24.1-9,43.2,0.3,56.7c8,11.7,21.2,16.3,30.9,16.9v31.2
						c-11.3,0.6-26.2,5.4-32.6,12.9l-0.1,0.1c0,0-0.1,0.1-0.1,0.2c0,0.1-0.1,0.1-0.1,0.2c0,0.1-0.1,0.1-0.1,0.2
						c0,0.1-0.1,0.2-0.1,0.2c0,0.1,0,0.1,0,0.2c0,0.1,0,0.2,0,0.2v0.1v0.1c0,0.1,0,0.1,0,0.2c0,0.1,0,0.1,0,0.2c0,0.1,0,0.1,0.1,0.2
						c0,0.1,0.1,0.2,0.1,0.2c0,0.1,0.1,0.1,0.1,0.2c0,0.1,0.1,0.1,0.1,0.2l0.1,0.1c0.1,0.1,0.1,0.1,0.2,0.2l0,0c0,0,0,0,0.1,0
						c0.1,0.1,0.2,0.1,0.2,0.2c0,0,0.1,0,0.1,0.1c0.1,0,0.2,0.1,0.3,0.1h0.1c0.1,0,0.2,0,0.3,0.1c0.1,0,0.1,0,0.2,0s0.1,0,0.2,0h66
						l0,0c0.1,0,0.3,0,0.4,0s0.1,0,0.2,0s0.2,0,0.2-0.1c0.1,0,0.1,0,0.2-0.1c0.1,0,0.1-0.1,0.2-0.1s0.1-0.1,0.2-0.1
						c0,0,0.1,0,0.1-0.1c0,0,0,0,0.1-0.1s0.1-0.1,0.2-0.2c0-0.1,0.1-0.1,0.1-0.2c0-0.1,0.1-0.1,0.1-0.2c0-0.1,0.1-0.1,0.1-0.2
						c0-0.1,0.1-0.1,0.1-0.2c0-0.1,0-0.1,0.1-0.2c0-0.1,0-0.1,0-0.2c0-0.1,0-0.2,0-0.2v-0.1v-0.1c0-0.1,0-0.2,0-0.2
						c0-0.1,0-0.1,0-0.2c0-0.1,0-0.1-0.1-0.2c0-0.1-0.1-0.1-0.1-0.2c0-0.1-0.1-0.1-0.1-0.2c0-0.1-0.1-0.1-0.1-0.2c0,0,0-0.1-0.1-0.1
						c-6.4-7.5-21.2-12.3-32.3-12.9v-31.3c8.2-0.6,19.6-4.2,27.7-13c7.8-8.6,11.2-20.2,9.9-34.5c-0.7-7.9-2.9-16.7-6.5-26.1
						c-6.8-18,4.4-37.8,4.5-38c0.4-0.7,0.4-1.5,0-2.2s-1.1-1.1-1.9-1.1h-8.9l7.2-48.1c0.2-1.2-0.6-2.3-1.8-2.5l-7.9-1.2
						c-1.2-0.2-2.3,0.6-2.5,1.8l-8,50h-14h-0.2h-25.7l-4.5-9.5l16.9-17.2c0.7-0.7,0.8-1.7,0.4-2.5l-6.8-13.9
						c-0.4-0.8-1.3-1.3-2.2-1.2l-17.3,2.3c1-1.7,1.6-3.4,1.7-4.8c0.2-0.9,0.7-3.7-1.1-6.6c-2-3-5.8-4.9-11.4-5.5
						c-1.4-0.2-2.7-0.2-3.9-0.1l-1.7-3.5c-0.5-1.1-1.8-1.5-2.9-1s-1.6,1.8-1,2.9l1.2,2.5c-1.4,0.6-2.6,1.4-3.5,2.5
						c-3,3.4-2.4,7.8-2.4,8c0.2,2.3,1.4,5.7,4.3,8.2l-4.8,0.6c-0.7,0.1-1.4,0.6-1.7,1.2C295.5,556.6,295.5,557.4,295.9,558z
						 M375.7,597.7l-1.5,9.6h-30.9l-4.6-9.6h23.6h0.2H375.7z M378.6,607.4l1.5-9.6h4.1l-1.4,9.6H378.6z M384.9,593.4h-4l7.5-47.2
						l3.5,0.5L384.9,593.4z M394.6,597.7c-1.1,2.3-2.4,5.6-3.5,9.6h-3.9l1.4-9.6H394.6z M389.3,751.6h-54.2
						c7.2-4.7,18.9-7.8,27.2-7.8C370.8,743.8,382.2,746.9,389.3,751.6z M332.9,688.9c-1.1-1.6-2.1-3.3-2.9-5.1
						c8.8,9.9,23,14.3,32.2,14.3l0,0c0,0,0,0,0.1,0c0,0,0,0,0.1,0l0,0c9.2,0,23.5-4.5,32.3-14.5c-1.4,3.2-3.3,6.1-5.6,8.6
						c-7.9,8.6-19.3,11.7-26.7,11.7C355.2,703.9,341.1,700.7,332.9,688.9z M333.1,636.2c3.2-8.5,2.9-17.2,1.5-24.4h55.5
						c-1.5,7.2-1.8,15.9,1.5,24.4c3.4,9,5.5,17.4,6.2,24.9c0.1,0.7,0.1,1.4,0.1,2c0,0.1,0,0.1,0,0.2c0,23.1-26,30.3-35.6,30.3
						s-35.6-7.2-35.6-30.3v-0.1C327.1,655.2,329.3,646.2,333.1,636.2z M333.8,597.7l4.6,9.6H334c-0.2,0-0.3,0-0.4,0
						c-1.1-4-2.5-7.4-3.5-9.7h3.7V597.7z M314.9,552.4l-3.5,0.5c-8.1-0.1-8.9-7.2-9-7.5c0-0.1-0.3-2.8,1.4-4.6c1.2-1.3,3.1-2,5.8-2
						c0.7,0,1.4,0,2.2,0.1c4.1,0.5,6.9,1.7,8.1,3.5c1,1.5,0.6,3.2,0.6,3.2c0,0.1-0.1,0.3-0.1,0.4C320.3,546.6,319.7,551,314.9,552.4
						z M301.4,558.6l10.3-1.3c1.5,0,2.8-0.2,4-0.5l23.6-3.1l5.4,11.1l-24.6,25.1L301.4,558.6z"/>
				</g>
			</g>
		</g>
	</g>
</g>
</svg>
