<?xml version="1.0" encoding="utf-8"?>
<!-- Generator: Adobe Illustrator 23.0.1, SVG Export Plug-In . SVG Version: 6.00 Build 0)  -->
<svg version="1.1" id="Layer_1" xmlns="http://www.w3.org/2000/svg" xmlns:xlink="http://www.w3.org/1999/xlink" x="0px" y="0px"
	 viewBox="0 0 1981 1102" style="enable-background:new 0 0 1981 1102;" xml:space="preserve">
<style type="text/css">
	.st0{fill-rule:evenodd;clip-rule:evenodd;fill:url(#SVGID_1_);}
	.st1{fill-rule:evenodd;clip-rule:evenodd;fill:#4F3E37;}
	.st2{fill-rule:evenodd;clip-rule:evenodd;fill:#496012;}
	.st3{fill-rule:evenodd;clip-rule:evenodd;fill:#738A21;}
</style>
<g>
	<linearGradient id="SVGID_1_" gradientUnits="userSpaceOnUse" x1="990.5" y1="1102" x2="990.5" y2="-9.094947e-13">
		<stop  offset="1.980641e-02" style="stop-color:#E4D3BB"/>
		<stop  offset="0.1435" style="stop-color:#FAF2D9"/>
		<stop  offset="0.2589" style="stop-color:#FFF3E3"/>
		<stop  offset="0.4024" style="stop-color:#ECEFBD"/>
		<stop  offset="0.5686" style="stop-color:#D9A037"/>
		<stop  offset="0.7116" style="stop-color:#D7761B"/>
		<stop  offset="0.8507" style="stop-color:#751F18"/>
		<stop  offset="1" style="stop-color:#350816"/>
	</linearGradient>
	<rect class="st0" width="1981" height="1102"/>
	<path id="broun_plams" class="st1" d="M1012.3,431.3c21.4-35.7,42.9-57.2,64.3-78.6c-14.3,21.4-28.6,50-21.4,64.3
		c7.1-28.6,28.6-57.2,57.2-85.8c-14.3,28.6-21.4,50-14.3,64.3c7.1-28.6,28.6-64.3,64.3-85.8c-28.6,28.6-28.6,50-28.6,57.2
		c14.3-28.6,35.7-50,64.3-57.2c-14.3,14.3-28.6,28.6-28.6,42.9c14.3-14.3,57.2-71.5,107.2-28.6c-107.2-21.4-114.4,157.3-85.8,207.3
		c-7.1-35.7-7.1-57.2-7.1-78.6c7.1,21.4,14.3,42.9,21.4,50c-7.1-21.4-14.3-50-14.3-78.6c14.3,28.6,21.4,35.7,28.6,42.9
		c-14.3-21.4-14.3-50-7.1-78.6c0,28.6,7.1,35.7,14.3,42.9c-7.1-21.4-7.1-42.9,0-64.3c0,21.4,0,35.7,7.1,42.9
		c0-50,7.1-64.3,42.9-71.5v14.3h-7.1l7.1,21.4h-7.1l7.1,28.6h-7.1l7.1,21.4h-7.1l7.1,21.4h-7.1l7.1,28.6h-7.1l7.1,21.4h-7.1
		l7.1,21.4h-7.1l7.1,28.6h-7.1l7.1,21.4h-7.1l7.1,28.6h-7.1l7.1,28.6h-7.1l7.1,21.4h-7.1l7.1,28.6h-7.1v21.4h-7.1l7.1,28.6h-7.1
		l7.1,35.7c-64.3,7.1-121.5,50-300.2,85.8c-71.5-7.1-78.6-7.1-100.1-28.6c-7.1-7.1-14.3-7.1-28.6-14.3l7.1-14.3h-7.1l7.1-14.3h-7.1
		v-7.1l0,0v-14.3l0,0v-7.1l0,0v-14.3l0,0v-14.3l0,0V710l0,0v-14.3l0,0v-7.1l0,0v-14.3l0,0V660l0,0v-7.1l0,0v-14.3l0,0v-7.1l0,0
		v-14.3l0,0V610c21.4,7.1,28.6,14.3,21.4,35.7c7.1-7.1,7.1-14.3,7.1-14.3c7.1,7.1,0,14.3-7.1,21.4c7.1,0,14.3,0,14.3-14.3
		c7.1,14.3,0,21.4-7.1,28.6c0,0,7.1-7.1,14.3-14.3c0,14.3-7.1,21.4-14.3,28.6c7.1,0,14.3-7.1,14.3-14.3c0,7.1,0,14.3-7.1,28.6
		c21.4-14.3,35.7-92.9-35.7-85.8c28.6-21.4,28.6-14.3,50,7.1c0-7.1-7.1-14.3-7.1-21.4c7.1,7.1,14.3,14.3,14.3,28.6
		c7.1-7.1,7.1-14.3,0-28.6c14.3,14.3,14.3,21.4,14.3,35.7c7.1-7.1,7.1-14.3,7.1-28.6c7.1,14.3,7.1,28.6,14.3,35.7
		c0,0,0-14.3-7.1-21.4c7.1,7.1,14.3,14.3,21.4,28.6c-7.1-100.1-100.1-50-107.2-42.9c0-21.4,7.1-21.4,28.6-21.4
		c0-7.1-7.1-7.1-14.3-7.1c7.1-7.1,21.4-7.1,28.6,0c0,0-7.1-7.1-21.4-7.1c14.3-7.1,28.6,0,35.7,7.1c0-7.1-7.1-14.3-14.3-14.3
		c7.1,0,21.4,0,35.7,7.1c-7.1-7.1-14.3-7.1-21.4-14.3c7.1,0,14.3,0,35.7,7.1c-21.4-14.3-85.8-21.4-100.1,21.4c0-7.1,0-14.3,0-28.6
		c-7.1,14.3,0,21.4,0,28.6c-21.4-42.9-78.6-42.9-92.9-35.7c14.3,0,21.4,0,35.7,0c-14.3,7.1-21.4,7.1-21.4,14.3
		c7.1-7.1,21.4-7.1,28.6-7.1c-7.1,7.1-14.3,7.1-14.3,14.3c7.1-7.1,21.4-7.1,35.7-7.1c-14.3,7.1-14.3,7.1-21.4,14.3
		c14.3-7.1,21.4-7.1,28.6,0c-7.1,0-14.3,0-14.3,0c21.4,7.1,28.6,14.3,28.6,28.6c-7.1-14.3-78.6-57.2-121.5,50
		c14.3-14.3,21.4-21.4,28.6-28.6c-7.1,7.1-7.1,21.4-7.1,21.4c0-7.1,14.3-21.4,28.6-35.7c-7.1,14.3-14.3,21.4-14.3,28.6
		c7.1-14.3,14.3-28.6,35.7-35.7c-14.3,14.3-14.3,21.4-14.3,21.4c7.1-7.1,14.3-21.4,28.6-21.4c-7.1,0-14.3,14.3-14.3,14.3
		c7.1-7.1,28.6-28.6,50-14.3c-50-7.1-50,78.6-35.7,100.1c-7.1-14.3-7.1-28.6-7.1-35.7c0,7.1,7.1,21.4,7.1,21.4c0-7.1,0-21.4,0-35.7
		c0,14.3,7.1,14.3,7.1,21.4c0-14.3-7.1-21.4,0-35.7c0,14.3,0,14.3,7.1,21.4c-7.1-14.3-7.1-21.4,0-28.6c0,0,0,7.1,0,14.3
		c7.1-21.4,7.1-28.6,21.4-28.6l0,0l0,0v14.3l0,0v7.1l0,0v14.3l0,0v7.1l0,0v14.3l0,0v14.3l0,0v7.1l0,0V710l0,0v7.1l0,0v14.3l0,0v14.3
		l0,0v7.1h-7.1l7.1,14.3h-7.1l7.1,7.1h-7.1l7.1,14.3h-7.1l7.1,14.3c-42.9,7.1-71.5,35.7-214.4,57.2l-14.3-7.1l7.1-42.9h-7.1
		l7.1-35.7h-7.1l7.1-35.7h-7.1l7.1-35.7h-14.3l7.1-35.7h-7.1l7.1-35.7h-7.1l7.1-35.7h-7.1l7.1-35.7h-7.1l7.1-28.6h-7.1l7.1-35.7
		h-7.1l7.1-35.7h-7.1l7.1-28.6h-7.1l7.1-35.7h-7.1l7.1-35.7h-7.1l7.1-28.6h-7.1l7.1-35.7h-14.3l7.1-14.3c50,7.1,57.2,28.6,57.2,92.9
		c7.1-7.1,14.3-28.6,14.3-50c7.1,28.6,7.1,57.2,0,85.8c7.1-7.1,14.3-21.4,21.4-57.2c7.1,35.7,0,71.5-7.1,100.1
		c7.1-7.1,14.3-21.4,28.6-50c0,35.7-7.1,71.5-14.3,100.1c7.1-7.1,21.4-35.7,21.4-64.3c7.1,28.6,0,57.2-7.1,100.1
		c35.7-57.2,28.6-307.4-114.4-278.8c64.3-57.2,121.5,14.3,150.1,42.9c0-21.4-21.4-42.9-42.9-64.3c42.9,14.3,71.5,42.9,85.8,85.8
		c0-21.4,0-42.9-35.7-78.6c50,28.6,78.6,71.5,92.9,107.2c0-14.3-7.1-35.7-21.4-78.6c28.6,35.7,64.3,78.6,78.6,114.4
		c0-14.3-14.3-57.2-35.7-85.8c28.6,28.6,57.2,57.2,92.9,100.1C826.4,73.9,612,195.4,583.4,245.4c21.4-50,28.6-71.5,92.9-78.6
		c-7.1-7.1-28.6-7.1-42.9-7.1c28.6-14.3,57.2-21.4,78.6-7.1c-7.1-7.1-14.3-21.4-50-21.4c35.7-14.3,71.5-7.1,100.1,0
		c-7.1-7.1-21.4-21.4-50-35.7c35.7,0,71.5,7.1,92.9,14.3c0-7.1-28.6-21.4-50-28.6c21.4,0,50,0,92.9,0
		c-50-28.6-221.6-21.4-271.6,100.1c0-21.4,7.1-50-7.1-71.5c-7.1,28.6-7.1,50,0,64.3C526.2,52.4,333.2,73.9,276,116.7
		c50-14.3,78.6-14.3,107.2-14.3c-28.6,7.1-57.2,21.4-64.3,35.7c28.6-14.3,71.5-21.4,107.2-28.6c-35.7,21.4-50,28.6-57.2,42.9
		c28.6-14.3,64.3-28.6,114.4-21.4c-42.9,7.1-57.2,21.4-64.3,35.7c28.6-14.3,57.2-21.4,92.9-7.1c-21.4,0-42.9,7.1-57.2,21.4
		c71.5,0,100.1,7.1,92.9,64.3C533.4,216.8,240.3,73.9,226,381.2c21.4-42.9,35.7-71.5,57.2-100.1c-14.3,28.6-14.3,71.5-7.1,85.8
		c7.1-35.7,21.4-78.6,42.9-114.4c-7.1,42.9-7.1,71.5,7.1,85.8c0-35.7,14.3-78.6,50-107.2c-21.4,35.7-14.3,57.2-7.1,78.6
		c0-42.9,21.4-64.3,57.2-78.6c-14.3,14.3-28.6,35.7-21.4,57.2c50-64.3,64.3-78.6,143-28.6c-221.6-21.4-164.4,214.4-100.1,264.5
		c-21.4-35.7-28.6-64.3-35.7-85.8c14.3,21.4,35.7,42.9,50,50c-21.4-21.4-35.7-57.2-42.9-85.8c21.4,21.4,35.7,35.7,50,42.9
		c-21.4-21.4-35.7-57.2-35.7-92.9c14.3,35.7,28.6,42.9,42.9,50c-21.4-21.4-28.6-50-21.4-78.6c7.1,21.4,14.3,35.7,28.6,42.9
		c-14.3-64.3-7.1-78.6,71.5-92.9v21.4h-7.1l7.1,35.7h-7.1l7.1,28.6h-7.1l7.1,35.7h-7.1l7.1,35.7h-7.1l7.1,28.6h-7.1l7.1,35.7h-7.1
		l7.1,35.7h-7.1l7.1,28.6h-7.1l7.1,35.7h-7.1l7.1,35.7h-14.3l14.3,35.7h-14.3l7.1,35.7h-7.1l7.1,35.7h-7.1l7.1,35.7h-7.1l7.1,35.7
		h-14.3l14.3,42.9C447.6,874.4,369,924.5,311.8,996c278.8,114.4,600.4-7.1,1015-7.1c-200.1-57.2-471.8,35.7-571.8-71.5
		c-14.3-7.1-28.6-21.4-42.9-28.6c85.8,0,293.1-14.3,421.7-28.6c135.8-14.3,386,57.2,500.4,7.1c-178.7-7.1-193-50-200.1-57.2
		c-35.7-35.7-64.3-42.9-121.5-57.2l7.1-28.6h-7.1v-28.6h-7.1l7.1-21.4h-7.1l7.1-28.6h-7.1l7.1-21.4h-7.1l7.1-28.6h-7.1l7.1-28.6
		h-7.1v-21.4l0,0V517l0,0v-21.4l0,0v-21.4l0,0v-28.6l0,0v-21.4l0,0v-21.4l0,0v-28.6l0,0v-21.4h-7.1l7.1-14.3
		c57.2,7.1,57.2,21.4,50,64.3c7.1-7.1,14.3-14.3,21.4-28.6c0,14.3,0,35.7-14.3,57.2c7.1-7.1,21.4-14.3,28.6-42.9
		c0,28.6-14.3,50-28.6,71.5c14.3-7.1,21.4-14.3,42.9-35.7c-7.1,28.6-21.4,50-35.7,64.3c14.3,0,28.6-21.4,35.7-35.7
		c0,21.4-7.1,35.7-21.4,64.3c42.9-35.7,85.8-207.3-71.5-193c57.2-35.7,64.3-21.4,100.1,21.4c0-14.3-7.1-28.6-14.3-42.9
		c21.4,7.1,35.7,28.6,42.9,57.2c0-14.3,7.1-28.6-7.1-57.2c28.6,21.4,35.7,50,35.7,78.6c7.1-14.3,7.1-28.6,7.1-64.3
		c14.3,28.6,28.6,57.2,28.6,85.8c7.1-14.3,7.1-42.9,0-64.3c14.3,21.4,21.4,42.9,35.7,71.5c-7.1-221.6-221.6-114.4-235.9-100.1
		c0-42.9,14.3-42.9,71.5-42.9c-7.1-7.1-28.6-14.3-42.9-14.3c21.4-7.1,42.9-7.1,71.5,7.1c-14.3-14.3-21.4-21.4-50-28.6
		c35.7-7.1,57.2,7.1,78.6,14.3c0-7.1-14.3-21.4-35.7-28.6c28.6,0,57.2,7.1,71.5,21.4c0-14.3-21.4-21.4-42.9-28.6
		c21.4,0,42.9,0,78.6,14.3c-42.9-35.7-178.7-50-207.3,35.7c0-7.1,0-28.6-7.1-50c-7.1,21.4-7.1,42.9-7.1,57.2
		c-35.7-92.9-157.3-92.9-193-71.5c28.6,0,50,0,64.3,0c-14.3,0-35.7,14.3-35.7,21.4c14.3-7.1,42.9-14.3,71.5-7.1
		c-21.4,7.1-35.7,14.3-35.7,21.4c14.3-7.1,42.9-14.3,71.5,0c-28.6,0-35.7,7.1-42.9,14.3c21.4-7.1,42.9-7.1,64.3,7.1
		c-14.3-7.1-28.6,0-35.7,7.1c50,7.1,57.2,21.4,71.5,57.2C1262.5,274,1105.2,188.2,1012.3,431.3z M955.1,845.8
		c-71.5,14.3-150.1,28.6-257.3,35.7c-14.3-7.1-28.6-14.3-50-14.3c42.9-7.1,85.8-7.1,114.4-14.3C812.1,838.7,890.8,845.8,955.1,845.8
		z"/>
	<g>
		<path class="st2" d="M826.8,615.4c0,0-1.7-5-2.5-7.5c-23.7,5-26.2,10-21.2,31.2c-5-3.7-7.5-8.7-8.7-15c-2.5,8.7-1.2,17.5,6.2,24.9
			c-5-2.5-10-5-15-16.2c0,12.5,6.2,22.5,12.5,29.9c-5-1.2-10-6.2-17.5-15c3.7,11.2,8.7,22.5,15,28.7c-5-1.2-12.5-8.7-16.2-16.2
			c1.2,8.7,5,16.2,10,28.7c-20-17.5-38.7-92.3,33.7-86.1c-26.2-16.2-29.9-11.2-46.1,10c-1.2-6.2,2.5-13.7,6.2-20
			c-10,5-16.2,13.7-17.5,26.2c-1.2-6.2-3.7-12.5,2.5-26.2c-12.5,10-16.2,23.7-17.5,34.9c-2.5-5-2.5-13.7-1.2-26.2
			c-7.5,11.2-12.5,24.9-13.7,34.9c-2.5-5-2.5-17.5,1.2-26.2c-6.2,7.5-11.2,16.2-17.5,32.4c5-101,99.8-52.4,104.8-44.9
			c1.2-18.7-7.5-21.2-29.9-21.2c2.5-3.7,10-5,17.5-6.2c-10-3.7-20-3.7-29.9,2.5c3.7-3.7,6.2-8.7,20-11.2
			c-13.7-2.5-26.2,2.5-36.2,7.5c2.5-5,7.5-8.7,18.7-15c-12.5,1.2-26.2,5-33.7,10c1.2-3.7,11.2-10,20-12.5c-10,0-20,1.2-33.7,5
			c17.5-15,79.8-21.2,92.3,18.7c-1.2-6.2-1.2-12.5,2.5-22.5c2.5,8.7,1.2,18.7,2.5,23.7c15-38.7,71.1-41.2,86.1-29.9
			c-13.7-2.5-22.5-2.5-31.2-1.2c7.5,1.2,16.2,6.2,17.5,8.7c-7.5-2.5-18.7-3.7-29.9-3.7c8.7,3.7,13.7,7.5,15,11.2
			c-7.5-3.7-18.7-6.2-31.2-1.2c11.2,0,13.7,3.7,16.2,7.5c-7.5-3.7-17.5-2.5-26.2,2.5c6.2-1.2,12.5,0,15,3.7
			c-21.2,2.5-24.9,8.7-29.9,23.7c8.7-16.2,78.6-54.9,118.5,52.4c-10-16.2-18.7-24.9-27.4-33.7c6.2,8.7,11.2,22.5,10,27.4
			c-5-11.2-15-26.2-26.2-37.4c6.2,13.7,8.7,21.2,7.5,27.4c-5-12.5-13.7-26.2-28.7-36.2c10,12.5,10,20,11.2,24.9
			c-6.2-12.5-15-21.2-27.4-27.4c6.2,6.2,12.5,13.7,12.5,20c-7.5-7.5-27.4-31.2-48.6-12.5c47.4-8.7,49.9,71.1,38.7,91.1
			c2.5-13.7,2.5-23.7,1.2-32.4c-1.2,7.5-5,17.5-7.5,20c2.5-8.7,5-21.2,5-33.7c-3.7,11.2-7.5,16.2-10,18.7c3.7-10,6.2-21.2,2.5-34.9
			c-1.2,13.7-3.7,16.2-6.2,20c3.7-10,2.5-18.7-1.2-28.7c0,7.5,0,13.7-3.7,17.5c0-21.2-2.5-27.4-18.7-29.9l-1.2,5"/>
	</g>
	<g>
		<path class="st2" d="M1280.1,352.8c0,0-4-11.9-6-17.9c-56.6,11.9-62.6,23.8-50.7,74.5c-11.9-8.9-17.9-20.9-20.9-35.8
			c-6,20.9-3,41.7,14.9,59.6c-11.9-6-23.8-11.9-35.8-38.7c0,29.8,14.9,53.6,29.8,71.5c-11.9-3-23.8-14.9-41.7-35.8
			c8.9,26.8,20.9,53.6,35.8,68.5c-11.9-3-29.8-20.9-38.7-38.7c3,20.9,11.9,38.7,23.8,68.5c-47.7-41.7-92.4-220.5,80.5-205.6
			c-62.6-38.7-71.5-26.8-110.3,23.8c-3-14.9,6-32.8,14.9-47.7c-23.8,11.9-38.7,32.8-41.7,62.6c-3-14.9-8.9-29.8,6-62.6
			c-29.8,23.8-38.7,56.6-41.7,83.4c-6-11.9-6-32.8-3-62.6c-17.9,26.8-29.8,59.6-32.8,83.4c-6-11.9-6-41.7,3-62.6
			c-14.9,17.9-26.8,38.7-41.7,77.5c11.9-241.4,238.4-125.2,250.3-107.3c3-44.7-17.9-50.7-71.5-50.7c6-8.9,23.8-11.9,41.7-14.9
			c-23.8-8.9-47.7-8.9-71.5,6c8.9-8.9,14.9-20.9,47.7-26.8c-32.8-6-62.6,6-86.4,17.9c6-11.9,17.9-20.9,44.7-35.8
			c-29.8,3-62.6,11.9-80.5,23.8c3-8.9,26.8-23.8,47.7-29.8c-23.8,0-47.7,3-80.5,11.9c41.7-35.8,190.7-50.7,220.5,44.7
			c-3-14.9-3-29.8,6-53.6c6,20.9,3,44.7,6,56.6c35.8-92.4,169.9-98.3,205.6-71.5c-32.8-6-53.6-6-74.5-3c17.9,3,38.7,14.9,41.7,20.9
			c-17.9-6-44.7-8.9-71.5-8.9c20.9,8.9,32.8,17.9,35.8,26.8c-17.9-8.9-44.7-14.9-74.5-3c26.8,0,32.8,8.9,38.7,17.9
			c-17.9-8.9-41.7-6-62.6,6c14.9-3,29.8,0,35.8,8.9c-50.7,6-59.6,20.9-71.5,56.6c20.9-38.7,187.7-131.1,283.1,125.2
			c-23.8-38.7-44.7-59.6-65.6-80.5c14.9,20.9,26.8,53.6,23.8,65.6c-11.9-26.8-35.8-62.6-62.6-89.4c14.9,32.8,20.9,50.7,17.9,65.6
			c-11.9-29.8-32.8-62.6-68.5-86.4c23.8,29.8,23.8,47.7,26.8,59.6c-14.9-29.8-35.8-50.7-65.6-65.6c14.9,14.9,29.8,32.8,29.8,47.7
			c-17.9-17.9-65.6-74.5-116.2-29.8c113.2-20.9,119.2,169.9,92.4,217.5c6-32.8,6-56.6,3-77.5c-3,17.9-11.9,41.7-17.9,47.7
			c6-20.9,11.9-50.7,11.9-80.5c-8.9,26.8-17.9,38.7-23.8,44.7c8.9-23.8,14.9-50.7,6-83.4c-3,32.8-8.9,38.7-14.9,47.7
			c8.9-23.8,6-44.7-3-68.5c0,17.9,0,32.8-8.9,41.7c0-50.7-6-65.6-44.7-71.5l-3,11.9"/>
	</g>
	<g>
		<path class="st2" d="M558.5,293.9c0,0-5.6-16.7-8.3-25c-79.3,16.7-87.6,33.4-70.9,104.3c-16.7-12.5-25-29.2-29.2-50.1
			c-8.3,29.2-4.2,58.4,20.9,83.4c-16.7-8.3-33.4-16.7-50.1-54.2c0,41.7,20.9,75.1,41.7,100.1c-16.7-4.2-33.4-20.9-58.4-50.1
			c12.5,37.5,29.2,75.1,50.1,95.9c-16.7-4.2-41.7-29.2-54.2-54.2c4.2,29.2,16.7,54.2,33.4,95.9C366.6,481.6,304.1,231.3,546,252.2
			c-87.6-54.2-100.1-37.5-154.3,33.4c-4.2-20.9,8.3-45.9,20.9-66.7c-33.4,16.7-54.2,45.9-58.4,87.6c-4.2-20.9-12.5-41.7,8.3-87.6
			c-41.7,33.4-54.2,79.3-58.4,116.8c-8.3-16.7-8.3-45.9-4.2-87.6c-25,37.5-41.7,83.4-45.9,116.8c-8.3-16.7-8.3-58.4,4.2-87.6
			c-20.9,25-37.5,54.2-58.4,108.5c16.7-337.9,333.7-175.2,350.4-150.2c4.2-62.6-25-70.9-100.1-70.9c8.3-12.5,33.4-16.7,58.4-20.9
			c-33.4-12.5-66.7-12.5-100.1,8.3c12.5-12.5,20.9-29.2,66.7-37.5c-45.9-8.3-87.6,8.3-121,25c8.3-16.7,25-29.2,62.6-50.1
			c-41.7,4.2-87.6,16.7-112.6,33.4c4.2-12.5,37.5-33.4,66.7-41.7c-33.4,0-66.7,4.2-112.6,16.7c58.4-50.1,267-70.9,308.7,62.6
			c-4.2-20.9-4.2-41.7,8.3-75.1c8.3,29.2,4.2,62.6,8.3,79.3C633.6,35.3,821.3,26.9,871.4,64.5c-45.9-8.3-75.1-8.3-104.3-4.2
			c25,4.2,54.2,20.9,58.4,29.2c-25-8.3-62.6-12.5-100.1-12.5c29.2,12.5,45.9,25,50.1,37.5c-25-12.5-62.6-20.9-104.3-4.2
			c37.5,0,45.9,12.5,54.2,25c-25-12.5-58.4-8.3-87.6,8.3c20.9-4.2,41.7,0,50.1,12.5c-70.9,8.3-83.4,29.2-100.1,79.3
			C616.9,181.3,850.5,52,984,410.7c-33.4-54.2-62.6-83.4-91.8-112.6c20.9,29.2,37.5,75.1,33.4,91.8c-16.7-37.5-50.1-87.6-87.6-125.1
			c20.9,45.9,29.2,70.9,25,91.8c-16.7-41.7-45.9-87.6-95.9-121c33.4,41.7,33.4,66.7,37.5,83.4c-20.9-41.7-50.1-70.9-91.8-91.8
			c20.9,20.9,41.7,45.9,41.7,66.7c-25-25-91.8-104.3-162.7-41.7C750.4,223,758.7,490,721.2,556.7c8.3-45.9,8.3-79.3,4.2-108.5
			c-4.2,25-16.7,58.4-25,66.7c8.3-29.2,16.7-70.9,16.7-112.6c-12.5,37.5-25,54.2-33.4,62.6c12.5-33.4,20.9-70.9,8.3-116.8
			c-4.2,45.9-12.5,54.2-20.9,66.7c12.5-33.4,8.3-62.6-4.2-95.9c0,25,0,45.9-12.5,58.4c0-70.9-8.3-91.8-62.6-100.1l-4.2,16.7"/>
	</g>
	<g>
		<path class="st3" d="M827.6,615.8c0,0-1.5-4.4-2.2-6.6c-20.9,4.4-23.1,8.8-18.7,27.6c-4.4-3.3-6.6-7.7-7.7-13.2
			c-2.2,7.7-1.1,15.4,5.5,22c-4.4-2.2-8.8-4.4-13.2-14.3c0,11,5.5,19.8,11,26.5c-4.4-1.1-8.8-5.5-15.4-13.2
			c3.3,9.9,7.7,19.8,13.2,25.4c-4.4-1.1-11-7.7-14.3-14.3c1.1,7.7,4.4,14.3,8.8,25.4c-17.6-15.4-34.2-81.6,29.8-76.1
			c-23.1-14.3-26.5-9.9-40.8,8.8c-1.1-5.5,2.2-12.1,5.5-17.6c-8.8,4.4-14.3,12.1-15.4,23.1c-1.1-5.5-3.3-11,2.2-23.1
			c-11,8.8-14.3,20.9-15.4,30.9c-2.2-4.4-2.2-12.1-1.1-23.1c-6.6,9.9-11,22-12.1,30.9c-2.2-4.4-2.2-15.4,1.1-23.1
			c-5.5,6.6-9.9,14.3-15.4,28.7c4.4-89.3,88.2-46.3,92.6-39.7c1.1-16.5-6.6-18.7-26.5-18.7c2.2-3.3,8.8-4.4,15.4-5.5
			c-8.8-3.3-17.6-3.3-26.5,2.2c3.3-3.3,5.5-7.7,17.6-9.9c-12.1-2.2-23.1,2.2-32,6.6c2.2-4.4,6.6-7.7,16.5-13.2
			c-11,1.1-23.1,4.4-29.8,8.8c1.1-3.3,9.9-8.8,17.6-11c-8.8,0-17.6,1.1-29.8,4.4c15.4-13.2,70.5-18.7,81.6,16.5
			c-1.1-5.5-1.1-11,2.2-19.8c2.2,7.7,1.1,16.5,2.2,20.9c13.2-34.2,62.8-36.4,76.1-26.5c-12.1-2.2-19.8-2.2-27.6-1.1
			c6.6,1.1,14.3,5.5,15.4,7.7c-6.6-2.2-16.5-3.3-26.5-3.3c7.7,3.3,12.1,6.6,13.2,9.9c-6.6-3.3-16.5-5.5-27.6-1.1
			c9.9,0,12.1,3.3,14.3,6.6c-6.6-3.3-15.4-2.2-23.1,2.2c5.5-1.1,11,0,13.2,3.3c-18.7,2.2-22,7.7-26.5,20.9
			c7.7-14.3,69.4-48.5,104.7,46.3c-8.8-14.3-16.5-22-24.2-29.8c5.5,7.7,9.9,19.8,8.8,24.2c-4.4-9.9-13.2-23.1-23.1-33.1
			c5.5,12.1,7.7,18.7,6.6,24.2c-4.4-11-12.1-23.1-25.4-32c8.8,11,8.8,17.6,9.9,22c-5.5-11-13.2-18.7-24.2-24.2
			c5.5,5.5,11,12.1,11,17.6c-6.6-6.6-24.2-27.6-43-11c41.9-7.7,44.1,62.8,34.2,80.5c2.2-12.1,2.2-20.9,1.1-28.7
			c-1.1,6.6-4.4,15.4-6.6,17.6c2.2-7.7,4.4-18.7,4.4-29.8c-3.3,9.9-6.6,14.3-8.8,16.5c3.3-8.8,5.5-18.7,2.2-30.9
			c-1.1,12.1-3.3,14.3-5.5,17.6c3.3-8.8,2.2-16.5-1.1-25.4c0,6.6,0,12.1-3.3,15.4c0-18.7-2.2-24.2-16.5-26.5l-1.1,4.4"/>
	</g>
	<g>
		<path class="st3" d="M551.3,294.6c0,0-5.3-15.8-7.9-23.7c-75,15.8-82.9,31.6-67.1,98.7c-15.8-11.8-23.7-27.6-27.6-47.4
			c-7.9,27.6-3.9,55.3,19.7,79c-15.8-7.9-31.6-15.8-47.4-51.3c0,39.5,19.7,71.1,39.5,94.8c-15.8-3.9-31.6-19.7-55.3-47.4
			c11.8,35.5,27.6,71.1,47.4,90.8c-15.8-3.9-39.5-27.6-51.3-51.3c3.9,27.6,15.8,51.3,31.6,90.8c-63.2-55.3-122.4-292.1,106.6-272.4
			c-82.9-51.3-94.8-35.5-146.1,31.6c-3.9-19.7,7.9-43.4,19.7-63.2c-31.6,15.8-51.3,43.4-55.3,82.9c-3.9-19.7-11.8-39.5,7.9-82.9
			c-39.5,31.6-51.3,75-55.3,110.5c-7.9-15.8-7.9-43.4-3.9-82.9c-23.7,35.5-39.5,79-43.4,110.5c-7.9-15.8-7.9-55.3,3.9-82.9
			c-19.7,23.7-35.5,51.3-55.3,102.6c15.8-319.8,315.8-165.8,331.6-142.1c3.9-59.2-23.7-67.1-94.8-67.1c7.9-11.8,31.6-15.8,55.3-19.7
			c-31.6-11.8-63.2-11.8-94.8,7.9c11.8-11.8,19.7-27.6,63.2-35.5c-43.4-7.9-82.9,7.9-114.5,23.7c7.9-15.8,23.7-27.6,59.2-47.4
			c-39.5,3.9-82.9,15.8-106.6,31.6c3.9-11.8,35.5-31.6,63.2-39.5c-31.6,0-63.2,3.9-106.6,15.8c55.3-47.4,252.7-67.1,292.1,59.2
			c-3.9-19.7-3.9-39.5,7.9-71.1c7.9,27.6,3.9,59.2,7.9,75C622.4,49.8,800,41.9,847.4,77.4c-43.4-7.9-71.1-7.9-98.7-3.9
			c23.7,3.9,51.3,19.7,55.3,27.6c-23.7-7.9-59.2-11.8-94.8-11.8c27.6,11.8,43.4,23.7,47.4,35.5c-23.7-11.8-59.2-19.7-98.7-3.9
			c35.5,0,43.4,11.8,51.3,23.7c-23.7-11.8-55.3-7.9-82.9,7.9c19.7-3.9,39.5,0,47.4,11.8c-67.1,7.9-79,27.6-94.8,75
			C606.6,188,827.7,65.6,954,405.1c-31.6-51.3-59.2-79-86.9-106.6c19.7,27.6,35.5,71.1,31.6,86.9c-15.8-35.5-47.4-82.9-82.9-118.4
			c19.7,43.4,27.6,67.1,23.7,86.9c-15.8-39.5-43.4-82.9-90.8-114.5c31.6,39.5,31.6,63.2,35.5,79c-19.7-39.5-47.4-67.1-86.9-86.9
			c19.7,19.7,39.5,43.4,39.5,63.2c-23.7-23.7-86.9-98.7-154-39.5c150-27.6,157.9,225,122.4,288.2c7.9-43.4,7.9-75,3.9-102.6
			c-3.9,23.7-15.8,55.3-23.7,63.2c7.9-27.6,15.8-67.1,15.8-106.6c-11.8,35.5-23.7,51.3-31.6,59.2c11.8-31.6,19.7-67.1,7.9-110.5
			c-3.9,43.4-11.8,51.3-19.7,63.2c11.8-31.6,7.9-59.2-3.9-90.8c0,23.7,0,43.4-11.8,55.3c0-67.1-7.9-86.9-59.2-94.8l-3.9,15.8"/>
	</g>
	<g>
		<path class="st3" d="M1278.2,352.6c0,0-4.2-12.6-6.3-18.9c-59.8,12.6-66,25.2-53.5,78.6c-12.6-9.4-18.9-22-22-37.7
			c-6.3,22-3.1,44,15.7,62.9c-12.6-6.3-25.2-12.6-37.7-40.9c0,31.4,15.7,56.6,31.4,75.5c-12.6-3.1-25.2-15.7-44-37.7
			c9.4,28.3,22,56.6,37.7,72.3c-12.6-3.1-31.4-22-40.9-40.9c3.1,22,12.6,40.9,25.2,72.3c-50.3-44-97.5-232.7,84.9-217
			c-66-40.9-75.5-28.3-116.4,25.2c-3.1-15.7,6.3-34.6,15.7-50.3c-25.2,12.6-40.9,34.6-44,66c-3.1-15.7-9.4-31.4,6.3-66
			c-31.4,25.2-40.9,59.8-44,88.1c-6.3-12.6-6.3-34.6-3.1-66c-18.9,28.3-31.4,62.9-34.6,88.1c-6.3-12.6-6.3-44,3.1-66
			c-15.7,18.9-28.3,40.9-44,81.8c12.6-254.7,251.6-132.1,264.2-113.2c3.1-47.2-18.9-53.5-75.5-53.5c6.3-9.4,25.2-12.6,44-15.7
			c-25.2-9.4-50.3-9.4-75.5,6.3c9.4-9.4,15.7-22,50.3-28.3c-34.6-6.3-66,6.3-91.2,18.9c6.3-12.6,18.9-22,47.2-37.7
			c-31.4,3.1-66,12.6-84.9,25.2c3.1-9.4,28.3-25.2,50.3-31.4c-25.2,0-50.3,3.1-84.9,12.6c44-37.7,201.3-53.5,232.7,47.2
			c-3.1-15.7-3.1-31.4,6.3-56.6c6.3,22,3.1,47.2,6.3,59.8c37.7-97.5,179.3-103.8,217-75.5c-34.6-6.3-56.6-6.3-78.6-3.1
			c18.9,3.1,40.9,15.7,44,22c-18.9-6.3-47.2-9.4-75.5-9.4c22,9.4,34.6,18.9,37.7,28.3c-18.9-9.4-47.2-15.7-78.6-3.1
			c28.3,0,34.6,9.4,40.9,18.9c-18.9-9.4-44-6.3-66,6.3c15.7-3.1,31.4,0,37.7,9.4c-53.5,6.3-62.9,22-75.5,59.8
			c22-40.9,198.1-138.4,298.8,132.1c-25.2-40.9-47.2-62.9-69.2-84.9c15.7,22,28.3,56.6,25.2,69.2c-12.6-28.3-37.7-66-66-94.3
			c15.7,34.6,22,53.5,18.9,69.2c-12.6-31.4-34.6-66-72.3-91.2c25.2,31.4,25.2,50.3,28.3,62.9c-15.7-31.4-37.7-53.5-69.2-69.2
			c15.7,15.7,31.4,34.6,31.4,50.3c-18.9-18.9-69.2-78.6-122.6-31.4c119.5-22,125.8,179.3,97.5,229.6c6.3-34.6,6.3-59.8,3.1-81.8
			c-3.1,18.9-12.6,44-18.9,50.3c6.3-22,12.6-53.5,12.6-84.9c-9.4,28.3-18.9,40.9-25.2,47.2c9.4-25.2,15.7-53.5,6.3-88.1
			c-3.1,34.6-9.4,40.9-15.7,50.3c9.4-25.2,6.3-47.2-3.1-72.3c0,18.9,0,34.6-9.4,44c0-53.5-6.3-69.2-47.2-75.5l-3.1,12.6"/>
	</g>
</g>
</svg>
