<?xml version="1.0" encoding="utf-8"?>
<!-- Generator: Adobe Illustrator 23.0.1, SVG Export Plug-In . SVG Version: 6.00 Build 0)  -->
<svg version="1.1" id="Layer_1" xmlns="http://www.w3.org/2000/svg" xmlns:xlink="http://www.w3.org/1999/xlink" x="0px" y="0px"
	 viewBox="0 0 43 39.5" style="enable-background:new 0 0 43 39.5;" xml:space="preserve">
<style type="text/css">
	.st0{fill:#7F5C36;}
	.st1{fill:none;}
	.st2{fill:#C69C6D;}
</style>
<g id="Ball">
	<ellipse class="st0" cx="21.6" cy="19.8" rx="20.4" ry="19"/>
	<path class="st1" d="M39.3,11.4l-1.9,0.9c-0.1,0-0.1,0-0.2,0c-0.1,0-0.3-0.1-0.3-0.2c-0.1-0.2,0-0.4,0.2-0.5l1.9-0.9
		c-0.1-0.1-0.2-0.3-0.2-0.4l-1.9,0.9c-0.1,0-0.1,0-0.2,0c-0.1,0-0.3-0.1-0.3-0.2c-0.1-0.2,0-0.4,0.2-0.5l1.8-0.9
		c-0.1-0.2-0.2-0.3-0.3-0.5L36,10.2c-0.1,0-0.1,0-0.2,0c-0.1,0-0.3-0.1-0.3-0.2c-0.1-0.2,0-0.4,0.2-0.5l1.8-0.9
		C34,4.4,28.3,1.8,21.5,1.8C15.3,1.8,10,4,6.5,7.6C7.4,8.2,9.1,9,11.6,8.9c0.2,0,0.4,0.2,0.4,0.4c0,0.2-0.2,0.4-0.4,0.4
		c-0.1,0-0.2,0-0.4,0C8.6,9.6,6.9,8.8,6,8.2c-2.6,2.9-4,6.6-4,10.8c0,6.5,3.5,12.2,8.7,15.5c-2.5-2.7-3.9-5.4-4-5.5
		c-0.1-0.2,0-0.4,0.2-0.5c0.2-0.1,0.4,0,0.5,0.2c0,0,2.3,4.1,5.8,7.2c2.6,1.2,5.4,1.8,8.4,1.8c10.8,0,19.6-8.4,19.6-18.7
		C41.1,16.2,40.4,13.7,39.3,11.4z M15.5,4.9c-1.2,1-4,1.2-4.1,1.2c0,0,0,0,0,0C11.2,6.1,11,6,11,5.8c0-0.2,0.2-0.4,0.4-0.4
		c0.7,0,2.8-0.3,3.7-1c0.2-0.1,0.4-0.1,0.5,0C15.7,4.6,15.7,4.8,15.5,4.9z M26,4.8l-0.8,1.7c-0.1,0.1-0.2,0.2-0.4,0.2
		c-0.1,0-0.1,0-0.2,0c-0.2-0.1-0.3-0.3-0.2-0.5l0.8-1.7c0.1-0.2,0.3-0.3,0.5-0.2C26,4.4,26.1,4.6,26,4.8z M31.1,33.9
		c-0.7,0.5-1.5,0.9-2.3,1.3c-0.1,0-0.2,0.1-0.3,0.1c-0.2,0-0.4-0.1-0.5-0.3c-0.1-0.3,0-0.6,0.2-0.7c0.7-0.4,1.5-0.8,2.1-1.2
		c0.3-0.2,0.6-0.1,0.8,0.1S31.3,33.7,31.1,33.9z M32.9,32.5c-0.1,0.1-0.2,0.1-0.4,0.1c-0.2,0-0.3-0.1-0.4-0.2
		c-0.2-0.2-0.2-0.6,0-0.8c4.3-3.7,5.6-8.1,5.6-8.2c0.1-0.3,0.4-0.5,0.7-0.4c0.3,0.1,0.5,0.4,0.4,0.7C38.8,24,37.5,28.6,32.9,32.5z"
		/>
	<path d="M0,19c0,11.3,9.6,20.5,21.5,20.5S43,30.3,43,19c0-5.4-2.3-10.3-6.3-13.8C32.7,1.8,27.3,0,21.5,0"/>
	<path d="M21.5,0C15.7,0,10.3,1.8,6.3,5.2C2.3,8.7,0,13.6,0,19"/>
	<path class="st2" d="M13.4,3.6c2.7-1.2,5.6-1.8,8.4-1.8c4.6,1.3,8.4,4.1,8.4,4.1C30.5,6,30.7,6,30.9,5.8C31,5.7,31,5.4,30.8,5.3
		c-0.1-0.1-2.7-1.9-6.1-3.4c6.2,0.9,11.9,4.6,14.9,10.4c1.9,3.8,2.2,7.8,1.2,11.4c-1.1-0.2-3-0.2-5.4,0.9c-0.1,0-0.2,0.1-0.3,0.1
		c-0.2,0.1-0.3,0.3-0.2,0.5c0.1,0.2,0.3,0.3,0.5,0.2c2.3-1.1,4.2-1.1,5.2-0.9c-1.5,4.7-5.3,8.8-10.9,11.4
		c-6.1,2.8-12.4,2.8-17.5,0.4l1.2-1.5c0.1-0.2,0.1-0.4-0.1-0.5c-0.1-0.1-0.3-0.1-0.4,0c-0.1,0-0.1,0.1-0.1,0.1L11.4,36
		c-0.2-0.1-0.3-0.2-0.5-0.3l1.3-1.6c0.1-0.2,0.1-0.4-0.1-0.5c-0.1-0.1-0.3-0.1-0.4,0c-0.1,0-0.1,0.1-0.1,0.1l-1.3,1.6
		c-0.1-0.1-0.3-0.2-0.4-0.3l1.3-1.6c0.1-0.2,0.1-0.4-0.1-0.5c-0.1-0.1-0.3-0.1-0.4,0c-0.1,0-0.1,0.1-0.1,0.1l-1.3,1.6
		c-2.1-1.6-3.8-3.6-5.1-6.1C-0.5,19.2,3.7,8,13.4,3.6z"/>
	<path d="M30.4,33c-0.7,0.5-1.4,0.9-2.1,1.2C28,34.4,27.9,34.7,28,35c0.1,0.2,0.3,0.3,0.5,0.3c0.1,0,0.2,0,0.3-0.1
		c0.8-0.4,1.5-0.8,2.3-1.3c0.3-0.2,0.3-0.5,0.1-0.8C31,32.9,30.7,32.8,30.4,33z"/>
	<path d="M38.4,23.1c-0.3-0.1-0.6,0.1-0.7,0.4c0,0-1.3,4.5-5.6,8.2c-0.2,0.2-0.3,0.6,0,0.8c0.1,0.1,0.3,0.2,0.4,0.2
		c0.1,0,0.3,0,0.4-0.1c4.6-3.9,5.9-8.5,5.9-8.7C38.9,23.5,38.7,23.2,38.4,23.1z"/>
	<path d="M25.8,4.3c-0.2-0.1-0.4,0-0.5,0.2l-0.8,1.7c-0.1,0.2,0,0.4,0.2,0.5c0.1,0,0.1,0,0.2,0c0.1,0,0.3-0.1,0.4-0.2L26,4.8
		C26.1,4.6,26,4.4,25.8,4.3z"/>
	<path d="M15,4.4c-0.8,0.7-2.9,1-3.7,1c-0.2,0-0.4,0.2-0.4,0.4c0,0.2,0.2,0.3,0.4,0.3c0,0,0,0,0,0c0.1,0,2.9-0.2,4.1-1.2
		c0.2-0.1,0.2-0.4,0-0.5C15.4,4.3,15.2,4.2,15,4.4z"/>
</g>
</svg>
