<?xml version="1.0" encoding="utf-8"?>
<!-- Generator: Adobe Illustrator 23.0.1, SVG Export Plug-In . SVG Version: 6.00 Build 0)  -->
<svg version="1.1" id="Layer_1" xmlns="http://www.w3.org/2000/svg" xmlns:xlink="http://www.w3.org/1999/xlink" x="0px" y="0px"
	 viewBox="0 0 111.9 226.3" style="enable-background:new 0 0 111.9 226.3;" xml:space="preserve">
<style type="text/css">
	.st0{fill:#3F1CAD;}
	.st1{fill:#F4F7D2;}
	.st2{fill:#ED0A40;}
	.st3{fill:#FFFF00;}
	.st4{display:none;}
	.st5{display:inline;}
	.st6{fill:none;}
</style>
<g>
	
		<rect id="straw_1_" x="92" y="14.8" transform="matrix(-0.9871 -0.1604 0.1604 -0.9871 182.8026 109.8889)" class="st0" width="7.6" height="65.6"/>
	<path id="the_drink_1_" class="st1" d="M47.2,164.3l21.4,5.8c0.5,0,19.2-3,19.6-3.3c7.9-5.4,21.3-20.7,20.8-18.4l-3-30.1
		c-3.3-1.6-3.3-15.4-3.6-16.1c-2.6-7.2,3-16.9-1.6-16.9l-56.9-0.4c-1.5,0-2.6,1.3-2.3,2.7c1.6,9.5-1.8,34.1-6.5,37.8
		c-0.6,0.5-1,1.2-1,2l1.5,24.4c0,4.2,8.2,10.4,10.4,12C46.3,164.1,46.7,164.3,47.2,164.3z"/>
	<path id="coctailberry_1_" class="st2" d="M20,25.2h3.4c5,0,9.1-4.1,9.1-9.1v0c0-5-4.1-9.1-9.1-9.1H20c-5,0-9.1,4.1-9.1,9.1v0
		C10.9,21.1,15,25.2,20,25.2z"/>
	<polygon id="pineapple_1_" class="st3" points="56.1,37.2 49.3,20.6 9,27.4 28.2,61.7 	"/>
	<g>
		<g id="fyld_1_" class="st4">
			<path class="st5" d="M63.2,166.9c-16.6,0-45.1-13.4-23.6-66.3c3.6-9,0.6-18.3-1.4-25.4l32.2,0.6l25.2,0.4
				c-1.9,7-6.4,16.7-2.9,25.3c3.7,9.1,6.7,17,7.3,23.9c3.2,33.2-23.2,41.6-36.9,41.6"/>
			<g class="st5">
				<path d="M71.9,176.4C71.9,176.4,71.8,176.4,71.9,176.4c-0.1,0-0.1,0-0.2,0H71.9z"/>
				<path d="M100.7,91.4c0.1-4.3,0.8-8.3,1.7-11.9l0,0C101.4,83.1,100.7,87.2,100.7,91.4z"/>
				<path d="M34,133.5c-1.8,33.4,24.3,42.9,37.8,42.9c13.4,0,39.6-9.5,37.8-42.9c-1.6,25.2-25.2,32.6-37.8,32.6c0,0,0.1,0,0.1,0
					h-0.2c0,0,0.1,0,0.1,0C59.3,166.2,35.7,158.8,34,133.5z"/>
			</g>
			<polyline class="st5" points="82.1,78.5 92.3,14 100.2,15.2 90.6,78.9 			"/>
			<polygon class="st5" points="0,27.2 21.9,63.6 49.6,35.4 42.8,21.6 			"/>
			<path class="st5" d="M16.6,25.4c10.3,0,11.1-8.9,11.1-8.9s2.6-8-10.6-9.5S5.3,15.9,5.3,15.9S6.3,25.4,16.6,25.4z"/>
		</g>
		<g id="linjer_1_">
			<g>
				<path class="st6" d="M100.6,77.7c1.1-4,2.5-7.4,3.5-9.6h-6l-1.4,9.6H100.6z"/>
				<path class="st6" d="M39.5,154.1c0.8,1.8,1.8,3.5,2.9,5.1c8.2,11.9,22.3,15.1,29.4,15.1c7.4,0,18.9-3.1,26.7-11.7
					c2.3-2.6,4.2-5.4,5.6-8.6c-8.7,10-23.1,14.4-32.3,14.5c0,0,0,0,0,0c0,0,0,0-0.1,0c0,0,0,0-0.1,0c0,0,0,0,0,0
					C62.5,168.3,48.3,163.9,39.5,154.1z"/>
				<polygon class="st6" points="90.3,63.6 94.4,63.6 101.4,17 97.8,16.5 				"/>
				<polygon class="st6" points="83.7,77.7 85.2,68 71.9,68 71.7,68 48.2,68 52.8,77.7 				"/>
				<polygon class="st6" points="88.1,77.7 92.2,77.7 93.7,68 89.6,68 				"/>
				<path class="st6" d="M98.8,221.9c-7.1-4.8-18.6-7.8-27-7.8c-8.3,0-20,3.1-27.2,7.8H98.8z"/>
				<path class="st6" d="M20.9,23.2l3.5-0.5c4.8-1.5,5.5-5.9,5.5-6.5c0-0.1,0-0.3,0.1-0.4c0-0.1,0.5-1.7-0.6-3.2
					c-1.2-1.8-4-3-8.1-3.5C20.5,9.1,19.8,9,19.1,9c-2.7,0-4.7,0.7-5.8,2c-1.6,1.8-1.4,4.6-1.4,4.6C11.9,15.9,12.8,23.1,20.9,23.2z"
					/>
				<path class="st6" d="M21.2,27.6l-10.3,1.3l18.7,31.2L54.2,35L48.8,24L25.2,27C24,27.4,22.7,27.5,21.2,27.6z"/>
				<path class="st6" d="M47.9,77.7L43.3,68h-3.8c1.1,2.3,2.4,5.6,3.5,9.7c0.1,0,0.3,0,0.4,0H47.9z"/>
				<path class="st6" d="M42.6,106.5c-3.8,10-5.9,19.1-6.4,27.1c0,0,0,0.1,0,0.1c0,23.1,26,30.3,35.6,30.3c9.6,0,35.6-7.2,35.6-30.3
					c0-0.1,0-0.1,0-0.2c0-0.7-0.1-1.4-0.1-2c-0.7-7.5-2.8-15.9-6.2-24.9C97.8,98,98.1,89.3,99.6,82H44C45.5,89.3,45.8,98,42.6,106.5
					z M47.4,122.6c-0.2,0-0.3,0-0.5-0.1c-1.2-0.3-1.9-1.4-1.6-2.6c1.1-4.8,2.7-9.8,4.6-15c0.4-1.1,1.7-1.7,2.8-1.3
					c1.1,0.4,1.7,1.7,1.3,2.8c-1.9,5-3.4,9.9-4.5,14.4C49.3,121.9,48.4,122.6,47.4,122.6z M43.6,129.5c0.1-1.2,1.2-2.1,2.4-1.9
					c1.2,0.1,2.1,1.2,1.9,2.4c-0.4,3.7-0.5,7.2-0.3,10.4c0.1,1.2-0.8,2.3-2,2.3c-0.1,0-0.1,0-0.2,0c-1.1,0-2.1-0.9-2.2-2
					C43.1,137.2,43.2,133.5,43.6,129.5z"/>
				<path d="M47.4,122.6c1,0,1.9-0.7,2.1-1.7c1.1-4.6,2.6-9.4,4.5-14.4c0.4-1.1-0.1-2.4-1.3-2.8c-1.1-0.4-2.4,0.1-2.8,1.3
					c-2,5.2-3.5,10.3-4.6,15c-0.3,1.2,0.5,2.4,1.6,2.6C47.1,122.6,47.2,122.6,47.4,122.6z"/>
				<path d="M43.6,129.5c-0.4,3.9-0.5,7.7-0.3,11.2c0.1,1.2,1,2,2.2,2c0.1,0,0.1,0,0.2,0c1.2-0.1,2.1-1.1,2-2.3
					c-0.2-3.3-0.1-6.8,0.3-10.4c0.1-1.2-0.7-2.3-1.9-2.4C44.8,127.5,43.7,128.3,43.6,129.5z"/>
				<path d="M5.4,28.3l21.9,36.5c0.3,0.6,0.9,1,1.6,1c0.1,0,0.2,0,0.3,0c0.6,0,1.1-0.2,1.6-0.7l7.5-7.7l2.9,6.1h-5.3
					c-0.8,0-1.5,0.4-1.9,1.1c-0.4,0.7-0.4,1.5,0,2.2c0.1,0.2,11.3,20,4.5,38c-9.1,24.1-9,43.2,0.3,56.7c8,11.7,21.2,16.3,30.9,16.9
					v31.2c-11.3,0.6-26.2,5.4-32.6,12.9c0,0-0.1,0.1-0.1,0.1c0,0-0.1,0.1-0.1,0.2c0,0.1-0.1,0.1-0.1,0.2c0,0.1-0.1,0.1-0.1,0.2
					c0,0.1-0.1,0.2-0.1,0.2c0,0.1,0,0.1,0,0.2c0,0.1,0,0.2,0,0.2c0,0,0,0.1,0,0.1c0,0,0,0.1,0,0.1c0,0.1,0,0.1,0,0.2
					c0,0.1,0,0.1,0,0.2c0,0.1,0,0.1,0.1,0.2c0,0.1,0.1,0.2,0.1,0.2c0,0.1,0.1,0.1,0.1,0.2c0,0.1,0.1,0.1,0.1,0.2
					c0,0,0.1,0.1,0.1,0.1c0.1,0.1,0.1,0.1,0.2,0.2c0,0,0,0,0,0c0,0,0,0,0.1,0c0.1,0.1,0.2,0.1,0.2,0.2c0,0,0.1,0,0.1,0.1
					c0.1,0,0.2,0.1,0.3,0.1c0,0,0.1,0,0.1,0c0.1,0,0.2,0,0.3,0.1c0.1,0,0.1,0,0.2,0c0.1,0,0.1,0,0.2,0h66c0,0,0,0,0,0
					c0.1,0,0.3,0,0.4,0c0.1,0,0.1,0,0.2,0c0.1,0,0.2,0,0.2-0.1c0.1,0,0.1,0,0.2-0.1c0.1,0,0.1-0.1,0.2-0.1c0.1,0,0.1-0.1,0.2-0.1
					c0,0,0.1,0,0.1-0.1c0,0,0,0,0.1-0.1c0.1-0.1,0.1-0.1,0.2-0.2c0-0.1,0.1-0.1,0.1-0.2c0-0.1,0.1-0.1,0.1-0.2
					c0-0.1,0.1-0.1,0.1-0.2c0-0.1,0.1-0.1,0.1-0.2c0-0.1,0-0.1,0.1-0.2c0-0.1,0-0.1,0-0.2c0-0.1,0-0.2,0-0.2c0,0,0-0.1,0-0.1
					c0,0,0-0.1,0-0.1c0-0.1,0-0.2,0-0.2c0-0.1,0-0.1,0-0.2c0-0.1,0-0.1-0.1-0.2c0-0.1-0.1-0.1-0.1-0.2c0-0.1-0.1-0.1-0.1-0.2
					c0-0.1-0.1-0.1-0.1-0.2c0,0,0-0.1-0.1-0.1c-6.4-7.5-21.2-12.3-32.3-12.9v-31.3c8.2-0.6,19.6-4.2,27.7-13
					c7.8-8.6,11.2-20.2,9.9-34.5c-0.7-7.9-2.9-16.7-6.5-26.1c-6.8-18,4.4-37.8,4.5-38c0.4-0.7,0.4-1.5,0-2.2
					c-0.4-0.7-1.1-1.1-1.9-1.1h-8.9l7.2-48.1c0.2-1.2-0.6-2.3-1.8-2.5l-7.9-1.2c-1.2-0.2-2.3,0.6-2.5,1.8l-8,50h-14h-0.2H46.1
					l-4.5-9.5L58.5,37c0.7-0.7,0.8-1.7,0.4-2.5L52,20.6c-0.4-0.8-1.3-1.3-2.2-1.2l-17.3,2.3c1-1.7,1.6-3.4,1.7-4.8
					c0.2-0.9,0.7-3.7-1.1-6.6c-2-3-5.8-4.9-11.4-5.5c-1.4-0.2-2.7-0.2-3.9-0.1l-1.7-3.5c-0.5-1.1-1.8-1.5-2.9-1
					c-1.1,0.5-1.6,1.8-1,2.9l1.2,2.5c-1.4,0.6-2.6,1.4-3.5,2.5c-3,3.4-2.4,7.8-2.4,8c0.2,2.3,1.4,5.7,4.3,8.2L7,25
					c-0.7,0.1-1.4,0.6-1.7,1.2C5,26.9,5,27.7,5.4,28.3z M85.2,68l-1.5,9.6H52.8L48.2,68h23.6h0.2H85.2z M88.1,77.7l1.5-9.6h4.1
					l-1.4,9.6H88.1z M94.4,63.6h-4l7.5-47.2l3.5,0.5L94.4,63.6z M104.1,68c-1.1,2.3-2.4,5.6-3.5,9.6h-3.9l1.4-9.6H104.1z
					 M98.8,221.9H44.7c7.2-4.7,18.9-7.8,27.2-7.8C80.3,214.1,91.7,217.1,98.8,221.9z M42.4,159.1c-1.1-1.6-2.1-3.3-2.9-5.1
					c8.8,9.9,23,14.3,32.2,14.3c0,0,0,0,0,0c0,0,0,0,0.1,0c0,0,0,0,0.1,0c0,0,0,0,0,0c9.2,0,23.5-4.5,32.3-14.5
					c-1.4,3.2-3.3,6.1-5.6,8.6c-7.9,8.6-19.3,11.7-26.7,11.7C64.7,174.2,50.6,171,42.4,159.1z M42.6,106.5C45.8,98,45.5,89.3,44,82
					h55.5c-1.5,7.2-1.8,15.9,1.5,24.4c3.4,9,5.5,17.4,6.2,24.9c0.1,0.7,0.1,1.4,0.1,2c0,0.1,0,0.1,0,0.2c0,23.1-26,30.3-35.6,30.3
					c-9.6,0-35.6-7.2-35.6-30.3c0,0,0-0.1,0-0.1C36.6,125.5,38.8,116.5,42.6,106.5z M43.3,68l4.6,9.6h-4.5c-0.2,0-0.3,0-0.4,0
					c-1.1-4-2.5-7.4-3.5-9.7H43.3z M24.4,22.7l-3.5,0.5c-8.1-0.1-8.9-7.2-9-7.5c0-0.1-0.3-2.8,1.4-4.6c1.2-1.3,3.1-2,5.8-2
					c0.7,0,1.4,0,2.2,0.1c4.1,0.5,6.9,1.7,8.1,3.5c1,1.5,0.6,3.2,0.6,3.2c0,0.1-0.1,0.3-0.1,0.4C29.9,16.9,29.2,21.3,24.4,22.7z
					 M10.9,28.9l10.3-1.3c1.5,0,2.8-0.2,4-0.5L48.8,24L54.2,35L29.6,60.1L10.9,28.9z"/>
			</g>
		</g>
	</g>
</g>
</svg>
