<?xml version="1.0" encoding="utf-8"?>
<!-- Generator: Adobe Illustrator 23.0.1, SVG Export Plug-In . SVG Version: 6.00 Build 0)  -->
<svg version="1.1" id="Layer_1" xmlns="http://www.w3.org/2000/svg" xmlns:xlink="http://www.w3.org/1999/xlink" x="0px" y="0px"
	 viewBox="0 0 110 223.3" style="enable-background:new 0 0 110 223.3;" xml:space="preserve">
<style type="text/css">
	.st0{fill:#1BAFAF;}
	.st1{fill:#F4F7D2;}
	.st2{fill:#ED0A40;}
	.st3{fill:#FFFF00;}
	.st4{display:none;}
	.st5{display:inline;}
	.st6{fill:none;}
</style>
<g>
	<polygon id="straw" class="st0" points="24.6,78.3 17.2,79.5 6.9,15.6 14.3,14.4 	"/>
	<path id="the_drink" class="st1" d="M63.6,157.8l-21,5.7c-0.5,0-18.8-2.9-19.3-3.2c-7.7-5.4-20.9-20.4-20.5-18.2l3-29.7
		c3.2-1.6,3.3-15.2,3.5-15.9c2.6-7.1-2.9-16.7,1.6-16.7l55.9-0.4c1.4,0,2.5,1.3,2.3,2.7c-1.6,9.3,1.7,33.6,6.4,37.3
		c0.6,0.5,1,1.2,1,2L75,145.6c0,4.1-8.1,10.3-10.2,11.9C64.5,157.7,64.1,157.8,63.6,157.8z"/>
	<path id="coctailberry" class="st2" d="M90.5,24.9h-3.7c-4.8,0-8.8-4-8.8-8.8v-0.4c0-4.8,4-8.8,8.8-8.8h3.7c4.8,0,8.8,4,8.8,8.8
		v0.4C99.3,20.9,95.3,24.9,90.5,24.9z"/>
	<polygon id="pineapple" class="st3" points="54.8,36.7 61.5,20.4 101.1,27.1 82.3,60.9 	"/>
	<g id="outline">
		<g id="fyld" class="st4">
			<path class="st5" d="M48,164.7c-13.5,0-39.5-8.3-36.3-41c0.7-6.8,3.6-14.6,7.2-23.6c3.4-8.5-1-18.1-2.9-24.9l24.8-0.4l31.6-0.6
				c-2,7-5,16.2-1.4,25.1c21.1,52.1-7,65.4-23.2,65.4"/>
			<g class="st5">
				<path d="M39.5,174.1C39.4,174.1,39.4,174.1,39.5,174.1c-0.1,0-0.1,0-0.2,0H39.5z"/>
				<path d="M9.3,78.5L9.3,78.5C10.2,82,10.9,86,11,90.2C11,86,10.3,82,9.3,78.5z"/>
				<path d="M39.4,164C39.4,164,39.4,164,39.4,164L39.4,164C39.3,164,39.4,164,39.4,164c-12.3,0-35.5-7.3-37.1-32.2
					c-1.8,33,23.9,42.3,37.1,42.3c13.2,0,39-9.3,37.2-42.3C74.9,156.7,51.7,163.9,39.4,164z"/>
			</g>
			<polyline class="st5" points="20.9,77.8 11.5,15 19.2,13.8 29.3,77.4 			"/>
			<polygon class="st5" points="67.9,21.3 61.2,35 88.5,62.8 110,26.8 			"/>
			<path class="st5" d="M104.7,15.7c0,0,1.3-10.2-11.6-8.8s-10.4,9.4-10.4,9.4S83.5,25,93.7,25C103.8,25,104.7,15.7,104.7,15.7z"/>
		</g>
		<g id="linjer">
			<g>
				<path class="st6" d="M14.9,76.6l-1.4-9.5H7.6c1,2.2,2.4,5.5,3.5,9.5H14.9z"/>
				<path class="st6" d="M39.5,166.1C39.5,166.1,39.5,166.1,39.5,166.1C39.5,166.1,39.4,166.1,39.5,166.1c-0.1,0-0.1,0-0.1,0
					c0,0,0,0,0,0c-9,0-23.1-4.4-31.7-14.3c1.4,3.1,3.2,6,5.5,8.5c7.7,8.5,19,11.5,26.3,11.6c7,0,20.8-3.2,28.9-14.9
					c1.1-1.6,2-3.3,2.8-5C62.5,161.8,48.5,166.1,39.5,166.1z"/>
				<polygon class="st6" points="13.8,16.2 10.3,16.8 17.2,62.8 21.2,62.8 				"/>
				<polygon class="st6" points="58.1,76.6 62.6,67.1 39.5,67.1 39.3,67.1 26.2,67.1 27.7,76.6 				"/>
				<polygon class="st6" points="21.9,67.1 17.9,67.1 19.3,76.6 23.4,76.6 				"/>
				<path class="st6" d="M66.1,219c-7.1-4.7-18.6-7.7-26.8-7.7c-8.2,0-19.5,3-26.5,7.7H66.1z"/>
				<path class="st6" d="M98.3,15.4c0-0.1,0.3-2.7-1.3-4.6c-1.2-1.3-3.1-2-5.8-2c-0.7,0-1.4,0-2.1,0.1c-4,0.5-6.8,1.6-8,3.4
					c-1,1.5-0.6,3.1-0.6,3.2c0,0.1,0.1,0.3,0.1,0.4c0.1,0.6,0.7,4.9,5.4,6.4l3.5,0.5C97.5,22.8,98.3,15.7,98.3,15.4z"/>
				<path class="st6" d="M85.2,26.7l-23.2-3l-5.3,10.9l24.2,24.7l18.4-30.8l-10.1-1.3C87.7,27.2,86.4,27,85.2,26.7z"/>
				<path class="st6" d="M67.3,76.6c0.1,0,0.3,0,0.4,0c1.1-4,2.5-7.3,3.5-9.6h-3.8l-4.5,9.5H67.3z"/>
				<path class="st6" d="M66.7,80.9H12.1c1.4,7.1,1.7,15.7-1.5,24.1c-3.4,8.9-5.4,17.2-6.1,24.6c-0.1,0.7-0.1,1.4-0.1,2
					c0,0.1,0,0.1,0,0.2c0,22.8,25.6,29.9,35,29.9c9.4,0,35-7.1,35-29.9c0,0,0-0.1,0-0.1c-0.5-7.9-2.6-16.9-6.3-26.7
					C65,96.7,65.3,88.1,66.7,80.9z M61.3,119.3c-1-4.5-2.5-9.3-4.4-14.3c-0.4-1.1,0.1-2.4,1.2-2.8c1.1-0.4,2.4,0.1,2.8,1.3
					c1.9,5.1,3.5,10.1,4.6,14.8c0.3,1.2-0.5,2.3-1.6,2.6c-0.2,0-0.3,0.1-0.5,0.1C62.4,121,61.5,120.3,61.3,119.3z M67.4,138.9
					c-0.1,1.1-1,2-2.1,2c-0.1,0-0.1,0-0.2,0c-1.2-0.1-2.1-1.1-2-2.3c0.2-3.2,0.1-6.7-0.3-10.3c-0.1-1.2,0.7-2.3,1.9-2.4
					c1.2-0.1,2.2,0.7,2.4,1.9C67.6,131.7,67.6,135.4,67.4,138.9z"/>
				<path d="M63.9,120.9c1.2-0.3,1.9-1.4,1.6-2.6c-1.1-4.7-2.6-9.7-4.6-14.8c-0.4-1.1-1.7-1.7-2.8-1.3c-1.1,0.4-1.7,1.7-1.2,2.8
					c1.9,5,3.4,9.8,4.4,14.3c0.2,1,1.1,1.7,2.1,1.7C63.5,121,63.7,121,63.9,120.9z"/>
				<path d="M64.7,125.9c-1.2,0.1-2,1.2-1.9,2.4c0.4,3.6,0.5,7.1,0.3,10.3c-0.1,1.2,0.8,2.2,2,2.3c0.1,0,0.1,0,0.2,0
					c1.1,0,2.1-0.9,2.1-2c0.2-3.5,0.2-7.2-0.3-11.1C67,126.6,65.9,125.8,64.7,125.9z"/>
				<path d="M104.8,25.9c-0.3-0.7-0.9-1.1-1.7-1.2L98.4,24c2.8-2.5,4-5.9,4.2-8.1c0-0.2,0.6-4.6-2.4-7.9c-0.9-1.1-2.1-1.9-3.5-2.5
					L98,3.1c0.5-1.1,0.1-2.4-1-2.9c-1.1-0.5-2.4-0.1-2.9,1l-1.6,3.4c-1.2-0.1-2.5,0-3.8,0.1c-5.5,0.6-9.3,2.4-11.2,5.4
					c-1.8,2.8-1.3,5.6-1.1,6.5c0.2,1.3,0.7,3.1,1.7,4.7l-17-2.2c-0.9-0.1-1.8,0.4-2.2,1.2L52.1,34c-0.4,0.8-0.2,1.8,0.4,2.5l16.6,17
					l-4.5,9.3H39.5h-0.2H25.5l-7.8-49.4c-0.2-1.2-1.3-2-2.5-1.8l-7.7,1.2c-1.2,0.2-2,1.3-1.8,2.5l7.1,47.5H4.1
					c-0.8,0-1.5,0.4-1.9,1.1s-0.4,1.5,0,2.2c0.1,0.2,11.1,19.7,4.4,37.5c-3.5,9.3-5.6,17.9-6.4,25.7c-1.3,14.1,2,25.6,9.7,34
					c7.9,8.7,19.1,12.3,27.2,12.9V207c-10.9,0.6-25.5,5.3-31.8,12.7c0,0,0,0.1-0.1,0.1c0,0.1-0.1,0.1-0.1,0.2c0,0.1-0.1,0.1-0.1,0.2
					c0,0.1-0.1,0.1-0.1,0.2c0,0.1,0,0.1-0.1,0.2c0,0.1,0,0.1,0,0.2c0,0.1,0,0.2,0,0.2c0,0,0,0.1,0,0.1c0,0,0,0.1,0,0.1
					c0,0.1,0,0.1,0,0.2c0,0.1,0,0.1,0,0.2c0,0.1,0,0.1,0.1,0.2c0,0.1,0,0.1,0.1,0.2c0,0.1,0.1,0.1,0.1,0.2c0,0.1,0.1,0.1,0.1,0.2
					c0,0.1,0.1,0.1,0.1,0.2c0.1,0.1,0.1,0.1,0.2,0.2c0,0,0,0,0.1,0.1c0,0,0.1,0,0.1,0.1c0.1,0,0.1,0.1,0.2,0.1
					c0.1,0,0.1,0.1,0.2,0.1c0.1,0,0.1,0.1,0.2,0.1c0.1,0,0.2,0.1,0.2,0.1c0,0,0.1,0,0.1,0c0.1,0,0.3,0,0.4,0c0,0,0,0,0,0h64.9
					c0.1,0,0.1,0,0.2,0c0.1,0,0.1,0,0.1,0c0.1,0,0.2,0,0.3-0.1c0,0,0.1,0,0.1,0c0.1,0,0.2-0.1,0.3-0.1c0,0,0.1,0,0.1-0.1
					c0.1,0,0.2-0.1,0.2-0.2c0,0,0,0,0.1,0c0,0,0,0,0,0c0.1-0.1,0.1-0.1,0.2-0.2c0,0,0.1-0.1,0.1-0.1c0-0.1,0.1-0.1,0.1-0.2
					c0-0.1,0.1-0.1,0.1-0.2c0-0.1,0.1-0.1,0.1-0.2c0-0.1,0-0.1,0.1-0.2c0-0.1,0-0.1,0-0.2c0-0.1,0-0.1,0-0.2c0,0,0-0.1,0-0.1
					c0,0,0-0.1,0-0.1c0-0.1,0-0.2,0-0.2c0-0.1,0-0.1,0-0.2c0-0.1,0-0.2-0.1-0.2c0-0.1,0-0.1-0.1-0.2c0-0.1-0.1-0.1-0.1-0.2
					c0-0.1-0.1-0.1-0.1-0.2c0,0-0.1-0.1-0.1-0.1c-6.3-7.4-21-12.1-32.1-12.7v-30.8c9.6-0.6,22.5-5.2,30.4-16.7
					c9.2-13.4,9.3-32.2,0.3-56c-6.7-17.7,4.3-37.3,4.4-37.5c0.4-0.7,0.4-1.5,0-2.2s-1.1-1.1-1.9-1.1h-5.2l2.9-6.1l7.4,7.6
					c0.4,0.4,1,0.6,1.5,0.6c0.1,0,0.2,0,0.3,0c0.7-0.1,1.2-0.5,1.6-1l21.5-36C105,27.3,105.1,26.5,104.8,25.9z M39.3,67.1h0.2h23.2
					l-4.5,9.5H27.7l-1.5-9.5H39.3z M19.3,76.6l-1.4-9.5h4l1.5,9.5H19.3z M10.3,16.8l3.5-0.5l7.4,46.6h-4L10.3,16.8z M13.5,67.1
					l1.4,9.5h-3.9c-1.1-4-2.4-7.3-3.5-9.5H13.5z M39.3,211.3c8.2,0,19.7,3,26.8,7.7H12.8C19.8,214.3,31.1,211.3,39.3,211.3z
					 M39.4,171.9c-7.3,0-18.5-3-26.3-11.6c-2.3-2.5-4.1-5.4-5.5-8.5c8.6,9.9,22.7,14.2,31.7,14.3c0,0,0,0,0,0c0,0,0,0,0.1,0
					c0,0,0,0,0.1,0c0,0,0,0,0,0c9,0,23-4.4,31.6-14.1c-0.8,1.8-1.7,3.4-2.8,5C60.3,168.7,46.4,171.9,39.4,171.9z M74.4,131.8
					C74.4,131.8,74.4,131.9,74.4,131.8c0,22.9-25.6,30-35,30c-9.4,0-35-7.1-35-29.9c0-0.1,0-0.1,0-0.2c0-0.7,0.1-1.3,0.1-2
					c0.7-7.4,2.7-15.7,6.1-24.6c3.2-8.4,2.9-17,1.5-24.1h54.6c-1.4,7.1-1.7,15.7,1.5,24.1C71.9,114.9,74,123.9,74.4,131.8z
					 M71.2,67.1c-1,2.3-2.4,5.6-3.5,9.6c-0.1,0-0.3,0-0.4,0h-4.4l4.5-9.5H71.2z M80.6,16.1c0-0.1,0-0.3-0.1-0.4
					c0-0.1-0.5-1.7,0.6-3.2c1.2-1.8,4-3,8-3.4c0.8-0.1,1.5-0.1,2.1-0.1c2.7,0,4.6,0.7,5.8,2c1.6,1.8,1.3,4.5,1.3,4.6
					c0,0.3-0.8,7.4-8.8,7.4L86,22.4C81.3,21,80.6,16.6,80.6,16.1z M80.9,59.3L56.7,34.5L62,23.6l23.2,3c1.2,0.3,2.5,0.5,3.9,0.5
					l10.1,1.3L80.9,59.3z"/>
			</g>
		</g>
	</g>
</g>
</svg>
