<?xml version="1.0" encoding="utf-8"?>
<!-- Generator: Adobe Illustrator 23.0.1, SVG Export Plug-In . SVG Version: 6.00 Build 0)  -->
<svg version="1.1" id="Layer_1" xmlns="http://www.w3.org/2000/svg" xmlns:xlink="http://www.w3.org/1999/xlink" x="0px" y="0px"
	 viewBox="0 0 1981 1102" style="enable-background:new 0 0 1981 1102;" xml:space="preserve">
<style type="text/css">
	.st0{fill-rule:evenodd;clip-rule:evenodd;fill:url(#bg_1_);}
	.st1{fill:#7A472D;}
	.st2{fill:#422619;}
	.st3{fill:#2B735C;}
	.st4{fill:#469179;}
	.st5{fill:#945637;}
	.st6{fill:#CC7D56;}
	.st7{opacity:0.2;}
	.st8{fill:#5C3522;}
	.st9{fill:#6DBAA1;}
	.st10{fill:#FFDE9C;}
	.st11{fill:#E3A664;}
	.st12{fill:#AD7639;}
	.st13{fill:#CC8E4B;}
	.st14{fill:#FFF4C8;}
	.st15{font-family:'ChunkFive-Roman';}
	.st16{font-size:83.1499px;}
	.st17{fill:#8A5C45;}
	.st18{fill:#84E8F5;}
	.st19{fill:#00C1D9;}
	.st20{fill:#008A9C;}
	.st21{fill:#FFC654;}
	.st22{fill:#5D9E89;}
	.st23{fill:#FF6D29;}
	.st24{fill:#58A68D;}
	.st25{fill:#7F5C36;}
	.st26{fill:none;}
	.st27{fill:#C69C6D;}
	.st28{opacity:0.2;fill-rule:evenodd;clip-rule:evenodd;fill:#FFFFFF;}
	.st29{fill:none;stroke:#F73A00;stroke-width:8;stroke-miterlimit:10;}
	.st30{fill:#1BAFAF;}
	.st31{fill:#F4F7D2;}
	.st32{fill:#ED0A40;}
	.st33{fill:#FFFF00;}
	.st34{display:none;}
	.st35{display:inline;}
	.st36{fill:#3F1CAD;}
	.st37{fill-rule:evenodd;clip-rule:evenodd;fill:#F40FF4;}
	.st38{fill-rule:evenodd;clip-rule:evenodd;fill:#18EAD0;}
</style>
<linearGradient id="bg_1_" gradientUnits="userSpaceOnUse" x1="990.1496" y1="768" x2="990.1496" y2="-334" gradientTransform="matrix(1 0 0 1 0 334)">
	<stop  offset="1.980641e-02" style="stop-color:#E4D3BB"/>
	<stop  offset="0.1435" style="stop-color:#FAF2D9"/>
	<stop  offset="0.2589" style="stop-color:#FFF3E3"/>
	<stop  offset="0.4024" style="stop-color:#ECEFBD"/>
	<stop  offset="0.5686" style="stop-color:#D9A037"/>
	<stop  offset="0.7116" style="stop-color:#D7761B"/>
	<stop  offset="0.8507" style="stop-color:#751F18"/>
	<stop  offset="1" style="stop-color:#350816"/>
</linearGradient>
<rect id="bg" x="-0.4" y="0" class="st0" width="1981" height="1102"/>
<g id="TikiBar">
	<g id="PalmRight">
		<path class="st1" d="M1545.9,407.5c-2-10.9-5-21.5-8.3-31.3c-154,26-295.2,144.4-355.8,317.3c-35.9,102.4-37.8,207.4-11.8,300.3
			c14.2,1.1,28.7,0.6,42.6-1.2c16.9-2.2,34-6.4,49.6-13.6c-20.4-87.7-16.4-185.1,16.9-280C1327.9,560.1,1428.5,456.4,1545.9,407.5z"
			/>
		<path class="st2" d="M1264.5,658.8c-44.1,90.5-58.1,173-48.1,262.5c0.5,17.2-35,21.3-52,21.5c-1.8,0-3.7,0-5.6,0
			c2.8,17.3,6.6,34.3,11.2,51c14.2,1.1,28.7,0.6,42.6-1.2c16.9-2.2,34-6.4,49.6-13.6c-20.4-87.7-16.4-185.1,16.9-280
			c48.7-138.8,149.3-242.4,266.7-291.4c-0.1-0.6-0.3-1.2-0.4-1.8C1430.2,444.2,1325.8,532.9,1264.5,658.8z"/>
		<path class="st3" d="M1553.4,405.9c0,0-85.9-45.2-126.2,35c-46.6,92.7,16.9,193.2,16.9,193.2s-17.2-110.1,20.1-158.4
			C1506.7,420.8,1553.4,405.9,1553.4,405.9z"/>
		<path class="st3" d="M1530.3,397.1c0,0,71-147.6-33.5-225.8C1351,62,1176.1,128.7,1176.1,128.7s195.5,9.2,265.4,90.4
			C1521.1,311.6,1530.3,397.1,1530.3,397.1z"/>
		<path class="st4" d="M1530.4,399.6c0,0,1.4-163.8-126.4-190.1c-178.5-36.8-308.3,98-308.3,98s180.8-74.9,278.7-31.2
			C1485.7,326.1,1530.4,399.6,1530.4,399.6z"/>
		<path class="st3" d="M1530.1,400.4c0,0-66.6-149.6-193.8-120.6c-177.7,40.5-240,217-240,217s133.5-143.1,240.7-143.8
			C1459,352.1,1530.1,400.4,1530.1,400.4z"/>
		<path class="st4" d="M1533.2,397.7c0,0-32-160.6,88.6-210.4c168.4-69.5,321.2,38.6,321.2,38.6s-191.7-39.7-279.6,21.5
			C1563.4,317.1,1533.2,397.7,1533.2,397.7z"/>
		<path class="st4" d="M1530.2,400.2c0,0-110.5-91.3-198.9-19c-123.4,101-103.5,263.5-103.5,263.5s48.9-164.2,132.6-206.5
			C1455.6,390,1530.2,400.2,1530.2,400.2z"/>
		<path class="st3" d="M1529.1,396.3c0,0,36.7-159.6,167.2-155.5c182.1,5.7,277.1,167,277.1,167s-158.5-114.9-263.8-95.1
			C1589.7,335.2,1529.1,396.3,1529.1,396.3z"/>
		<path class="st4" d="M1527.5,398.1c0,0,101.2-128.8,217.5-69.5c162.4,82.7,179.6,269.1,179.6,269.1s-94.5-171.4-198.2-198.4
			C1608.3,368.6,1527.5,398.1,1527.5,398.1z"/>
		<path class="st3" d="M1527.2,398.9c0,0,145.5-75.3,226.7,26.8c113.5,142.6,52,319.3,52,319.3s-14.9-195.2-98.2-262.6
			C1612.9,405.6,1527.2,398.9,1527.2,398.9z"/>
		<path class="st4" d="M1527.3,398.7c0,0,143.3-2.3,167.2,109.4c33.4,155.9-83.7,270.5-83.7,270.5s64.3-158.8,25.4-244.1
			C1591.9,437.4,1527.3,398.7,1527.3,398.7z"/>
		<path class="st3" d="M1528.1,396.3c0,0,101.7,45.9,81.5,132.5C1581.4,649.8,1461,691.7,1461,691.7s98-90.5,98.8-163.5
			C1560.8,445,1528.1,396.3,1528.1,396.3z"/>
		<path class="st4" d="M1526.6,395.4c0,0,81.2,83,3.1,156.7c-90.3,85.2-227.3,46.9-227.3,46.9s132.2-18,174.7-77.4
			C1525.6,454,1526.6,395.4,1526.6,395.4z"/>
	</g>
	<g id="palmLeft">
		<path class="st1" d="M504.2,292.9c3.7-12.5,8.5-24.5,13.4-35.6c176.8,48.8,327.6,203.9,377.8,413.2
			c29.7,123.9,19.4,246.9-22.1,352.3c-16.8-0.4-33.6-2.7-49.6-6.5c-19.5-4.6-39-11.6-56.3-21.8c34.3-100.1,41.2-214.3,13.6-329.2
			C740.8,497.2,635.6,364.1,504.2,292.9z"/>
		<path class="st2" d="M803.1,620.2c40.7,111,47.3,209,24.8,312.4c-2.6,20.1,38.3,29.1,58.2,31.4c2.2,0.3,4.3,0.5,6.5,0.7
			c-5.4,19.9-11.8,39.3-19.2,58.2c-16.8-0.4-33.6-2.7-49.6-6.5c-19.5-4.6-39-11.6-56.3-21.8c34.3-100.1,41.2-214.3,13.6-329.2
			c-40.3-168-145.5-301.1-276.9-372.3c0.2-0.7,0.4-1.3,0.6-2C635.1,349.6,746.5,465.8,803.1,620.2z"/>
		<path class="st3" d="M495.7,290.2c0,0,105.8-42.5,143.3,56c43.3,113.9-42.8,223.8-42.8,223.8s33.3-126.6-4.6-187.5
			C548.5,313.2,495.7,290.2,495.7,290.2z"/>
		<path class="st3" d="M523.7,282.7c0,0-65.3-180.9,66.1-259.9C773.2-87.4,969.6,11.3,969.6,11.3S740-1.2,648.7,85.3
			C544.7,183.9,523.7,282.7,523.7,282.7z"/>
		<path class="st4" d="M523.3,285.5c0,0,17.9-191.5,170.4-207c212.9-21.7,348.5,151.3,348.5,151.3s-202.4-109.1-321.9-69.7
			C584.3,205,523.3,285.5,523.3,285.5z"/>
		<path class="st3" d="M523.5,286.6c0,0,95.7-166.9,240.9-117.8c202.8,68.5,254.5,282.1,254.5,282.1S880,267.7,754.9,254.1
			C612.5,238.6,523.5,286.6,523.5,286.6z"/>
		<path class="st4" d="M520.3,283c0,0,56.5-183.9-78.4-256.4C253.4-74.7,62,33.3,62,33.3S290.6,9.8,386.1,91.9
			C494.7,185.3,520.3,283,520.3,283z"/>
		<path class="st4" d="M523.5,286.3c0,0,140-93.5,234.7,1.5c132.2,132.7,89.5,320.2,89.5,320.2S810.1,410.4,717.4,351
			C611.8,283.3,523.5,286.3,523.5,286.3z"/>
		<path class="st3" d="M525.3,281.8c0,0-23.9-190.9-176.8-201.6C135,65.1,4.8,242.2,4.8,242.2s198.9-115.3,319.6-79.6
			C461.8,203.3,525.3,281.8,525.3,281.8z"/>
		<path class="st4" d="M526.9,284.1c0,0-102.9-162.5-245.8-107.2c-199.6,77.3-242,292.9-242,292.9s130.8-189,255.2-208.1
			C436,240.1,526.9,284.1,526.9,284.1z"/>
		<path class="st3" d="M527.2,285.2c0,0-161-105.3-268.1,4.3c-149.6,153-98.8,366.9-98.8,366.9S201,430.1,306.3,361.2
			C426.2,282.8,527.2,285.2,527.2,285.2z"/>
		<path class="st4" d="M527.1,284.9c0,0-167.2-19.8-208.4,107.8c-57.6,178.2,65.5,326,65.5,326s-56.2-193.2-0.5-288.2
			C447,322.4,527.1,284.9,527.1,284.9z"/>
		<path class="st3" d="M526.4,282c0,0-124.3,41.5-111.1,145.1c18.5,144.7,154.3,208,154.3,208s-103.7-117.5-96-202.9
			C482.4,335,526.4,282,526.4,282z"/>
		<path class="st4" d="M528.2,281.1c0,0-104.8,87.3-22.3,182.7c95.4,110.3,260,81.9,260,81.9S613.7,508.9,571,434.4
			C522.5,349.7,528.2,281.1,528.2,281.1z"/>
	</g>
	<g id="Bar">
		<polygon class="st5" points="1470.3,1310.2 490.9,1310.2 531.9,872.1 1429.3,872.1 		"/>
		<polygon class="st6" points="1437.7,1310.2 523.5,1310.2 561.5,872.1 1399.7,872.1 		"/>
		<path class="st7" d="M703.9,974.7c243.1,0,570,53,748.4,142.2l-22.9-244.8H531.9l-10.6,112.8C580.6,978.2,641.6,974.7,703.9,974.7
			z"/>
		<polygon class="st7" points="1434.9,931.5 1429.3,872.1 531.9,872.1 526.3,931.5 		"/>
		<path class="st1" d="M1468.5,1337.6H492.7c-14.8,0-25.9-13.4-23.1-28l1.4-7.6c2.1-11.1,11.8-19.2,23.1-19.2H1467
			c11.3,0,21,8,23.1,19.2l1.4,7.6C1494.4,1324.1,1483.2,1337.6,1468.5,1337.6z"/>
		<path class="st8" d="M1490.2,1302c-0.2-0.9-0.4-1.7-0.6-2.5c-3.8,7.6-11.7,13-21.1,13H492.7c-9.3,0-17.2-5.4-21.1-13
			c-0.3,0.8-0.5,1.7-0.6,2.5l-1.4,7.6c-2.8,14.5,8.4,28,23.1,28h975.7c14.8,0,25.9-13.4,23.1-28L1490.2,1302z"/>
		<path class="st8" d="M1463.6,910.5h-966c-3.7,0-6.7-3-6.7-6.7V853c0-3.7,3-6.7,6.7-6.7h966c3.7,0,6.7,3,6.7,6.7v50.8
			C1470.3,907.5,1467.3,910.5,1463.6,910.5z"/>
		<path class="st2" d="M490.9,877.6h979.4c-0.4-17.4-14.6-31.4-32.1-31.4H523C505.5,846.3,491.3,860.2,490.9,877.6z"/>
		<path class="st1" d="M1511.7,867.2H449.4c-3.6,0-6.6-2.9-6.6-6.6V811c0-3.6,2.9-6.6,6.6-6.6h1062.3c3.6,0,6.6,2.9,6.6,6.6v49.6
			C1518.3,864.3,1515.4,867.2,1511.7,867.2z"/>
		<rect x="523.5" y="421.2" class="st8" width="43.8" height="383.3"/>
		<rect x="1393.9" y="421.2" class="st8" width="43.8" height="383.3"/>
		<rect x="656" y="421.2" class="st1" width="649.1" height="383.3"/>
		<rect x="685.3" y="421.2" class="st8" width="590.6" height="383.3"/>
		<path class="st9" d="M505.6,393.4v47.9c0,20.5-16.5,37.2-36.7,37.2l0,0c-20.2,0-36.7-16.7-36.7-37.2v-47.9H505.6z"/>
		<path class="st10" d="M579.1,393.4v47.9c0,20.5-16.5,37.2-36.7,37.2l0,0c-20.2,0-36.7-16.7-36.7-37.2v-47.9H579.1z"/>
		<path class="st9" d="M652.6,393.4v47.9c0,20.5-16.5,37.2-36.7,37.2l0,0c-20.2,0-36.7-16.7-36.7-37.2v-47.9H652.6z"/>
		<path class="st10" d="M726.1,393.4v47.9c0,20.5-16.5,37.2-36.7,37.2h0c-20.2,0-36.7-16.7-36.7-37.2v-47.9H726.1z"/>
		<path class="st9" d="M799.6,393.4v47.9c0,20.5-16.5,37.2-36.7,37.2h0c-20.2,0-36.7-16.7-36.7-37.2v-47.9H799.6z"/>
		<path class="st10" d="M873,393.4v47.9c0,20.5-16.5,37.2-36.7,37.2h0c-20.2,0-36.7-16.7-36.7-37.2v-47.9H873z"/>
		<path class="st9" d="M946.5,393.4v47.9c0,20.5-16.5,37.2-36.7,37.2h0c-20.2,0-36.7-16.7-36.7-37.2v-47.9H946.5z"/>
		<path class="st10" d="M1020,393.4v47.9c0,20.5-16.5,37.2-36.7,37.2h0c-20.2,0-36.7-16.7-36.7-37.2v-47.9H1020z"/>
		<path class="st9" d="M1093.5,393.4v47.9c0,20.5-16.5,37.2-36.7,37.2h0c-20.2,0-36.7-16.7-36.7-37.2v-47.9H1093.5z"/>
		<path class="st10" d="M1167,393.4v47.9c0,20.5-16.5,37.2-36.7,37.2h0c-20.2,0-36.7-16.7-36.7-37.2v-47.9H1167z"/>
		<path class="st9" d="M1240.5,393.4v47.9c0,20.5-16.5,37.2-36.7,37.2h0c-20.2,0-36.7-16.7-36.7-37.2v-47.9H1240.5z"/>
		<path class="st10" d="M1314,393.4v47.9c0,20.5-16.5,37.2-36.7,37.2h0c-20.2,0-36.7-16.7-36.7-37.2v-47.9H1314z"/>
		<path class="st9" d="M1387.5,393.4v47.9c0,20.5-16.5,37.2-36.7,37.2h0c-20.2,0-36.7-16.7-36.7-37.2v-47.9H1387.5z"/>
		<path class="st10" d="M1461,393.4v47.9c0,20.5-16.5,37.2-36.7,37.2h0c-20.2,0-36.7-16.7-36.7-37.2v-47.9H1461z"/>
		<path class="st9" d="M1534.5,393.4v47.9c0,20.5-16.5,37.2-36.7,37.2h0c-20.2,0-36.7-16.7-36.7-37.2v-47.9H1534.5z"/>
		<path class="st11" d="M441,421.2c-18.8,0-27.5-23.4-13.3-35.7c85.2-73.7,301.4-235.9,554.8-235.9s469.6,162.3,554.8,235.9
			c14.2,12.3,5.5,35.7-13.3,35.7H441z"/>
		<path class="st12" d="M1537.3,385.6c-11-9.5-24.1-20.4-39.2-32.3c-167.8,27.5-352.9,42.8-547.6,42.8
			c-174.2,0-340.7-12.2-494.1-34.5c-10.8,8.7-20.4,16.8-28.8,24c-14.2,12.3-5.5,35.7,13.3,35.7h1083
			C1542.8,421.2,1551.5,397.9,1537.3,385.6z"/>
		<path class="st12" d="M961.1,244.6c113.8,0,222.2-8.8,320.7-24.6c-19.3-8.8-39.2-17.1-59.8-24.7c-81.9,10.4-169.7,16.1-260.9,16.1
			c-79.3,0-155.9-4.3-228.4-12.2c-20.7,8-40.8,16.6-60.1,25.8C762.4,237.6,859.6,244.6,961.1,244.6z"/>
		<path class="st13" d="M961.1,349.1c169.6,0,327.2-19.5,457.8-52.9c-12.2-8-25-16.1-38.4-24.1c-122.6,27.7-266,43.7-419.4,43.7
			c-140.4,0-272.4-13.4-387.8-36.9c-13.5,8.3-26.4,16.7-38.6,24.9C658.8,332.5,804.8,349.1,961.1,349.1z"/>
		<ellipse class="st12" cx="980.9" cy="344.1" rx="155.8" ry="41"/>
		<path class="st14" d="M1101.4,363.3H860.4c-5.8,0-10.5-4.7-10.5-10.5V195.6c0-5.8,4.7-10.5,10.5-10.5h241.1
			c5.8,0,10.5,4.7,10.5,10.5v157.2C1112,358.6,1107.2,363.3,1101.4,363.3z"/>
		<path class="st1" d="M1090.2,349.9H871.6c-4.2,0-7.6-3.4-7.6-7.6V205.8c0-4.2,3.4-7.6,7.6-7.6h218.6c4.2,0,7.6,3.4,7.6,7.6v136.4
			C1097.8,346.4,1094.4,349.9,1090.2,349.9z"/>
		<text transform="matrix(1 0 0 1 910.5635 298.6473)" class="st14 st15 st16">BAR</text>
		<rect x="734.6" y="639.8" class="st17" width="189.2" height="30.3"/>
		<rect x="1029.8" y="681.8" class="st17" width="189.2" height="30.3"/>
		<g>
			<path class="st18" d="M793.9,639.8h-53.7c-3.1,0-5.6-2.5-5.6-5.6v-63.6c0-3.1,2.5-5.6,5.6-5.6h53.7c3.1,0,5.6,2.5,5.6,5.6v63.6
				C799.6,637.2,797,639.8,793.9,639.8z"/>
			<path class="st9" d="M743.6,589.7V616c0,9.9,8.1,17.9,17.9,17.9h11.1c9.9,0,17.9-8.1,17.9-17.9v-26.3H743.6z"/>
			<rect x="756.2" y="545.7" class="st19" width="21.8" height="19.2"/>
			<path class="st18" d="M784.3,547.6h-34.5c-1.1,0-1.9-0.9-1.9-1.9V531c0-1.1,0.9-1.9,1.9-1.9h34.5c1.1,0,1.9,0.9,1.9,1.9v14.7
				C786.2,546.8,785.4,547.6,784.3,547.6z"/>
		</g>
		<g>
			<path class="st19" d="M1191.8,681.8h-53.7c-3.1,0-5.6-2.5-5.6-5.6v-89.3c0-3.1,2.5-5.6,5.6-5.6h53.7c3.1,0,5.6,2.5,5.6,5.6v89.3
				C1197.4,679.2,1194.9,681.8,1191.8,681.8z"/>
			<path class="st4" d="M1141.4,606.1V658c0,9.9,8.1,17.9,17.9,17.9h11.1c9.9,0,17.9-8.1,17.9-17.9v-51.9H1141.4z"/>
			<rect x="1154" y="562" class="st20" width="21.8" height="19.2"/>
			<path class="st19" d="M1182.1,564h-34.5c-1.1,0-1.9-0.9-1.9-1.9v-14.7c0-1.1,0.9-1.9,1.9-1.9h34.5c1.1,0,1.9,0.9,1.9,1.9v14.7
				C1184.1,563.1,1183.2,564,1182.1,564z"/>
		</g>
		<g>
			<path class="st18" d="M881,639.8h-53.7c-3.1,0-5.6-2.5-5.6-5.6v-89.3c0-3.1,2.5-5.6,5.6-5.6H881c3.1,0,5.6,2.5,5.6,5.6v89.3
				C886.7,637.2,884.1,639.8,881,639.8z"/>
			<path class="st21" d="M830.7,564.1V616c0,9.9,8.1,17.9,17.9,17.9h11.1c9.9,0,17.9-8.1,17.9-17.9v-51.9H830.7z"/>
			<rect x="843.3" y="520" class="st19" width="21.8" height="19.2"/>
			<path class="st18" d="M871.4,522H837c-1.1,0-1.9-0.9-1.9-1.9v-14.7c0-1.1,0.9-1.9,1.9-1.9h34.5c1.1,0,1.9,0.9,1.9,1.9V520
				C873.3,521.1,872.5,522,871.4,522z"/>
		</g>
		<g>
			<rect x="1061.4" y="540.6" class="st22" width="21.8" height="49"/>
			<path class="st9" d="M1086.9,681.8h-29.1c-9.9,0-17.9-8.1-17.9-17.9v-42.6c0-9.9,19.2-40,24.5-40h15.9c5.4,0,24.5,30.1,24.5,40
				v42.6C1104.8,673.7,1096.8,681.8,1086.9,681.8z"/>
			<path class="st23" d="M1048.9,628.2V658c0,9.9,8.1,17.9,17.9,17.9h11.1c9.9,0,17.9-8.1,17.9-17.9v-29.9H1048.9z"/>
			<path class="st9" d="M1089.6,542.5h-34.5c-1.1,0-1.9-0.9-1.9-1.9v-14.7c0-1.1,0.9-1.9,1.9-1.9h34.5c1.1,0,1.9,0.9,1.9,1.9v14.7
				C1091.5,541.7,1090.6,542.5,1089.6,542.5z"/>
		</g>
		<g>
			<rect x="874.7" y="739.3" class="st19" width="6" height="60.6"/>
			<path class="st18" d="M918.6,721.3l-38.3,34.2c-1.5,1.3-3.7,1.3-5.2,0l-38.3-34.2c-2.7-2.4-1-6.8,2.6-6.8H916
				C919.6,714.5,921.3,718.9,918.6,721.3z"/>
			<path class="st24" d="M859.8,735.6l16,14.3c1.1,1,2.7,1,3.8,0l16-14.3H859.8z"/>
			<path class="st18" d="M894.9,804.5h-34.4c-0.5,0-1-0.4-1-1v-7.2c0-0.5,0.4-1,1-1h34.4c0.5,0,1,0.4,1,1v7.2
				C895.8,804,895.4,804.5,894.9,804.5z"/>
			<path class="st19" d="M891.2,799.9h-27.1c-1.7,0-3.1-0.9-3.9-2.3c-0.4,0.7-0.6,1.5-0.6,2.3c0,2.5,2.1,4.6,4.6,4.6h27.1
				c2.5,0,4.6-2.1,4.6-4.6c0-0.8-0.2-1.6-0.6-2.3C894.4,799,892.9,799.9,891.2,799.9z"/>
		</g>
		<g>
			<rect x="743.3" y="739.3" class="st19" width="6" height="60.6"/>
			<path class="st18" d="M787.2,721.3l-38.3,34.2c-1.5,1.3-3.7,1.3-5.2,0l-38.3-34.2c-2.7-2.4-1-6.8,2.6-6.8h76.7
				C788.2,714.5,789.9,718.9,787.2,721.3z"/>
			<path class="st17" d="M740.8,742.8l-0.2,0.2c-0.3,0.3-0.9,0.3-1.2,0l-40.5-40.5c-0.3-0.3-0.3-0.9,0-1.2l0.2-0.2
				c0.3-0.3,0.9-0.3,1.2,0l40.5,40.5C741.1,741.9,741.1,742.4,740.8,742.8z"/>
			<path class="st21" d="M722.9,731.1l20.1,18c1.8,1.6,4.6,1.6,6.5,0l20.1-18H722.9z"/>
			<path class="st23" d="M738.7,689.3l-36.2,5.9c-3.3,0.5-6.8,3.3-8,6.4l-13.8,34L738.7,689.3z"/>
			<path class="st18" d="M763.5,804.5h-34.4c-0.5,0-1-0.4-1-1v-7.2c0-0.5,0.4-1,1-1h34.4c0.5,0,1,0.4,1,1v7.2
				C764.4,804,764,804.5,763.5,804.5z"/>
			<path class="st19" d="M759.8,799.9h-27.1c-1.7,0-3.1-0.9-3.9-2.3c-0.4,0.7-0.6,1.5-0.6,2.3c0,2.5,2.1,4.6,4.6,4.6h27.1
				c2.5,0,4.6-2.1,4.6-4.6c0-0.8-0.2-1.6-0.6-2.3C763,799,761.5,799.9,759.8,799.9z"/>
		</g>
		<g>
			<path class="st19" d="M1121.5,744.9v41.7c0,9.9,8.1,17.9,17.9,17.9h29.1c9.9,0,17.9-8.1,17.9-17.9v-41.7H1121.5z"/>
			<path class="st21" d="M1130.5,762.9v17.8c0,9.9,8.1,17.9,17.9,17.9h11.1c9.9,0,17.9-8.1,17.9-17.9v-17.8H1130.5z"/>
		</g>
		<g>
			<path class="st9" d="M964.8,696.9V791c0,7.4,6,13.4,13.4,13.4h21.8c7.4,0,13.4-6,13.4-13.4v-94.1H964.8z"/>
			<path class="st23" d="M971.6,736.3v50.4c0,7.4,6,13.4,13.4,13.4h8.3c7.4,0,13.4-6,13.4-13.4v-50.4H971.6z"/>
		</g>
	</g>
</g>
<g id="Coconut">
	<g id="Ball">
		<ellipse class="st25" cx="971.3" cy="632.7" rx="14.4" ry="13.4"/>
		<path class="st26" d="M983.8,626.8l-1.3,0.6c-0.1,0-0.1,0-0.1,0c-0.1,0-0.2-0.1-0.2-0.1c-0.1-0.1,0-0.3,0.1-0.4l1.3-0.6
			c-0.1-0.1-0.1-0.2-0.1-0.3l-1.3,0.6c-0.1,0-0.1,0-0.1,0c-0.1,0-0.2-0.1-0.2-0.1c-0.1-0.1,0-0.3,0.1-0.4l1.3-0.6
			c-0.1-0.1-0.1-0.2-0.2-0.4l-1.3,0.6c-0.1,0-0.1,0-0.1,0c-0.1,0-0.2-0.1-0.2-0.1c-0.1-0.1,0-0.3,0.1-0.4l1.3-0.6
			c-2.5-3-6.4-4.8-11.2-4.8c-4.4,0-8.1,1.6-10.6,4.1c0.6,0.4,1.8,1,3.6,0.9c0.1,0,0.3,0.1,0.3,0.3c0,0.1-0.1,0.3-0.3,0.3
			c-0.1,0-0.1,0-0.3,0c-1.9,0-3.1-0.6-3.7-1.1c-1.8,2.1-2.8,4.7-2.8,7.6c0,4.6,2.5,8.6,6.2,11c-1.8-1.9-2.8-3.8-2.8-3.9
			c-0.1-0.1,0-0.3,0.1-0.4s0.3,0,0.4,0.1c0,0,1.6,2.9,4.1,5.1c1.8,0.8,3.8,1.3,5.9,1.3c7.6,0,13.9-5.9,13.9-13.2
			C985.1,630.2,984.6,628.3,983.8,626.8z M967,622.2c-0.8,0.7-2.8,0.8-2.9,0.8l0,0c-0.1,0-0.3-0.1-0.3-0.2c0-0.1,0.1-0.3,0.3-0.3
			c0.5,0,2-0.2,2.6-0.7c0.1-0.1,0.3-0.1,0.4,0C967.1,621.9,967.1,622.1,967,622.2z M974.4,622.1l-0.6,1.2c-0.1,0.1-0.1,0.1-0.3,0.1
			c-0.1,0-0.1,0-0.1,0c-0.1-0.1-0.2-0.2-0.1-0.4l0.6-1.2c0.1-0.1,0.2-0.2,0.4-0.1C974.4,621.8,974.5,622,974.4,622.1z M978,642.7
			c-0.5,0.4-1.1,0.6-1.6,0.9c-0.1,0-0.1,0.1-0.2,0.1c-0.1,0-0.3-0.1-0.4-0.2c-0.1-0.2,0-0.4,0.1-0.5c0.5-0.3,1.1-0.6,1.5-0.8
			c0.2-0.1,0.4-0.1,0.6,0.1C978.2,642.3,978.1,642.5,978,642.7z M979.3,641.7c-0.1,0.1-0.1,0.1-0.3,0.1c-0.1,0-0.2-0.1-0.3-0.1
			c-0.1-0.1-0.1-0.4,0-0.6c3-2.6,4-5.7,4-5.8c0.1-0.2,0.3-0.4,0.5-0.3s0.4,0.3,0.3,0.5C983.4,635.7,982.5,638.9,979.3,641.7z"/>
		<path d="M956,632.1c0,8,6.8,14.5,15.2,14.5s15.2-6.5,15.2-14.5c0-3.8-1.6-7.3-4.5-9.8c-2.8-2.4-6.6-3.7-10.7-3.7"/>
		<path d="M971.2,618.7c-4.1,0-7.9,1.3-10.7,3.7c-2.9,2.5-4.5,5.9-4.5,9.8"/>
		<path class="st27" d="M965.5,621.2c1.9-0.8,4-1.3,5.9-1.3c3.3,0.9,5.9,2.9,5.9,2.9c0.1,0.1,0.3,0.1,0.4-0.1
			c0.1-0.1,0.1-0.3-0.1-0.4c-0.1-0.1-1.9-1.3-4.3-2.4c4.4,0.6,8.4,3.3,10.5,7.4c1.3,2.7,1.6,5.5,0.8,8.1c-0.8-0.1-2.1-0.1-3.8,0.6
			c-0.1,0-0.1,0.1-0.2,0.1c-0.1,0.1-0.2,0.2-0.1,0.4c0.1,0.1,0.2,0.2,0.4,0.1c1.6-0.8,3-0.8,3.7-0.6c-1.1,3.3-3.7,6.2-7.7,8.1
			c-4.3,2-8.8,2-12.4,0.3l0.8-1.1c0.1-0.1,0.1-0.3-0.1-0.4c-0.1-0.1-0.2-0.1-0.3,0c-0.1,0-0.1,0.1-0.1,0.1l-0.9,1.1
			c-0.1-0.1-0.2-0.1-0.4-0.2l0.9-1.1c0.1-0.1,0.1-0.3-0.1-0.4c-0.1-0.1-0.2-0.1-0.3,0c-0.1,0-0.1,0.1-0.1,0.1l-0.9,1.1
			c-0.1-0.1-0.2-0.1-0.3-0.2l0.9-1.1c0.1-0.1,0.1-0.3-0.1-0.4c-0.1-0.1-0.2-0.1-0.3,0c-0.1,0-0.1,0.1-0.1,0.1l-0.9,1.1
			c-1.5-1.1-2.7-2.5-3.6-4.3C955.6,632.3,958.6,624.4,965.5,621.2z"/>
		<path d="M977.5,642c-0.5,0.4-1,0.6-1.5,0.8c-0.2,0.1-0.3,0.4-0.1,0.5c0.1,0.1,0.2,0.2,0.4,0.2c0.1,0,0.1,0,0.2-0.1
			c0.6-0.3,1.1-0.6,1.6-0.9c0.2-0.1,0.2-0.4,0.1-0.6C977.9,642,977.7,641.9,977.5,642z"/>
		<path d="M983.1,635c-0.2-0.1-0.4,0.1-0.5,0.3c0,0-0.9,3.2-4,5.8c-0.1,0.1-0.2,0.4,0,0.6c0.1,0.1,0.2,0.1,0.3,0.1
			c0.1,0,0.2,0,0.3-0.1c3.3-2.8,4.2-6,4.2-6.2C983.5,635.3,983.4,635.1,983.1,635z"/>
		<path d="M974.2,621.7c-0.1-0.1-0.3,0-0.4,0.1l-0.6,1.2c-0.1,0.1,0,0.3,0.1,0.4c0.1,0,0.1,0,0.1,0c0.1,0,0.2-0.1,0.3-0.1l0.6-1.2
			C974.5,622,974.4,621.8,974.2,621.7z"/>
		<path d="M966.6,621.8c-0.6,0.5-2.1,0.7-2.6,0.7c-0.1,0-0.3,0.1-0.3,0.3s0.1,0.2,0.3,0.2l0,0c0.1,0,2.1-0.1,2.9-0.8
			c0.1-0.1,0.1-0.3,0-0.4C966.9,621.7,966.7,621.7,966.6,621.8z"/>
	</g>
</g>
<g id="bane">
	<rect x="361" y="313.9" class="st28" width="1228" height="658.6"/>
	<line id="bottum_x5F_bande" class="st29" x1="1589" y1="976" x2="361" y2="976"/>
	<line id="top_x5F_bande" class="st29" x1="361" y1="310" x2="1589" y2="310"/>
</g>
<g id="pinaCola_x5F_right">
	<g>
		<polygon id="straw" class="st30" points="1751.9,837.1 1744.5,838.4 1733.8,774.6 1741.2,773.3 		"/>
		<path id="the_drink" class="st31" d="M1791.5,916.4l-21,5.8c-0.5,0-18.8-2.8-19.3-3.1c-7.7-5.3-21-20.3-20.6-18.1l2.8-29.7
			c3.2-1.6,3.2-15.2,3.4-15.9c2.6-7.1-3-16.7,1.5-16.7l55.9-0.8c1.4,0,2.5,1.3,2.3,2.7c-1.5,9.3,1.9,33.6,6.7,37.3
			c0.6,0.5,1,1.2,1,2l-1.3,24.1c0,4.1-8,10.4-10.1,12C1792.4,916.2,1792,916.4,1791.5,916.4z"/>
		<path id="coctailberry" class="st32" d="M1817.4,783.3l-3.7,0c-4.8,0-8.8-3.9-8.9-8.7l0-0.4c0-4.8,3.9-8.8,8.7-8.9l3.7,0
			c4.8,0,8.8,3.9,8.9,8.7l0,0.4C1826.2,779.3,1822.2,783.2,1817.4,783.3z"/>
		<polygon id="pineapple" class="st33" points="1781.8,795.3 1788.4,779 1828.1,785.4 1809.5,819.3 		"/>
		<g id="outline">
			<g id="fyld" class="st34">
				<path class="st35" d="M1775.9,923.3c-13.5,0.1-39.6-8-36.6-40.7c0.7-6.8,3.5-14.6,7-23.6c3.3-8.5-1.1-18.1-3.1-24.9l24.8-0.6
					l31.6-0.8c-2,7-4.9,16.2-1.2,25.1c21.5,52-6.5,65.4-22.7,65.6"/>
				<g class="st35">
					<path d="M1767.5,932.8C1767.4,932.8,1767.4,932.8,1767.5,932.8c-0.1,0-0.1,0-0.2,0L1767.5,932.8z"/>
					<path d="M1736.6,837.4L1736.6,837.4c0.9,3.5,1.6,7.5,1.7,11.7C1738.4,845,1737.6,840.9,1736.6,837.4z"/>
					<path d="M1767.3,922.7L1767.3,922.7L1767.3,922.7C1767.2,922.7,1767.3,922.7,1767.3,922.7c-12.3,0.1-35.5-7.1-37.3-31.9
						c-1.6,33,24.2,42.1,37.4,42c13.2-0.1,38.9-9.6,36.9-42.6C1802.8,915.3,1779.6,922.6,1767.3,922.7z"/>
				</g>
				<polyline class="st35" points="1748.2,836.7 1738.4,773.9 1746.1,772.6 1756.6,836.3 				"/>
				<polygon class="st35" points="1794.8,779.8 1788.2,793.6 1815.7,821.2 1837,785.1 				"/>
				<path class="st35" d="M1831.6,774c0,0,1.2-10.2-11.7-8.7c-12.9,1.5-10.3,9.5-10.3,9.5s0.9,8.8,11,8.7
					C1830.7,783.4,1831.6,774,1831.6,774z"/>
			</g>
			<g id="linjer">
				<g>
					<path class="st26" d="M1742.2,835.6l-1.5-9.5l-5.9,0c1,2.2,2.4,5.5,3.6,9.5L1742.2,835.6z"/>
					<path class="st26" d="M1767.4,924.9L1767.4,924.9C1767.4,924.9,1767.3,924.9,1767.4,924.9
						C1767.3,924.9,1767.3,924.9,1767.4,924.9L1767.4,924.9c-9.1,0.1-23.2-4.2-31.9-14.1c1.4,3.1,3.2,6,5.6,8.5
						c7.8,8.4,19.1,11.4,26.4,11.4c7,0,20.8-3.3,28.8-15.1c1.1-1.6,2-3.3,2.8-5C1790.4,920.3,1776.4,924.7,1767.4,924.9z"/>
					<polygon class="st26" points="1740.7,775.2 1737.2,775.7 1744.4,821.7 1748.4,821.6 					"/>
					<polygon class="st26" points="1785.4,835.3 1789.8,825.7 1766.7,825.9 1766.5,825.9 1753.4,826 1755,835.5 					"/>
					<polygon class="st26" points="1749.1,826 1745.1,826.1 1746.6,835.5 1750.7,835.5 					"/>
					<path class="st26" d="M1794.4,977.5c-7.1-4.7-18.7-7.6-26.9-7.5c-8.2,0.1-19.5,3.1-26.4,7.9L1794.4,977.5z"/>
					<path class="st26" d="M1825.2,773.8c0-0.1,0.3-2.7-1.3-4.6c-1.2-1.3-3.1-2-5.8-2c-0.7,0-1.4,0-2.1,0.1c-4,0.5-6.8,1.6-8,3.5
						c-1,1.5-0.6,3.1-0.6,3.2c0,0.1,0.1,0.3,0.1,0.4c0.1,0.6,0.7,4.9,5.4,6.4l3.5,0.5C1824.4,781.2,1825.2,774.1,1825.2,773.8z"/>
					<path class="st26" d="M1812.2,785.1l-23.2-2.8l-5.2,10.9l24.4,24.5l18.2-30.9l-10.1-1.2
						C1814.7,785.6,1813.4,785.4,1812.2,785.1z"/>
					<path class="st26" d="M1794.6,835.2c0.1,0,0.3,0,0.4,0c1.1-4,2.4-7.3,3.4-9.6l-3.8,0l-4.4,9.5L1794.6,835.2L1794.6,835.2z"/>
					<path class="st26" d="M1794,839.5l-54.6,0.4c1.4,7.1,1.8,15.7-1.3,24.1c-3.3,8.9-5.3,17.2-5.9,24.6c-0.1,0.7-0.1,1.4-0.1,2
						c0,0.1,0,0.1,0,0.2c0.2,22.8,25.8,29.7,35.2,29.7s35-7.3,34.8-30.1l0-0.1c-0.6-7.9-2.7-16.9-6.5-26.7
						C1792.4,855.2,1792.7,846.6,1794,839.5z M1788.9,878c-1-4.5-2.6-9.3-4.5-14.3c-0.4-1.1,0.1-2.4,1.2-2.8s2.4,0.1,2.8,1.3
						c1.9,5.1,3.6,10.1,4.7,14.8c0.3,1.2-0.5,2.3-1.6,2.6c-0.2,0-0.3,0.1-0.5,0.1C1790,879.5,1789.1,879,1788.9,878z M1795.1,897.4
						c-0.1,1.1-1,2-2.1,2c-0.1,0-0.1,0-0.2,0c-1.2-0.1-2.1-1.1-2-2.3c0.2-3.2,0.1-6.7-0.4-10.3c-0.1-1.2,0.7-2.3,1.9-2.4
						c1.2-0.1,2.2,0.7,2.4,1.9C1795.3,890.2,1795.3,894,1795.1,897.4z"/>
					<path d="M1791.5,879.5c1.2-0.3,1.9-1.4,1.6-2.6c-1.1-4.7-2.7-9.7-4.7-14.8c-0.4-1.1-1.7-1.7-2.8-1.3c-1.1,0.4-1.7,1.7-1.2,2.8
						c1.9,5,3.5,9.8,4.5,14.3c0.2,1,1.1,1.7,2.1,1.7C1791.1,879.5,1791.3,879.5,1791.5,879.5z"/>
					<path d="M1792.3,884.5c-1.2,0.1-2,1.2-1.9,2.4c0.4,3.6,0.5,7.1,0.4,10.3c-0.1,1.2,0.8,2.2,2,2.3c0.1,0,0.1,0,0.2,0
						c1.1,0,2.1-0.9,2.1-2c0.2-3.5,0.2-7.2-0.4-11.1C1794.6,885.2,1793.5,884.3,1792.3,884.5z"/>
					<path d="M1831.8,784.2c-0.3-0.7-0.9-1.1-1.7-1.2l-4.7-0.6c2.8-2.5,4-5.9,4.1-8.1c0-0.2,0.6-4.6-2.5-7.9
						c-0.9-1.1-2.1-1.9-3.5-2.5l1.2-2.5c0.5-1.1,0.1-2.4-1-2.9s-2.4-0.1-2.9,1l-1.6,3.4c-1.2-0.1-2.5,0-3.8,0.1
						c-5.5,0.6-9.3,2.5-11.2,5.5c-1.8,2.8-1.3,5.6-1.1,6.5c0.2,1.3,0.7,3.1,1.7,4.7l-17-2.1c-0.9-0.1-1.8,0.4-2.2,1.2l-6.6,13.7
						c-0.4,0.8-0.2,1.8,0.4,2.5l16.7,16.9l-4.4,9.3l-25.2,0.2l-0.2,0l-13.8,0.1l-8.1-49.3c-0.2-1.2-1.3-2-2.5-1.8l-7.7,1.3
						c-1.2,0.2-2,1.3-1.8,2.5l7.4,47.4l-8.8,0.1c-0.8,0-1.5,0.4-1.9,1.1c-0.4,0.7-0.4,1.5,0,2.2c0.1,0.2,11.2,19.6,4.7,37.5
						c-3.4,9.3-5.5,17.9-6.2,25.7c-1.2,14.1,2.2,25.6,9.9,33.9c8,8.6,19.2,12.2,27.3,12.7l0.2,30.9c-10.9,0.7-25.5,5.5-31.7,12.9
						c0,0,0,0.1-0.1,0.1c0,0.1-0.1,0.1-0.1,0.2c0,0.1-0.1,0.1-0.1,0.2c0,0.1-0.1,0.1-0.1,0.2c0,0.1,0,0.1-0.1,0.2c0,0.1,0,0.1,0,0.2
						c0,0.1,0,0.2,0,0.2l0,0.1l0,0.1c0,0.1,0,0.1,0,0.2c0,0.1,0,0.1,0,0.2c0,0.1,0,0.1,0.1,0.2c0,0.1,0,0.1,0.1,0.2
						c0,0.1,0.1,0.1,0.1,0.2c0,0.1,0.1,0.1,0.1,0.2c0,0.1,0.1,0.1,0.1,0.2c0.1,0.1,0.1,0.1,0.2,0.2c0,0,0,0,0.1,0.1
						c0,0,0.1,0,0.1,0.1c0.1,0,0.1,0.1,0.2,0.1s0.1,0.1,0.2,0.1c0.1,0,0.1,0.1,0.2,0.1s0.2,0.1,0.2,0.1l0.1,0c0.1,0,0.3,0,0.4,0l0,0
						l64.9-0.4c0.1,0,0.1,0,0.2,0s0.1,0,0.1,0c0.1,0,0.2,0,0.3-0.1l0.1,0c0.1,0,0.2-0.1,0.3-0.1c0,0,0.1,0,0.1-0.1
						c0.1,0,0.2-0.1,0.2-0.2c0,0,0,0,0.1,0l0,0c0.1-0.1,0.1-0.1,0.2-0.2l0.1-0.1c0-0.1,0.1-0.1,0.1-0.2c0-0.1,0.1-0.1,0.1-0.2
						c0-0.1,0.1-0.1,0.1-0.2c0-0.1,0-0.1,0.1-0.2c0-0.1,0-0.1,0-0.2c0-0.1,0-0.1,0-0.2l0-0.1l0-0.1c0-0.1,0-0.2,0-0.2
						c0-0.1,0-0.1,0-0.2c0-0.1,0-0.2-0.1-0.2c0-0.1,0-0.1-0.1-0.2c0-0.1-0.1-0.1-0.1-0.2c0-0.1-0.1-0.1-0.1-0.2l-0.1-0.1
						c-6.4-7.4-21.1-12-32.2-12.5l-0.2-30.8c9.6-0.7,22.5-5.4,30.3-16.9c9.1-13.5,9.1-32.3-0.1-56c-6.8-17.7,4-37.3,4.1-37.5
						c0.4-0.7,0.4-1.5,0-2.2c-0.4-0.7-1.1-1.1-1.9-1.1l-5.2,0l2.9-6.1l7.5,7.5c0.4,0.4,1,0.6,1.5,0.6c0.1,0,0.2,0,0.3,0
						c0.7-0.1,1.2-0.5,1.6-1l21.3-36.1C1832,785.6,1832.1,784.9,1831.8,784.2z M1766.5,825.9l0.2,0l23.2-0.2l-4.4,9.5l-30.4,0.2
						l-1.6-9.5L1766.5,825.9z M1746.6,835.5l-1.5-9.5l4,0l1.6,9.5L1746.6,835.5z M1737.2,775.7l3.5-0.5l7.7,46.5l-4,0L1737.2,775.7z
						 M1740.7,826.1l1.5,9.5l-3.9,0c-1.1-4-2.5-7.3-3.6-9.5L1740.7,826.1z M1767.5,970c8.2-0.1,19.7,2.9,26.9,7.5l-53.3,0.4
						C1748.1,973.1,1759.3,970.1,1767.5,970z M1767.4,930.7c-7.3,0.1-18.5-2.9-26.4-11.4c-2.3-2.5-4.1-5.4-5.6-8.5
						c8.7,9.8,22.8,14,31.8,14.1l0,0c0,0,0,0,0.1,0c0.1,0,0,0,0.1,0l0,0c9-0.1,23-4.6,31.5-14.3c-0.8,1.8-1.7,3.4-2.8,5
						C1788.2,927.4,1774.4,930.7,1767.4,930.7z M1802.1,890.3C1802.1,890.4,1802.1,890.4,1802.1,890.3c0.2,22.9-25.4,30.2-34.8,30.2
						s-35-6.9-35.2-29.7c0-0.1,0-0.1,0-0.2c0-0.7,0.1-1.3,0.1-2c0.6-7.4,2.6-15.7,5.9-24.6c3.1-8.4,2.8-17,1.3-24.1l54.6-0.4
						c-1.4,7.1-1.6,15.7,1.7,24.1C1799.5,873.5,1801.6,882.4,1802.1,890.3z M1798.4,825.7c-1,2.3-2.4,5.6-3.4,9.6
						c-0.1,0-0.3,0-0.4,0l-4.4,0l4.4-9.5L1798.4,825.7L1798.4,825.7z M1807.5,774.5c0-0.1,0-0.3-0.1-0.4c0-0.1-0.5-1.7,0.6-3.2
						c1.2-1.8,4-3,8-3.5c0.8-0.1,1.5-0.1,2.1-0.1c2.7,0,4.6,0.7,5.8,2c1.6,1.8,1.3,4.5,1.3,4.6c0,0.3-0.7,7.4-8.7,7.5l-3.5-0.5
						C1808.2,779.4,1807.5,775.1,1807.5,774.5z M1808.1,817.7l-24.4-24.5l5.2-10.9l23.2,2.8c1.2,0.3,2.5,0.5,3.9,0.5l10.1,1.2
						L1808.1,817.7z"/>
				</g>
			</g>
		</g>
	</g>
</g>
<g id="pinaCola_x5F_left">
	<g>
		
			<rect id="straw_1_" x="181.8" y="809.3" transform="matrix(0.1604 -0.9871 0.9871 0.1604 -622.3815 894.5737)" class="st36" width="65.6" height="7.6"/>
		<path id="the_drink_1_" class="st31" d="M166,925.6l21.4,5.8c0.5,0,19.2-3,19.6-3.3c7.9-5.4,21.3-20.7,20.8-18.4l-3-30.1
			c-3.3-1.6-3.3-15.4-3.6-16.1c-2.6-7.2,3-16.9-1.6-16.9l-56.9-0.4c-1.5,0-2.6,1.3-2.3,2.7c1.6,9.5-1.8,34.1-6.5,37.8
			c-0.6,0.5-1,1.2-1,2l1.5,24.4c0,4.2,8.2,10.4,10.4,12C165.1,925.4,165.5,925.6,166,925.6z"/>
		<path id="coctailberry_1_" class="st32" d="M138.8,790.8h3.4c5,0,9.1-4.1,9.1-9.1l0,0c0-5-4.1-9.1-9.1-9.1h-3.4
			c-5,0-9.1,4.1-9.1,9.1l0,0C129.7,786.7,133.8,790.8,138.8,790.8z"/>
		<polygon id="pineapple_1_" class="st33" points="174.9,802.8 168.1,786.2 127.8,793.1 147,827.3 		"/>
		<g>
			<g id="fyld_1_" class="st34">
				<path class="st35" d="M182,932.5c-16.6,0-45.1-13.4-23.6-66.3c3.6-9,0.6-18.3-1.4-25.4l32.2,0.6l25.2,0.4
					c-1.9,7-6.4,16.7-2.9,25.3c3.7,9.1,6.7,17,7.3,23.9C222,924.2,195.6,932.6,182,932.5"/>
				<g class="st35">
					<path d="M190.7,942.1C190.7,942.1,190.6,942.1,190.7,942.1c-0.1,0-0.1,0-0.2,0H190.7z"/>
					<path d="M219.5,857.1c0.1-4.3,0.8-8.3,1.7-11.9l0,0C220.2,848.7,219.5,852.8,219.5,857.1z"/>
					<path d="M152.8,899.2c-1.8,33.4,24.3,42.9,37.8,42.9c13.4,0,39.6-9.5,37.8-42.9c-1.6,25.2-25.2,32.6-37.8,32.6h0.1h-0.2h0.1
						C178.1,931.8,154.5,924.4,152.8,899.2z"/>
				</g>
				<polyline class="st35" points="200.9,844.1 211.1,779.6 219,780.8 209.4,844.5 				"/>
				<polygon class="st35" points="118.8,792.8 140.7,829.3 168.4,801.1 161.6,787.2 				"/>
				<path class="st35" d="M135.4,791c10.3,0,11.1-8.9,11.1-8.9s2.6-8-10.6-9.5s-11.8,8.9-11.8,8.9S125.1,791,135.4,791z"/>
			</g>
			<g id="linjer_1_">
				<g>
					<path class="st26" d="M219.4,843.3c1.1-4,2.5-7.4,3.5-9.6h-6l-1.4,9.6H219.4z"/>
					<path class="st26" d="M158.3,919.7c0.8,1.8,1.8,3.5,2.9,5.1c8.2,11.9,22.3,15.1,29.4,15.1c7.4,0,18.9-3.1,26.7-11.7
						c2.3-2.6,4.2-5.4,5.6-8.6c-8.7,10-23.1,14.4-32.3,14.5l0,0c0,0,0,0-0.1,0c0,0,0,0-0.1,0l0,0C181.3,934,167.1,929.6,158.3,919.7
						z"/>
					<polygon class="st26" points="209.1,829.3 213.2,829.3 220.2,782.6 216.6,782.1 					"/>
					<polygon class="st26" points="202.5,843.3 204,833.6 190.7,833.6 190.5,833.6 167,833.6 171.6,843.3 					"/>
					<polygon class="st26" points="206.9,843.3 211,843.3 212.5,833.6 208.4,833.6 					"/>
					<path class="st26" d="M217.6,987.5c-7.1-4.8-18.6-7.8-27-7.8c-8.3,0-20,3.1-27.2,7.8H217.6z"/>
					<path class="st26" d="M139.7,788.8l3.5-0.5c4.8-1.5,5.5-5.9,5.5-6.5c0-0.1,0-0.3,0.1-0.4c0-0.1,0.5-1.7-0.6-3.2
						c-1.2-1.8-4-3-8.1-3.5c-0.8-0.1-1.5-0.1-2.2-0.1c-2.7,0-4.7,0.7-5.8,2c-1.6,1.8-1.4,4.6-1.4,4.6
						C130.7,781.6,131.6,788.7,139.7,788.8z"/>
					<path class="st26" d="M140,793.2l-10.3,1.3l18.7,31.2l24.6-25.1l-5.4-11.1l-23.6,3.1C142.8,793,141.5,793.2,140,793.2z"/>
					<path class="st26" d="M166.7,843.3l-4.6-9.6h-3.8c1.1,2.3,2.4,5.6,3.5,9.7c0.1,0,0.3,0,0.4,0h4.5V843.3z"/>
					<path class="st26" d="M161.4,872.1c-3.8,10-5.9,19.1-6.4,27.1v0.1c0,23.1,26,30.3,35.6,30.3s35.6-7.2,35.6-30.3
						c0-0.1,0-0.1,0-0.2c0-0.7-0.1-1.4-0.1-2c-0.7-7.5-2.8-15.9-6.2-24.9c-3.2-8.5-2.9-17.2-1.5-24.4h-55.5
						C164.3,854.9,164.6,863.6,161.4,872.1z M166.2,888.2c-0.2,0-0.3,0-0.5-0.1c-1.2-0.3-1.9-1.4-1.6-2.6c1.1-4.8,2.7-9.8,4.6-15
						c0.4-1.1,1.7-1.7,2.8-1.3c1.1,0.4,1.7,1.7,1.3,2.8c-1.9,5-3.4,9.9-4.5,14.4C168.1,887.5,167.2,888.2,166.2,888.2z M162.4,895.2
						c0.1-1.2,1.2-2.1,2.4-1.9c1.2,0.1,2.1,1.2,1.9,2.4c-0.4,3.7-0.5,7.2-0.3,10.4c0.1,1.2-0.8,2.3-2,2.3c-0.1,0-0.1,0-0.2,0
						c-1.1,0-2.1-0.9-2.2-2C161.9,902.8,162,899.1,162.4,895.2z"/>
					<path d="M166.2,888.2c1,0,1.9-0.7,2.1-1.7c1.1-4.6,2.6-9.4,4.5-14.4c0.4-1.1-0.1-2.4-1.3-2.8c-1.1-0.4-2.4,0.1-2.8,1.3
						c-2,5.2-3.5,10.3-4.6,15c-0.3,1.2,0.5,2.4,1.6,2.6C165.9,888.2,166,888.2,166.2,888.2z"/>
					<path d="M162.4,895.2c-0.4,3.9-0.5,7.7-0.3,11.2c0.1,1.2,1,2,2.2,2c0.1,0,0.1,0,0.2,0c1.2-0.1,2.1-1.1,2-2.3
						c-0.2-3.3-0.1-6.8,0.3-10.4c0.1-1.2-0.7-2.3-1.9-2.4C163.6,893.1,162.5,894,162.4,895.2z"/>
					<path d="M124.2,793.9l21.9,36.5c0.3,0.6,0.9,1,1.6,1c0.1,0,0.2,0,0.3,0c0.6,0,1.1-0.2,1.6-0.7l7.5-7.7l2.9,6.1h-5.3
						c-0.8,0-1.5,0.4-1.9,1.1s-0.4,1.5,0,2.2c0.1,0.2,11.3,20,4.5,38c-9.1,24.1-9,43.2,0.3,56.7c8,11.7,21.2,16.3,30.9,16.9v31.2
						c-11.3,0.6-26.2,5.4-32.6,12.9l-0.1,0.1c0,0-0.1,0.1-0.1,0.2c0,0.1-0.1,0.1-0.1,0.2c0,0.1-0.1,0.1-0.1,0.2
						c0,0.1-0.1,0.2-0.1,0.2c0,0.1,0,0.1,0,0.2c0,0.1,0,0.2,0,0.2v0.1v0.1c0,0.1,0,0.1,0,0.2c0,0.1,0,0.1,0,0.2c0,0.1,0,0.1,0.1,0.2
						c0,0.1,0.1,0.2,0.1,0.2c0,0.1,0.1,0.1,0.1,0.2c0,0.1,0.1,0.1,0.1,0.2l0.1,0.1c0.1,0.1,0.1,0.1,0.2,0.2l0,0c0,0,0,0,0.1,0
						c0.1,0.1,0.2,0.1,0.2,0.2c0,0,0.1,0,0.1,0.1c0.1,0,0.2,0.1,0.3,0.1h0.1c0.1,0,0.2,0,0.3,0.1c0.1,0,0.1,0,0.2,0s0.1,0,0.2,0h66
						l0,0c0.1,0,0.3,0,0.4,0s0.1,0,0.2,0s0.2,0,0.2-0.1c0.1,0,0.1,0,0.2-0.1c0.1,0,0.1-0.1,0.2-0.1s0.1-0.1,0.2-0.1
						c0,0,0.1,0,0.1-0.1c0,0,0,0,0.1-0.1s0.1-0.1,0.2-0.2c0-0.1,0.1-0.1,0.1-0.2c0-0.1,0.1-0.1,0.1-0.2c0-0.1,0.1-0.1,0.1-0.2
						c0-0.1,0.1-0.1,0.1-0.2c0-0.1,0-0.1,0.1-0.2c0-0.1,0-0.1,0-0.2c0-0.1,0-0.2,0-0.2v-0.1v-0.1c0-0.1,0-0.2,0-0.2
						c0-0.1,0-0.1,0-0.2c0-0.1,0-0.1-0.1-0.2c0-0.1-0.1-0.1-0.1-0.2c0-0.1-0.1-0.1-0.1-0.2c0-0.1-0.1-0.1-0.1-0.2c0,0,0-0.1-0.1-0.1
						c-6.4-7.5-21.2-12.3-32.3-12.9v-31.3c8.2-0.6,19.6-4.2,27.7-13c7.8-8.6,11.2-20.2,9.9-34.5c-0.7-7.9-2.9-16.7-6.5-26.1
						c-6.8-18,4.4-37.8,4.5-38c0.4-0.7,0.4-1.5,0-2.2s-1.1-1.1-1.9-1.1h-8.9l7.2-48.1c0.2-1.2-0.6-2.3-1.8-2.5l-7.9-1.2
						c-1.2-0.2-2.3,0.6-2.5,1.8l-8,50h-14h-0.2H165l-4.5-9.5l16.9-17.2c0.7-0.7,0.8-1.7,0.4-2.5l-6.8-13.9c-0.4-0.8-1.3-1.3-2.2-1.2
						l-17.3,2.3c1-1.7,1.6-3.4,1.7-4.8c0.2-0.9,0.7-3.7-1.1-6.6c-2-3-5.8-4.9-11.4-5.5c-1.4-0.2-2.7-0.2-3.9-0.1l-1.7-3.5
						c-0.5-1.1-1.8-1.5-2.9-1s-1.6,1.8-1,2.9l1.2,2.5c-1.4,0.6-2.6,1.4-3.5,2.5c-3,3.4-2.4,7.8-2.4,8c0.2,2.3,1.4,5.7,4.3,8.2
						L126,790c-0.7,0.1-1.4,0.6-1.7,1.2C123.8,792.5,123.8,793.3,124.2,793.9z M204,833.6l-1.5,9.6h-30.9l-4.6-9.6h23.6h0.2H204z
						 M206.9,843.3l1.5-9.6h4.1l-1.4,9.6H206.9z M213.2,829.3h-4l7.5-47.2l3.5,0.5L213.2,829.3z M222.9,833.6
						c-1.1,2.3-2.4,5.6-3.5,9.6h-3.9l1.4-9.6H222.9z M217.6,987.5h-54.2c7.2-4.7,18.9-7.8,27.2-7.8
						C199.1,979.7,210.5,982.8,217.6,987.5z M161.2,924.8c-1.1-1.6-2.1-3.3-2.9-5.1c8.8,9.9,23,14.3,32.2,14.3l0,0c0,0,0,0,0.1,0
						c0,0,0,0,0.1,0l0,0c9.2,0,23.5-4.5,32.3-14.5c-1.4,3.2-3.3,6.1-5.6,8.6c-7.9,8.6-19.3,11.7-26.7,11.7
						C183.5,939.8,169.4,936.6,161.2,924.8z M161.4,872.1c3.2-8.5,2.9-17.2,1.5-24.4h55.5c-1.5,7.2-1.8,15.9,1.5,24.4
						c3.4,9,5.5,17.4,6.2,24.9c0.1,0.7,0.1,1.4,0.1,2c0,0.1,0,0.1,0,0.2c0,23.1-26,30.3-35.6,30.3s-35.6-7.2-35.6-30.3v-0.1
						C155.4,891.1,157.6,882.1,161.4,872.1z M162.1,833.6l4.6,9.6h-4.4c-0.2,0-0.3,0-0.4,0c-1.1-4-2.5-7.4-3.5-9.7h3.7L162.1,833.6
						L162.1,833.6z M143.2,788.3l-3.5,0.5c-8.1-0.1-8.9-7.2-9-7.5c0-0.1-0.3-2.8,1.4-4.6c1.2-1.3,3.1-2,5.8-2c0.7,0,1.4,0,2.2,0.1
						c4.1,0.5,6.9,1.7,8.1,3.5c1,1.5,0.6,3.2,0.6,3.2c0,0.1-0.1,0.3-0.1,0.4C148.6,782.5,148,786.9,143.2,788.3z M129.7,794.5
						l10.3-1.3c1.5,0,2.8-0.2,4-0.5l23.6-3.1l5.4,11.1l-24.6,25.1L129.7,794.5z"/>
				</g>
			</g>
		</g>
	</g>
</g>
<rect id="paddleLeft" x="361" y="556.7" class="st37" width="20" height="187"/>
<rect id="paddleRight" x="1569.1" y="543.9" class="st38" width="20" height="187"/>
</svg>
