<?xml version="1.0" encoding="utf-8"?>
<!-- Generator: Adobe Illustrator 23.0.1, SVG Export Plug-In . SVG Version: 6.00 Build 0)  -->
<svg version="1.1" id="Layer_1" xmlns="http://www.w3.org/2000/svg" xmlns:xlink="http://www.w3.org/1999/xlink" x="0px" y="0px"
	 viewBox="0 0 1981 1102" style="enable-background:new 0 0 1981 1102;" xml:space="preserve">
<style type="text/css">
	.st0{fill-rule:evenodd;clip-rule:evenodd;fill:url(#bg_1_);}
	.st1{fill:#7A472D;}
	.st2{fill:#422619;}
	.st3{fill:#2B735C;}
	.st4{fill:#469179;}
	.st5{fill:#945637;}
	.st6{fill:#CC7D56;}
	.st7{opacity:0.2;}
	.st8{fill:#5C3522;}
	.st9{fill:#6DBAA1;}
	.st10{fill:#FFDE9C;}
	.st11{fill:#E3A664;}
	.st12{fill:#AD7639;}
	.st13{fill:#CC8E4B;}
	.st14{fill:#FFF4C8;}
	.st15{fill:#8A5C45;}
	.st16{fill:#84E8F5;}
	.st17{fill:#00C1D9;}
	.st18{fill:#008A9C;}
	.st19{fill:#FFC654;}
	.st20{fill:#5D9E89;}
	.st21{fill:#FF6D29;}
	.st22{fill:#58A68D;}
	.st23{fill:#7F5C36;}
	.st24{fill:none;}
	.st25{fill:#C69C6D;}
	.st26{opacity:0.2;fill-rule:evenodd;clip-rule:evenodd;fill:#FFFFFF;}
	.st27{fill:none;stroke:#F73A00;stroke-width:8;stroke-miterlimit:10;}
	.st28{fill:#1BAFAF;}
	.st29{fill:#F4F7D2;}
	.st30{fill:#ED0A40;}
	.st31{fill:#FFFF00;}
	.st32{display:none;}
	.st33{display:inline;}
	.st34{fill:#3F1CAD;}
	.st35{fill-rule:evenodd;clip-rule:evenodd;fill:#F40FF4;}
	.st36{fill-rule:evenodd;clip-rule:evenodd;fill:#18EAD0;}
</style>
<linearGradient id="bg_1_" gradientUnits="userSpaceOnUse" x1="990.1496" y1="768" x2="990.1496" y2="-334" gradientTransform="matrix(1 0 0 1 0 334)">
	<stop  offset="1.980641e-02" style="stop-color:#E4D3BB"/>
	<stop  offset="0.1435" style="stop-color:#FAF2D9"/>
	<stop  offset="0.2589" style="stop-color:#FFF3E3"/>
	<stop  offset="0.4024" style="stop-color:#ECEFBD"/>
	<stop  offset="0.5686" style="stop-color:#D9A037"/>
	<stop  offset="0.7116" style="stop-color:#D7761B"/>
	<stop  offset="0.8507" style="stop-color:#751F18"/>
	<stop  offset="1" style="stop-color:#350816"/>
</linearGradient>
<rect id="bg" x="-0.4" y="0" class="st0" width="1981" height="1102"/>
<g>
	<g id="TikiBar">
		<g id="PalmRight">
			<path class="st1" d="M1553.6,325c-2-10.9-5-21.5-8.3-31.3c-154,26-295.2,144.4-355.8,317.3c-35.9,102.4-37.8,207.4-11.8,300.3
				c14.2,1.1,28.7,0.6,42.6-1.2c16.9-2.2,34-6.4,49.6-13.6c-20.4-87.7-16.4-185.1,16.9-280C1335.5,477.6,1436.2,374,1553.6,325z"/>
			<path class="st2" d="M1272.1,576.4c-44.1,90.5-58.1,173-48.1,262.5c0.5,17.2-35,21.3-52,21.5c-1.8,0-3.7,0-5.6,0
				c2.8,17.3,6.6,34.3,11.2,51c14.2,1.1,28.7,0.6,42.6-1.2c16.9-2.2,34-6.4,49.6-13.6c-20.4-87.7-16.4-185.1,16.9-280
				c48.7-138.8,149.3-242.4,266.7-291.4c-0.1-0.6-0.3-1.2-0.4-1.8C1437.8,361.7,1333.4,450.5,1272.1,576.4z"/>
			<path class="st3" d="M1561.1,323.4c0,0-85.9-45.2-126.2,35c-46.6,92.7,16.9,193.2,16.9,193.2s-17.2-110.1,20.1-158.4
				C1514.4,338.3,1561.1,323.4,1561.1,323.4z"/>
			<path class="st3" d="M1538,314.7c0,0,71-147.6-33.5-225.8c-145.8-109.3-320.7-42.6-320.7-42.6s195.5,9.2,265.4,90.4
				C1528.8,229.1,1538,314.7,1538,314.7z"/>
			<path class="st4" d="M1538.1,317.1c0,0,1.4-163.8-126.4-190.1c-178.5-36.8-308.3,98-308.3,98s180.8-74.9,278.7-31.2
				C1493.4,243.6,1538.1,317.1,1538.1,317.1z"/>
			<path class="st3" d="M1537.8,317.9c0,0-66.6-149.6-193.8-120.6c-177.7,40.5-240,217-240,217s133.5-143.1,240.7-143.8
				C1466.6,269.6,1537.8,317.9,1537.8,317.9z"/>
			<path class="st4" d="M1540.8,315.2c0,0-32-160.6,88.6-210.4c168.4-69.5,321.2,38.6,321.2,38.6s-191.7-39.7-279.6,21.5
				C1571,234.7,1540.8,315.2,1540.8,315.2z"/>
			<path class="st4" d="M1537.9,317.7c0,0-110.5-91.3-198.9-19c-123.4,101-103.5,263.5-103.5,263.5s48.9-164.2,132.6-206.5
				C1463.3,307.6,1537.9,317.7,1537.9,317.7z"/>
			<path class="st3" d="M1536.7,313.8c0,0,36.7-159.6,167.2-155.5c182.1,5.7,277.1,167,277.1,167s-158.5-114.9-263.8-95.1
				C1597.3,252.7,1536.7,313.8,1536.7,313.8z"/>
			<path class="st4" d="M1535.1,315.6c0,0,101.2-128.8,217.5-69.5c162.4,82.7,179.6,269.1,179.6,269.1s-94.5-171.4-198.2-198.4
				C1616,286.2,1535.1,315.6,1535.1,315.6z"/>
			<path class="st3" d="M1534.8,316.5c0,0,145.5-75.3,226.7,26.8c113.5,142.6,52,319.3,52,319.3s-14.9-195.2-98.2-262.6
				C1620.6,323.2,1534.8,316.5,1534.8,316.5z"/>
			<path class="st4" d="M1534.9,316.2c0,0,143.3-2.3,167.2,109.4c33.4,155.9-83.7,270.5-83.7,270.5s64.3-158.8,25.4-244.1
				C1599.5,354.9,1534.9,316.2,1534.9,316.2z"/>
			<path class="st3" d="M1535.7,313.9c0,0,101.7,45.9,81.5,132.5c-28.2,120.9-148.7,162.8-148.7,162.8s98-90.5,98.8-163.5
				C1568.4,362.5,1535.7,313.9,1535.7,313.9z"/>
			<path class="st4" d="M1534.3,312.9c0,0,81.2,83,3.1,156.7c-90.3,85.2-227.3,46.9-227.3,46.9s132.2-18,174.7-77.4
				C1533.2,371.5,1534.3,312.9,1534.3,312.9z"/>
		</g>
		<g id="palmLeft">
			<path class="st1" d="M511.9,210.5c3.7-12.5,8.5-24.5,13.4-35.6C702.1,223.7,853,378.8,903.2,588.1C932.9,712,922.5,835,881,940.4
				c-16.8-0.4-33.6-2.7-49.6-6.5c-19.5-4.6-39-11.6-56.3-21.8c34.3-100.1,41.2-214.3,13.6-329.2
				C748.5,414.8,643.3,281.7,511.9,210.5z"/>
			<path class="st2" d="M810.7,537.7c40.7,111,47.3,209,24.8,312.4c-2.6,20.1,38.3,29.1,58.2,31.4c2.2,0.3,4.3,0.5,6.5,0.7
				c-5.4,19.9-11.8,39.3-19.2,58.2c-16.8-0.4-33.6-2.7-49.6-6.5c-19.5-4.6-39-11.6-56.3-21.8c34.3-100.1,41.2-214.3,13.6-329.2
				c-40.3-168-145.5-301.1-276.9-372.3c0.2-0.7,0.4-1.3,0.6-2C642.8,267.2,754.1,383.3,810.7,537.7z"/>
			<path class="st3" d="M503.4,207.7c0,0,105.8-42.5,143.3,56c43.3,113.9-42.8,223.8-42.8,223.8s33.3-126.6-4.6-187.5
				C556.1,230.7,503.4,207.7,503.4,207.7z"/>
			<path class="st3" d="M531.4,200.2c0,0-65.3-180.9,66.1-259.9c183.4-110.3,379.8-11.5,379.8-11.5s-229.5-12.6-320.9,74
				C552.3,101.4,531.4,200.2,531.4,200.2z"/>
			<path class="st4" d="M531,203c0,0,17.9-191.5,170.4-207c212.9-21.7,348.5,151.3,348.5,151.3S847.6,38.2,728,77.6
				C592,122.5,531,203,531,203z"/>
			<path class="st3" d="M531.2,204.1c0,0,95.7-166.9,240.9-117.8c202.8,68.5,254.5,282.1,254.5,282.1S887.6,185.3,762.5,171.6
				C620.1,156.1,531.2,204.1,531.2,204.1z"/>
			<path class="st4" d="M528,200.5c0,0,56.5-183.9-78.4-256.4C261-157.2,69.6-49.1,69.6-49.1S298.3-72.7,393.7,9.4
				C502.3,102.8,528,200.5,528,200.5z"/>
			<path class="st4" d="M531.1,203.8c0,0,140-93.5,234.7,1.5C898,338,855.3,525.6,855.3,525.6S817.8,328,725.1,268.5
				C619.5,200.9,531.1,203.8,531.1,203.8z"/>
			<path class="st3" d="M532.9,199.4c0,0-23.9-190.9-176.8-201.6c-213.5-15-343.7,162-343.7,162S211.4,44.4,332,80.1
				C469.4,120.8,532.9,199.4,532.9,199.4z"/>
			<path class="st4" d="M534.6,201.7c0,0-102.9-162.5-245.8-107.2c-199.6,77.3-242,292.9-242,292.9s130.8-189,255.2-208.1
				C443.7,157.6,534.6,201.7,534.6,201.7z"/>
			<path class="st3" d="M534.8,202.7c0,0-161-105.3-268.1,4.3c-149.6,153-98.8,366.9-98.8,366.9S208.6,347.6,314,278.7
				C433.8,200.3,534.8,202.7,534.8,202.7z"/>
			<path class="st4" d="M534.8,202.4c0,0-167.2-19.8-208.4,107.8c-57.6,178.2,65.5,326,65.5,326s-56.2-193.2-0.5-288.2
				C454.7,239.9,534.8,202.4,534.8,202.4z"/>
			<path class="st3" d="M534.1,199.6c0,0-124.3,41.5-111.1,145.1c18.5,144.7,154.3,208,154.3,208s-103.7-117.5-96-202.9
				C490.1,252.5,534.1,199.6,534.1,199.6z"/>
			<path class="st4" d="M535.9,198.7c0,0-104.8,87.3-22.3,182.7c95.4,110.3,260,81.9,260,81.9S621.3,426.4,578.7,352
				C530.2,267.3,535.9,198.7,535.9,198.7z"/>
		</g>
		<g id="Bar">
			<polygon class="st5" points="1478,1227.7 498.5,1227.7 539.6,789.6 1437,789.6 			"/>
			<polygon class="st6" points="1445.3,1227.7 531.2,1227.7 569.2,789.6 1407.4,789.6 			"/>
			<path class="st7" d="M711.5,892.3c243.1,0,570,53,748.4,142.2L1437,789.6H539.6L529,902.4C588.3,895.7,649.3,892.3,711.5,892.3z"
				/>
			<polygon class="st7" points="1442.5,849 1437,789.6 539.6,789.6 534,849 			"/>
			<path class="st1" d="M1476.1,1255.1H500.4c-14.8,0-25.9-13.4-23.1-28l1.4-7.6c2.1-11.1,11.8-19.2,23.1-19.2h972.8
				c11.3,0,21,8,23.1,19.2l1.4,7.6C1502,1241.7,1490.9,1255.1,1476.1,1255.1z"/>
			<path class="st8" d="M1497.8,1219.5c-0.2-0.9-0.4-1.7-0.6-2.5c-3.8,7.6-11.7,13-21.1,13H500.4c-9.3,0-17.2-5.4-21.1-13
				c-0.3,0.8-0.5,1.7-0.6,2.5l-1.4,7.6c-2.8,14.5,8.4,28,23.1,28h975.7c14.8,0,25.9-13.4,23.1-28L1497.8,1219.5z"/>
			<path class="st8" d="M1471.3,828h-966c-3.7,0-6.7-3-6.7-6.7v-50.8c0-3.7,3-6.7,6.7-6.7h966c3.7,0,6.7,3,6.7,6.7v50.8
				C1478,825,1475,828,1471.3,828z"/>
			<path class="st2" d="M498.6,795.2H1478c-0.4-17.4-14.6-31.4-32.1-31.4H530.7C513.2,763.8,499,777.8,498.6,795.2z"/>
			<path class="st1" d="M1519.4,784.7H457.1c-3.6,0-6.6-2.9-6.6-6.6v-49.6c0-3.6,2.9-6.6,6.6-6.6h1062.3c3.6,0,6.6,2.9,6.6,6.6v49.6
				C1526,781.8,1523,784.7,1519.4,784.7z"/>
			<rect x="531.2" y="338.7" class="st8" width="43.8" height="383.3"/>
			<rect x="1401.5" y="338.7" class="st8" width="43.8" height="383.3"/>
			<rect x="663.7" y="338.7" class="st1" width="649.1" height="383.3"/>
			<rect x="692.9" y="338.7" class="st8" width="590.6" height="383.3"/>
			<path class="st9" d="M513.2,311v47.9c0,20.5-16.5,37.2-36.7,37.2l0,0c-20.2,0-36.7-16.7-36.7-37.2V311H513.2z"/>
			<path class="st10" d="M586.7,311v47.9c0,20.5-16.5,37.2-36.7,37.2l0,0c-20.2,0-36.7-16.7-36.7-37.2V311H586.7z"/>
			<path class="st9" d="M660.2,311v47.9c0,20.5-16.5,37.2-36.7,37.2l0,0c-20.2,0-36.7-16.7-36.7-37.2V311H660.2z"/>
			<path class="st10" d="M733.7,311v47.9c0,20.5-16.5,37.2-36.7,37.2h0c-20.2,0-36.7-16.7-36.7-37.2V311H733.7z"/>
			<path class="st9" d="M807.2,311v47.9c0,20.5-16.5,37.2-36.7,37.2h0c-20.2,0-36.7-16.7-36.7-37.2V311H807.2z"/>
			<path class="st10" d="M880.7,311v47.9c0,20.5-16.5,37.2-36.7,37.2h0c-20.2,0-36.7-16.7-36.7-37.2V311H880.7z"/>
			<path class="st9" d="M954.2,311v47.9c0,20.5-16.5,37.2-36.7,37.2h0c-20.2,0-36.7-16.7-36.7-37.2V311H954.2z"/>
			<path class="st10" d="M1027.7,311v47.9c0,20.5-16.5,37.2-36.7,37.2h0c-20.2,0-36.7-16.7-36.7-37.2V311H1027.7z"/>
			<path class="st9" d="M1101.2,311v47.9c0,20.5-16.5,37.2-36.7,37.2h0c-20.2,0-36.7-16.7-36.7-37.2V311H1101.2z"/>
			<path class="st10" d="M1174.7,311v47.9c0,20.5-16.5,37.2-36.7,37.2h0c-20.2,0-36.7-16.7-36.7-37.2V311H1174.7z"/>
			<path class="st9" d="M1248.2,311v47.9c0,20.5-16.5,37.2-36.7,37.2h0c-20.2,0-36.7-16.7-36.7-37.2V311H1248.2z"/>
			<path class="st10" d="M1321.7,311v47.9c0,20.5-16.5,37.2-36.7,37.2h0c-20.2,0-36.7-16.7-36.7-37.2V311H1321.7z"/>
			<path class="st9" d="M1395.2,311v47.9c0,20.5-16.5,37.2-36.7,37.2h0c-20.2,0-36.7-16.7-36.7-37.2V311H1395.2z"/>
			<path class="st10" d="M1468.7,311v47.9c0,20.5-16.5,37.2-36.7,37.2h0c-20.2,0-36.7-16.7-36.7-37.2V311H1468.7z"/>
			<path class="st9" d="M1542.2,311v47.9c0,20.5-16.5,37.2-36.7,37.2h0c-20.2,0-36.7-16.7-36.7-37.2V311H1542.2z"/>
			<path class="st11" d="M448.7,338.7c-18.8,0-27.5-23.4-13.3-35.7c85.2-73.7,301.4-235.9,554.8-235.9s469.6,162.3,554.8,235.9
				c14.2,12.3,5.5,35.7-13.3,35.7H448.7z"/>
			<path class="st12" d="M1544.9,303.1c-11-9.5-24.1-20.4-39.2-32.3c-167.8,27.5-352.9,42.8-547.6,42.8
				c-174.2,0-340.7-12.2-494.1-34.5c-10.8,8.7-20.4,16.8-28.8,24c-14.2,12.3-5.5,35.7,13.3,35.7h1083
				C1550.4,338.7,1559.2,315.4,1544.9,303.1z"/>
			<path class="st12" d="M968.8,162.1c113.8,0,222.2-8.8,320.7-24.6c-19.3-8.8-39.2-17.1-59.8-24.7
				c-81.9,10.4-169.7,16.1-260.9,16.1c-79.3,0-155.9-4.3-228.4-12.2c-20.7,8-40.8,16.6-60.1,25.8C770,155.1,867.2,162.1,968.8,162.1
				z"/>
			<path class="st13" d="M968.8,266.6c169.6,0,327.2-19.5,457.8-52.9c-12.2-8-25-16.1-38.4-24.1c-122.6,27.7-266,43.7-419.4,43.7
				c-140.4,0-272.4-13.4-387.8-36.9c-13.5,8.3-26.4,16.7-38.6,24.9C666.5,250,812.5,266.6,968.8,266.6z"/>
			<ellipse class="st12" cx="988.6" cy="261.6" rx="155.8" ry="41"/>
			<path class="st14" d="M1109.1,280.8H868c-5.8,0-10.5-4.7-10.5-10.5V113.1c0-5.8,4.7-10.5,10.5-10.5h241.1
				c5.8,0,10.5,4.7,10.5,10.5v157.2C1119.6,276.1,1114.9,280.8,1109.1,280.8z"/>
			<path class="st1" d="M1097.9,267.4H879.3c-4.2,0-7.6-3.4-7.6-7.6V123.3c0-4.2,3.4-7.6,7.6-7.6h218.6c4.2,0,7.6,3.4,7.6,7.6v136.4
				C1105.5,263.9,1102.1,267.4,1097.9,267.4z"/>
			<rect x="742.3" y="557.3" class="st15" width="189.2" height="30.3"/>
			<rect x="1037.4" y="599.3" class="st15" width="189.2" height="30.3"/>
			<g>
				<path class="st16" d="M801.6,557.3h-53.7c-3.1,0-5.6-2.5-5.6-5.6V488c0-3.1,2.5-5.6,5.6-5.6h53.7c3.1,0,5.6,2.5,5.6,5.6v63.6
					C807.2,554.8,804.7,557.3,801.6,557.3z"/>
				<path class="st9" d="M751.2,507.3v26.3c0,9.9,8.1,17.9,17.9,17.9h11.1c9.9,0,17.9-8.1,17.9-17.9v-26.3H751.2z"/>
				<rect x="763.8" y="463.2" class="st17" width="21.8" height="19.2"/>
				<path class="st16" d="M792,465.2h-34.5c-1.1,0-1.9-0.9-1.9-1.9v-14.7c0-1.1,0.9-1.9,1.9-1.9H792c1.1,0,1.9,0.9,1.9,1.9v14.7
					C793.9,464.3,793,465.2,792,465.2z"/>
			</g>
			<g>
				<path class="st17" d="M1199.4,599.3h-53.7c-3.1,0-5.6-2.5-5.6-5.6v-89.3c0-3.1,2.5-5.6,5.6-5.6h53.7c3.1,0,5.6,2.5,5.6,5.6v89.3
					C1205.1,596.8,1202.5,599.3,1199.4,599.3z"/>
				<path class="st4" d="M1149.1,523.6v51.9c0,9.9,8.1,17.9,17.9,17.9h11.1c9.9,0,17.9-8.1,17.9-17.9v-51.9H1149.1z"/>
				<rect x="1161.7" y="479.6" class="st18" width="21.8" height="19.2"/>
				<path class="st17" d="M1189.8,481.5h-34.5c-1.1,0-1.9-0.9-1.9-1.9v-14.7c0-1.1,0.9-1.9,1.9-1.9h34.5c1.1,0,1.9,0.9,1.9,1.9v14.7
					C1191.7,480.6,1190.9,481.5,1189.8,481.5z"/>
			</g>
			<g>
				<path class="st16" d="M888.7,557.3H835c-3.1,0-5.6-2.5-5.6-5.6v-89.3c0-3.1,2.5-5.6,5.6-5.6h53.7c3.1,0,5.6,2.5,5.6,5.6v89.3
					C894.3,554.8,891.8,557.3,888.7,557.3z"/>
				<path class="st19" d="M838.4,481.6v51.9c0,9.9,8.1,17.9,17.9,17.9h11.1c9.9,0,17.9-8.1,17.9-17.9v-51.9H838.4z"/>
				<rect x="850.9" y="437.5" class="st17" width="21.8" height="19.2"/>
				<path class="st16" d="M879.1,439.5h-34.5c-1.1,0-1.9-0.9-1.9-1.9v-14.7c0-1.1,0.9-1.9,1.9-1.9h34.5c1.1,0,1.9,0.9,1.9,1.9v14.7
					C881,438.6,880.1,439.5,879.1,439.5z"/>
			</g>
			<g>
				<rect x="1069.1" y="458.1" class="st20" width="21.8" height="49"/>
				<path class="st9" d="M1094.6,599.3h-29.1c-9.9,0-17.9-8.1-17.9-17.9v-42.6c0-9.9,19.2-40,24.5-40h15.9c5.4,0,24.5,30.1,24.5,40
					v42.6C1112.5,591.2,1104.4,599.3,1094.6,599.3z"/>
				<path class="st21" d="M1056.5,545.7v29.9c0,9.9,8.1,17.9,17.9,17.9h11.1c9.9,0,17.9-8.1,17.9-17.9v-29.9H1056.5z"/>
				<path class="st9" d="M1097.2,460.1h-34.5c-1.1,0-1.9-0.9-1.9-1.9v-14.7c0-1.1,0.9-1.9,1.9-1.9h34.5c1.1,0,1.9,0.9,1.9,1.9v14.7
					C1099.2,459.2,1098.3,460.1,1097.2,460.1z"/>
			</g>
			<g>
				<rect x="882.3" y="656.8" class="st17" width="6" height="60.6"/>
				<path class="st16" d="M926.3,638.8L887.9,673c-1.5,1.3-3.7,1.3-5.2,0l-38.3-34.2c-2.7-2.4-1-6.8,2.6-6.8h76.7
					C927.3,632,929,636.4,926.3,638.8z"/>
				<path class="st22" d="M867.4,653.2l16,14.3c1.1,1,2.7,1,3.8,0l16-14.3H867.4z"/>
				<path class="st16" d="M902.5,722h-34.4c-0.5,0-1-0.4-1-1v-7.2c0-0.5,0.4-1,1-1h34.4c0.5,0,1,0.4,1,1v7.2
					C903.5,721.6,903,722,902.5,722z"/>
				<path class="st17" d="M898.9,717.4h-27.1c-1.7,0-3.1-0.9-3.9-2.3c-0.4,0.7-0.6,1.5-0.6,2.3c0,2.5,2.1,4.6,4.6,4.6h27.1
					c2.5,0,4.6-2.1,4.6-4.6c0-0.8-0.2-1.6-0.6-2.3C902,716.5,900.6,717.4,898.9,717.4z"/>
			</g>
			<g>
				<rect x="750.9" y="656.8" class="st17" width="6" height="60.6"/>
				<path class="st16" d="M794.9,638.8L756.5,673c-1.5,1.3-3.7,1.3-5.2,0L713,638.8c-2.7-2.4-1-6.8,2.6-6.8h76.7
					C795.9,632,797.6,636.4,794.9,638.8z"/>
				<path class="st15" d="M748.4,660.3l-0.2,0.2c-0.3,0.3-0.9,0.3-1.2,0L706.6,620c-0.3-0.3-0.3-0.9,0-1.2l0.2-0.2
					c0.3-0.3,0.9-0.3,1.2,0l40.5,40.5C748.8,659.4,748.8,660,748.4,660.3z"/>
				<path class="st19" d="M730.5,648.6l20.1,18c1.8,1.6,4.6,1.6,6.5,0l20.1-18H730.5z"/>
				<path class="st21" d="M746.4,606.8l-36.2,5.9c-3.3,0.5-6.8,3.3-8,6.4l-13.8,34L746.4,606.8z"/>
				<path class="st16" d="M771.1,722h-34.4c-0.5,0-1-0.4-1-1v-7.2c0-0.5,0.4-1,1-1h34.4c0.5,0,1,0.4,1,1v7.2
					C772.1,721.6,771.6,722,771.1,722z"/>
				<path class="st17" d="M767.5,717.4h-27.1c-1.7,0-3.1-0.9-3.9-2.3c-0.4,0.7-0.6,1.5-0.6,2.3c0,2.5,2.1,4.6,4.6,4.6h27.1
					c2.5,0,4.6-2.1,4.6-4.6c0-0.8-0.2-1.6-0.6-2.3C770.6,716.5,769.2,717.4,767.5,717.4z"/>
			</g>
			<g>
				<path class="st17" d="M1129.2,662.4v41.7c0,9.9,8.1,17.9,17.9,17.9h29.1c9.9,0,17.9-8.1,17.9-17.9v-41.7H1129.2z"/>
				<path class="st19" d="M1138.2,680.4v17.8c0,9.9,8.1,17.9,17.9,17.9h11.1c9.9,0,17.9-8.1,17.9-17.9v-17.8H1138.2z"/>
			</g>
			<g>
				<path class="st9" d="M972.5,614.4v94.1c0,7.4,6,13.4,13.4,13.4h21.8c7.4,0,13.4-6,13.4-13.4v-94.1H972.5z"/>
				<path class="st21" d="M979.2,653.8v50.4c0,7.4,6,13.4,13.4,13.4h8.3c7.4,0,13.4-6,13.4-13.4v-50.4H979.2z"/>
			</g>
		</g>
	</g>
</g>
<g id="Coconut">
	<g id="Ball">
		<ellipse class="st23" cx="971.3" cy="632.7" rx="14.4" ry="13.4"/>
		<path class="st24" d="M983.8,626.8l-1.3,0.6c-0.1,0-0.1,0-0.1,0c-0.1,0-0.2-0.1-0.2-0.1c-0.1-0.1,0-0.3,0.1-0.4l1.3-0.6
			c-0.1-0.1-0.1-0.2-0.1-0.3l-1.3,0.6c-0.1,0-0.1,0-0.1,0c-0.1,0-0.2-0.1-0.2-0.1c-0.1-0.1,0-0.3,0.1-0.4l1.3-0.6
			c-0.1-0.1-0.1-0.2-0.2-0.4l-1.3,0.6c-0.1,0-0.1,0-0.1,0c-0.1,0-0.2-0.1-0.2-0.1c-0.1-0.1,0-0.3,0.1-0.4l1.3-0.6
			c-2.5-3-6.4-4.8-11.2-4.8c-4.4,0-8.1,1.6-10.6,4.1c0.6,0.4,1.8,1,3.6,0.9c0.1,0,0.3,0.1,0.3,0.3c0,0.1-0.1,0.3-0.3,0.3
			c-0.1,0-0.1,0-0.3,0c-1.9,0-3.1-0.6-3.7-1.1c-1.8,2.1-2.8,4.7-2.8,7.6c0,4.6,2.5,8.6,6.2,11c-1.8-1.9-2.8-3.8-2.8-3.9
			c-0.1-0.1,0-0.3,0.1-0.4s0.3,0,0.4,0.1c0,0,1.6,2.9,4.1,5.1c1.8,0.8,3.8,1.3,5.9,1.3c7.6,0,13.9-5.9,13.9-13.2
			C985.1,630.2,984.6,628.3,983.8,626.8z M967,622.2c-0.8,0.7-2.8,0.8-2.9,0.8l0,0c-0.1,0-0.3-0.1-0.3-0.2c0-0.1,0.1-0.3,0.3-0.3
			c0.5,0,2-0.2,2.6-0.7c0.1-0.1,0.3-0.1,0.4,0C967.1,621.9,967.1,622.1,967,622.2z M974.4,622.1l-0.6,1.2c-0.1,0.1-0.1,0.1-0.3,0.1
			c-0.1,0-0.1,0-0.1,0c-0.1-0.1-0.2-0.2-0.1-0.4l0.6-1.2c0.1-0.1,0.2-0.2,0.4-0.1C974.4,621.8,974.5,622,974.4,622.1z M978,642.7
			c-0.5,0.4-1.1,0.6-1.6,0.9c-0.1,0-0.1,0.1-0.2,0.1c-0.1,0-0.3-0.1-0.4-0.2c-0.1-0.2,0-0.4,0.1-0.5c0.5-0.3,1.1-0.6,1.5-0.8
			c0.2-0.1,0.4-0.1,0.6,0.1C978.2,642.3,978.1,642.5,978,642.7z M979.3,641.7c-0.1,0.1-0.1,0.1-0.3,0.1c-0.1,0-0.2-0.1-0.3-0.1
			c-0.1-0.1-0.1-0.4,0-0.6c3-2.6,4-5.7,4-5.8c0.1-0.2,0.3-0.4,0.5-0.3s0.4,0.3,0.3,0.5C983.4,635.7,982.5,638.9,979.3,641.7z"/>
		<path d="M956,632.1c0,8,6.8,14.5,15.2,14.5s15.2-6.5,15.2-14.5c0-3.8-1.6-7.3-4.5-9.8c-2.8-2.4-6.6-3.7-10.7-3.7"/>
		<path d="M971.2,618.7c-4.1,0-7.9,1.3-10.7,3.7c-2.9,2.5-4.5,5.9-4.5,9.8"/>
		<path class="st25" d="M965.5,621.2c1.9-0.8,4-1.3,5.9-1.3c3.3,0.9,5.9,2.9,5.9,2.9c0.1,0.1,0.3,0.1,0.4-0.1
			c0.1-0.1,0.1-0.3-0.1-0.4c-0.1-0.1-1.9-1.3-4.3-2.4c4.4,0.6,8.4,3.3,10.5,7.4c1.3,2.7,1.6,5.5,0.8,8.1c-0.8-0.1-2.1-0.1-3.8,0.6
			c-0.1,0-0.1,0.1-0.2,0.1c-0.1,0.1-0.2,0.2-0.1,0.4c0.1,0.1,0.2,0.2,0.4,0.1c1.6-0.8,3-0.8,3.7-0.6c-1.1,3.3-3.7,6.2-7.7,8.1
			c-4.3,2-8.8,2-12.4,0.3l0.8-1.1c0.1-0.1,0.1-0.3-0.1-0.4c-0.1-0.1-0.2-0.1-0.3,0c-0.1,0-0.1,0.1-0.1,0.1l-0.9,1.1
			c-0.1-0.1-0.2-0.1-0.4-0.2l0.9-1.1c0.1-0.1,0.1-0.3-0.1-0.4c-0.1-0.1-0.2-0.1-0.3,0c-0.1,0-0.1,0.1-0.1,0.1l-0.9,1.1
			c-0.1-0.1-0.2-0.1-0.3-0.2l0.9-1.1c0.1-0.1,0.1-0.3-0.1-0.4c-0.1-0.1-0.2-0.1-0.3,0c-0.1,0-0.1,0.1-0.1,0.1l-0.9,1.1
			c-1.5-1.1-2.7-2.5-3.6-4.3C955.6,632.3,958.6,624.4,965.5,621.2z"/>
		<path d="M977.5,642c-0.5,0.4-1,0.6-1.5,0.8c-0.2,0.1-0.3,0.4-0.1,0.5c0.1,0.1,0.2,0.2,0.4,0.2c0.1,0,0.1,0,0.2-0.1
			c0.6-0.3,1.1-0.6,1.6-0.9c0.2-0.1,0.2-0.4,0.1-0.6C977.9,642,977.7,641.9,977.5,642z"/>
		<path d="M983.1,635c-0.2-0.1-0.4,0.1-0.5,0.3c0,0-0.9,3.2-4,5.8c-0.1,0.1-0.2,0.4,0,0.6c0.1,0.1,0.2,0.1,0.3,0.1
			c0.1,0,0.2,0,0.3-0.1c3.3-2.8,4.2-6,4.2-6.2C983.5,635.3,983.4,635.1,983.1,635z"/>
		<path d="M974.2,621.7c-0.1-0.1-0.3,0-0.4,0.1l-0.6,1.2c-0.1,0.1,0,0.3,0.1,0.4c0.1,0,0.1,0,0.1,0c0.1,0,0.2-0.1,0.3-0.1l0.6-1.2
			C974.5,622,974.4,621.8,974.2,621.7z"/>
		<path d="M966.6,621.8c-0.6,0.5-2.1,0.7-2.6,0.7c-0.1,0-0.3,0.1-0.3,0.3s0.1,0.2,0.3,0.2l0,0c0.1,0,2.1-0.1,2.9-0.8
			c0.1-0.1,0.1-0.3,0-0.4C966.9,621.7,966.7,621.7,966.6,621.8z"/>
	</g>
</g>
<g id="bane">
	<rect x="361" y="313.9" class="st26" width="1228" height="658.6"/>
	<line id="bottum_x5F_bande" class="st27" x1="1589" y1="976" x2="361" y2="976"/>
	<line id="top_x5F_bande" class="st27" x1="361" y1="310" x2="1589" y2="310"/>
</g>
<g id="pinaCola_x5F_right">
	<g>
		<polygon id="straw" class="st28" points="1722.9,838.8 1715.5,840.1 1704.8,776.3 1712.2,775 		"/>
		<path id="the_drink" class="st29" d="M1762.4,918.2l-21,5.8c-0.5,0-18.8-2.8-19.3-3.1c-7.7-5.3-21-20.3-20.6-18.1l2.8-29.7
			c3.2-1.6,3.2-15.2,3.4-15.9c2.6-7.1-3-16.7,1.5-16.7l55.9-0.8c1.4,0,2.5,1.3,2.3,2.7c-1.5,9.3,1.9,33.6,6.7,37.3
			c0.6,0.5,1,1.2,1,2l-1.3,24.1c0,4.1-8,10.4-10.1,12C1763.3,917.9,1762.9,918.1,1762.4,918.2z"/>
		<path id="coctailberry" class="st30" d="M1788.4,785l-3.7,0c-4.8,0-8.8-3.9-8.9-8.7l0-0.4c0-4.8,3.9-8.8,8.7-8.9l3.7,0
			c4.8,0,8.8,3.9,8.9,8.7l0,0.4C1797.2,781,1793.2,784.9,1788.4,785z"/>
		<polygon id="pineapple" class="st31" points="1752.8,797 1759.4,780.7 1799,787.1 1780.5,821 		"/>
		<g id="outline">
			<g id="fyld" class="st32">
				<path class="st33" d="M1746.9,925.1c-13.5,0.1-39.6-8-36.6-40.7c0.7-6.8,3.5-14.6,7-23.6c3.3-8.5-1.1-18.1-3.1-24.9l24.8-0.6
					l31.6-0.8c-2,7-4.9,16.2-1.2,25.1c21.5,52-6.5,65.4-22.7,65.6"/>
				<g class="st33">
					<path d="M1738.5,934.5C1738.4,934.5,1738.4,934.5,1738.5,934.5c-0.1,0-0.1,0-0.2,0L1738.5,934.5z"/>
					<path d="M1707.6,839.1L1707.6,839.1c0.9,3.5,1.6,7.5,1.7,11.7C1709.3,846.7,1708.6,842.6,1707.6,839.1z"/>
					<path d="M1738.3,924.4L1738.3,924.4L1738.3,924.4C1738.2,924.4,1738.3,924.4,1738.3,924.4c-12.3,0.1-35.5-7.1-37.3-31.9
						c-1.6,33,24.2,42.1,37.4,42c13.2-0.1,38.9-9.6,36.9-42.6C1773.7,917,1750.6,924.3,1738.3,924.4z"/>
				</g>
				<polyline class="st33" points="1719.2,838.4 1709.4,775.6 1717,774.4 1727.6,838 				"/>
				<polygon class="st33" points="1765.8,781.5 1759.2,795.3 1786.7,822.9 1807.9,786.8 				"/>
				<path class="st33" d="M1802.6,775.7c0,0,1.2-10.2-11.7-8.7s-10.3,9.5-10.3,9.5s0.9,8.8,11,8.7
					C1801.7,785.1,1802.6,775.7,1802.6,775.7z"/>
			</g>
			<g id="linjer">
				<g>
					<path class="st24" d="M1713.2,837.3l-1.5-9.5l-5.9,0c1,2.2,2.4,5.5,3.6,9.5L1713.2,837.3z"/>
					<path class="st24" d="M1738.4,926.6L1738.4,926.6C1738.4,926.6,1738.3,926.6,1738.4,926.6
						C1738.3,926.6,1738.3,926.6,1738.4,926.6L1738.4,926.6c-9.1,0.1-23.2-4.2-31.9-14.1c1.4,3.1,3.2,6,5.6,8.5
						c7.8,8.4,19.1,11.4,26.4,11.4c7,0,20.8-3.3,28.8-15.1c1.1-1.6,2-3.3,2.8-5C1761.4,922.1,1747.4,926.5,1738.4,926.6z"/>
					<polygon class="st24" points="1711.7,776.9 1708.2,777.4 1715.4,823.4 1719.4,823.3 					"/>
					<polygon class="st24" points="1756.4,837 1760.8,827.5 1737.7,827.6 1737.5,827.6 1724.4,827.7 1726,837.2 					"/>
					<polygon class="st24" points="1720.1,827.7 1716.1,827.8 1717.6,837.3 1721.7,837.2 					"/>
					<path class="st24" d="M1765.4,979.2c-7.1-4.7-18.7-7.6-26.9-7.5s-19.5,3.1-26.4,7.9L1765.4,979.2z"/>
					<path class="st24" d="M1796.2,775.5c0-0.1,0.3-2.7-1.3-4.6c-1.2-1.3-3.1-2-5.8-2c-0.7,0-1.4,0-2.1,0.1c-4,0.5-6.8,1.6-8,3.5
						c-1,1.5-0.6,3.1-0.6,3.2c0,0.1,0.1,0.3,0.1,0.4c0.1,0.6,0.7,4.9,5.4,6.4l3.5,0.5C1795.4,782.9,1796.2,775.8,1796.2,775.5z"/>
					<path class="st24" d="M1783.1,786.8l-23.2-2.8l-5.2,10.9l24.4,24.5l18.2-30.9l-10.1-1.2
						C1785.6,787.3,1784.3,787.1,1783.1,786.8z"/>
					<path class="st24" d="M1765.6,836.9c0.1,0,0.3,0,0.4,0c1.1-4,2.4-7.3,3.4-9.6l-3.8,0l-4.4,9.5L1765.6,836.9L1765.6,836.9z"/>
					<path class="st24" d="M1765,841.2l-54.6,0.4c1.4,7.1,1.8,15.7-1.3,24.1c-3.3,8.9-5.3,17.2-5.9,24.6c-0.1,0.7-0.1,1.4-0.1,2
						c0,0.1,0,0.1,0,0.2c0.2,22.8,25.8,29.7,35.2,29.7c9.4-0.1,35-7.3,34.8-30.1l0-0.1c-0.6-7.9-2.7-16.9-6.5-26.7
						C1763.4,856.9,1763.7,848.3,1765,841.2z M1759.9,879.7c-1-4.5-2.6-9.3-4.5-14.3c-0.4-1.1,0.1-2.4,1.2-2.8
						c1.1-0.4,2.4,0.1,2.8,1.3c1.9,5.1,3.6,10.1,4.7,14.8c0.3,1.2-0.5,2.3-1.6,2.6c-0.2,0-0.3,0.1-0.5,0.1
						C1761,881.3,1760.1,880.7,1759.9,879.7z M1766.1,899.1c-0.1,1.1-1,2-2.1,2c-0.1,0-0.1,0-0.2,0c-1.2-0.1-2.1-1.1-2-2.3
						c0.2-3.2,0.1-6.7-0.4-10.3c-0.1-1.2,0.7-2.3,1.9-2.4c1.2-0.1,2.2,0.7,2.4,1.9C1766.3,891.9,1766.3,895.7,1766.1,899.1z"/>
					<path d="M1762.5,881.2c1.2-0.3,1.9-1.4,1.6-2.6c-1.1-4.7-2.7-9.7-4.7-14.8c-0.4-1.1-1.7-1.7-2.8-1.3c-1.1,0.4-1.7,1.7-1.2,2.8
						c1.9,5,3.5,9.8,4.5,14.3c0.2,1,1.1,1.7,2.1,1.7C1762.1,881.3,1762.3,881.3,1762.5,881.2z"/>
					<path d="M1763.3,886.2c-1.2,0.1-2,1.2-1.9,2.4c0.4,3.6,0.5,7.1,0.4,10.3c-0.1,1.2,0.8,2.2,2,2.3c0.1,0,0.1,0,0.2,0
						c1.1,0,2.1-0.9,2.1-2c0.2-3.5,0.2-7.2-0.4-11.1C1765.6,886.9,1764.5,886,1763.3,886.2z"/>
					<path d="M1802.7,785.9c-0.3-0.7-0.9-1.1-1.7-1.2l-4.7-0.6c2.8-2.5,4-5.9,4.1-8.1c0-0.2,0.6-4.6-2.5-7.9
						c-0.9-1.1-2.1-1.9-3.5-2.5l1.2-2.5c0.5-1.1,0.1-2.4-1-2.9c-1.1-0.5-2.4-0.1-2.9,1l-1.6,3.4c-1.2-0.1-2.5,0-3.8,0.1
						c-5.5,0.6-9.3,2.5-11.2,5.5c-1.8,2.8-1.3,5.6-1.1,6.5c0.2,1.3,0.7,3.1,1.7,4.7l-17-2.1c-0.9-0.1-1.8,0.4-2.2,1.2l-6.6,13.7
						c-0.4,0.8-0.2,1.8,0.4,2.5l16.7,16.9l-4.4,9.3l-25.2,0.2l-0.2,0l-13.8,0.1l-8.1-49.3c-0.2-1.2-1.3-2-2.5-1.8l-7.7,1.3
						c-1.2,0.2-2,1.3-1.8,2.5l7.4,47.4l-8.8,0.1c-0.8,0-1.5,0.4-1.9,1.1s-0.4,1.5,0,2.2c0.1,0.2,11.2,19.6,4.7,37.5
						c-3.4,9.3-5.5,17.9-6.2,25.7c-1.2,14.1,2.2,25.6,9.9,33.9c8,8.6,19.2,12.2,27.3,12.7l0.2,30.9c-10.9,0.7-25.5,5.5-31.7,12.9
						c0,0,0,0.1-0.1,0.1c0,0.1-0.1,0.1-0.1,0.2c0,0.1-0.1,0.1-0.1,0.2c0,0.1-0.1,0.1-0.1,0.2c0,0.1,0,0.1-0.1,0.2c0,0.1,0,0.1,0,0.2
						c0,0.1,0,0.2,0,0.2l0,0.1l0,0.1c0,0.1,0,0.1,0,0.2c0,0.1,0,0.1,0,0.2c0,0.1,0,0.1,0.1,0.2c0,0.1,0,0.1,0.1,0.2
						c0,0.1,0.1,0.1,0.1,0.2c0,0.1,0.1,0.1,0.1,0.2c0,0.1,0.1,0.1,0.1,0.2c0.1,0.1,0.1,0.1,0.2,0.2c0,0,0,0,0.1,0.1
						c0,0,0.1,0,0.1,0.1c0.1,0,0.1,0.1,0.2,0.1c0.1,0,0.1,0.1,0.2,0.1s0.1,0.1,0.2,0.1c0.1,0,0.2,0.1,0.2,0.1l0.1,0
						c0.1,0,0.3,0,0.4,0l0,0l64.9-0.4c0.1,0,0.1,0,0.2,0c0.1,0,0.1,0,0.1,0c0.1,0,0.2,0,0.3-0.1l0.1,0c0.1,0,0.2-0.1,0.3-0.1
						c0,0,0.1,0,0.1-0.1c0.1,0,0.2-0.1,0.2-0.2c0,0,0,0,0.1,0l0,0c0.1-0.1,0.1-0.1,0.2-0.2l0.1-0.1c0-0.1,0.1-0.1,0.1-0.2
						c0-0.1,0.1-0.1,0.1-0.2c0-0.1,0.1-0.1,0.1-0.2c0-0.1,0-0.1,0.1-0.2c0-0.1,0-0.1,0-0.2c0-0.1,0-0.1,0-0.2l0-0.1l0-0.1
						c0-0.1,0-0.2,0-0.2c0-0.1,0-0.1,0-0.2c0-0.1,0-0.2-0.1-0.2c0-0.1,0-0.1-0.1-0.2c0-0.1-0.1-0.1-0.1-0.2c0-0.1-0.1-0.1-0.1-0.2
						l-0.1-0.1c-6.4-7.4-21.1-12-32.2-12.5l-0.2-30.8c9.6-0.7,22.5-5.4,30.3-16.9c9.1-13.5,9.1-32.3-0.1-56
						c-6.8-17.7,4-37.3,4.1-37.5c0.4-0.7,0.4-1.5,0-2.2c-0.4-0.7-1.1-1.1-1.9-1.1l-5.2,0l2.9-6.1l7.5,7.5c0.4,0.4,1,0.6,1.5,0.6
						c0.1,0,0.2,0,0.3,0c0.7-0.1,1.2-0.5,1.6-1l21.3-36.1C1802.9,787.3,1803,786.6,1802.7,785.9z M1737.5,827.6l0.2,0l23.2-0.2
						l-4.4,9.5l-30.4,0.2l-1.6-9.5L1737.5,827.6z M1717.6,837.3l-1.5-9.5l4,0l1.6,9.5L1717.6,837.3z M1708.2,777.4l3.5-0.5l7.7,46.5
						l-4,0L1708.2,777.4z M1711.7,827.8l1.5,9.5l-3.9,0c-1.1-4-2.5-7.3-3.6-9.5L1711.7,827.8z M1738.5,971.7
						c8.2-0.1,19.7,2.9,26.9,7.5l-53.3,0.4C1719,974.9,1730.3,971.8,1738.5,971.7z M1738.3,932.4c-7.3,0.1-18.5-2.9-26.4-11.4
						c-2.3-2.5-4.1-5.4-5.6-8.5c8.7,9.8,22.8,14,31.8,14.1l0,0c0,0,0,0,0.1,0s0,0,0.1,0l0,0c9-0.1,23-4.6,31.5-14.3
						c-0.8,1.8-1.7,3.4-2.8,5C1759.2,929.1,1745.3,932.4,1738.3,932.4z M1773.1,892C1773.1,892.1,1773.1,892.1,1773.1,892
						c0.2,22.9-25.4,30.2-34.8,30.2c-9.4,0.1-35-6.9-35.2-29.7c0-0.1,0-0.1,0-0.2c0-0.7,0.1-1.3,0.1-2c0.6-7.4,2.6-15.7,5.9-24.6
						c3.1-8.4,2.8-17,1.3-24.1l54.6-0.4c-1.4,7.1-1.6,15.7,1.7,24.1C1770.4,875.2,1772.6,884.1,1773.1,892z M1769.4,827.4
						c-1,2.3-2.4,5.6-3.4,9.6c-0.1,0-0.3,0-0.4,0l-4.4,0l4.4-9.5L1769.4,827.4L1769.4,827.4z M1778.5,776.2c0-0.1,0-0.3-0.1-0.4
						c0-0.1-0.5-1.7,0.6-3.2c1.2-1.8,4-3,8-3.5c0.8-0.1,1.5-0.1,2.1-0.1c2.7,0,4.6,0.7,5.8,2c1.6,1.8,1.3,4.5,1.3,4.6
						c0,0.3-0.7,7.4-8.7,7.5l-3.5-0.5C1779.2,781.1,1778.5,776.8,1778.5,776.2z M1779.1,819.4l-24.4-24.5l5.2-10.9l23.2,2.8
						c1.2,0.3,2.5,0.5,3.9,0.5l10.1,1.2L1779.1,819.4z"/>
				</g>
			</g>
		</g>
	</g>
</g>
<g id="pinaCola_x5F_left">
	<g>
		
			<rect id="straw_1_" x="213.4" y="796.7" transform="matrix(0.1604 -0.9871 0.9871 0.1604 -583.3852 915.0713)" class="st34" width="65.6" height="7.6"/>
		<path id="the_drink_1_" class="st29" d="M197.5,913l21.4,5.8c0.5,0,19.2-3,19.6-3.3c7.9-5.4,21.3-20.7,20.8-18.4l-3-30.1
			c-3.3-1.6-3.3-15.4-3.6-16.1c-2.6-7.2,3-16.9-1.6-16.9l-56.9-0.4c-1.5,0-2.6,1.3-2.3,2.7c1.6,9.5-1.8,34.1-6.5,37.8
			c-0.6,0.5-1,1.2-1,2l1.5,24.4c0,4.2,8.2,10.4,10.4,12C196.6,912.8,197,913,197.5,913z"/>
		<path id="coctailberry_1_" class="st30" d="M170.3,778.2h3.4c5,0,9.1-4.1,9.1-9.1l0,0c0-5-4.1-9.1-9.1-9.1h-3.4
			c-5,0-9.1,4.1-9.1,9.1l0,0C161.2,774.1,165.3,778.2,170.3,778.2z"/>
		<polygon id="pineapple_1_" class="st31" points="206.4,790.2 199.6,773.6 159.3,780.5 178.5,814.7 		"/>
		<g>
			<g id="fyld_1_" class="st32">
				<path class="st33" d="M213.5,919.9c-16.6,0-45.1-13.4-23.6-66.3c3.6-9,0.6-18.3-1.4-25.4l32.2,0.6l25.2,0.4
					c-1.9,7-6.4,16.7-2.9,25.3c3.7,9.1,6.7,17,7.3,23.9C253.5,911.6,227.1,920,213.5,919.9"/>
				<g class="st33">
					<path d="M222.2,929.5C222.2,929.5,222.1,929.5,222.2,929.5c-0.1,0-0.1,0-0.2,0H222.2z"/>
					<path d="M251,844.5c0.1-4.3,0.8-8.3,1.7-11.9l0,0C251.7,836.1,251,840.2,251,844.5z"/>
					<path d="M184.3,886.6c-1.8,33.4,24.3,42.9,37.8,42.9c13.4,0,39.6-9.5,37.8-42.9c-1.6,25.2-25.2,32.6-37.8,32.6h0.1H222h0.1
						C209.6,919.2,186,911.8,184.3,886.6z"/>
				</g>
				<polyline class="st33" points="232.4,831.5 242.6,767 250.5,768.2 240.9,831.9 				"/>
				<polygon class="st33" points="150.3,780.2 172.2,816.7 199.9,788.5 193.1,774.6 				"/>
				<path class="st33" d="M166.9,778.4c10.3,0,11.1-8.9,11.1-8.9s2.6-8-10.6-9.5s-11.8,8.9-11.8,8.9S156.6,778.4,166.9,778.4z"/>
			</g>
			<g id="linjer_1_">
				<g>
					<path class="st24" d="M250.9,830.7c1.1-4,2.5-7.4,3.5-9.6h-6l-1.4,9.6H250.9z"/>
					<path class="st24" d="M189.8,907.1c0.8,1.8,1.8,3.5,2.9,5.1c8.2,11.9,22.3,15.1,29.4,15.1c7.4,0,18.9-3.1,26.7-11.7
						c2.3-2.6,4.2-5.4,5.6-8.6c-8.7,10-23.1,14.4-32.3,14.5l0,0c0,0,0,0-0.1,0c0,0,0,0-0.1,0l0,0C212.8,921.4,198.6,917,189.8,907.1
						z"/>
					<polygon class="st24" points="240.6,816.7 244.7,816.7 251.7,770 248.1,769.5 					"/>
					<polygon class="st24" points="234,830.7 235.5,821 222.2,821 222,821 198.5,821 203.1,830.7 					"/>
					<polygon class="st24" points="238.4,830.7 242.5,830.7 244,821 239.9,821 					"/>
					<path class="st24" d="M249.1,974.9c-7.1-4.8-18.6-7.8-27-7.8c-8.3,0-20,3.1-27.2,7.8H249.1z"/>
					<path class="st24" d="M171.2,776.2l3.5-0.5c4.8-1.5,5.5-5.9,5.5-6.5c0-0.1,0-0.3,0.1-0.4c0-0.1,0.5-1.7-0.6-3.2
						c-1.2-1.8-4-3-8.1-3.5c-0.8-0.1-1.5-0.1-2.2-0.1c-2.7,0-4.7,0.7-5.8,2c-1.6,1.8-1.4,4.6-1.4,4.6
						C162.2,769,163.1,776.1,171.2,776.2z"/>
					<path class="st24" d="M171.5,780.6l-10.3,1.3l18.7,31.2l24.6-25.1l-5.4-11.1l-23.6,3.1C174.3,780.4,173,780.6,171.5,780.6z"/>
					<path class="st24" d="M198.2,830.7l-4.6-9.6h-3.8c1.1,2.3,2.4,5.6,3.5,9.7c0.1,0,0.3,0,0.4,0h4.5V830.7z"/>
					<path class="st24" d="M192.9,859.5c-3.8,10-5.9,19.1-6.4,27.1v0.1c0,23.1,26,30.3,35.6,30.3s35.6-7.2,35.6-30.3
						c0-0.1,0-0.1,0-0.2c0-0.7-0.1-1.4-0.1-2c-0.7-7.5-2.8-15.9-6.2-24.9c-3.2-8.5-2.9-17.2-1.5-24.4h-55.5
						C195.8,842.3,196.1,851,192.9,859.5z M197.7,875.6c-0.2,0-0.3,0-0.5-0.1c-1.2-0.3-1.9-1.4-1.6-2.6c1.1-4.8,2.7-9.8,4.6-15
						c0.4-1.1,1.7-1.7,2.8-1.3c1.1,0.4,1.7,1.7,1.3,2.8c-1.9,5-3.4,9.9-4.5,14.4C199.6,874.9,198.7,875.6,197.7,875.6z M193.9,882.6
						c0.1-1.2,1.2-2.1,2.4-1.9c1.2,0.1,2.1,1.2,1.9,2.4c-0.4,3.7-0.5,7.2-0.3,10.4c0.1,1.2-0.8,2.3-2,2.3c-0.1,0-0.1,0-0.2,0
						c-1.1,0-2.1-0.9-2.2-2C193.4,890.2,193.5,886.5,193.9,882.6z"/>
					<path d="M197.7,875.6c1,0,1.9-0.7,2.1-1.7c1.1-4.6,2.6-9.4,4.5-14.4c0.4-1.1-0.1-2.4-1.3-2.8c-1.1-0.4-2.4,0.1-2.8,1.3
						c-2,5.2-3.5,10.3-4.6,15c-0.3,1.2,0.5,2.4,1.6,2.6C197.4,875.6,197.5,875.6,197.7,875.6z"/>
					<path d="M193.9,882.6c-0.4,3.9-0.5,7.7-0.3,11.2c0.1,1.2,1,2,2.2,2c0.1,0,0.1,0,0.2,0c1.2-0.1,2.1-1.1,2-2.3
						c-0.2-3.3-0.1-6.8,0.3-10.4c0.1-1.2-0.7-2.3-1.9-2.4C195.1,880.5,194,881.4,193.9,882.6z"/>
					<path d="M155.7,781.3l21.9,36.5c0.3,0.6,0.9,1,1.6,1c0.1,0,0.2,0,0.3,0c0.6,0,1.1-0.2,1.6-0.7l7.5-7.7l2.9,6.1h-5.3
						c-0.8,0-1.5,0.4-1.9,1.1s-0.4,1.5,0,2.2c0.1,0.2,11.3,20,4.5,38c-9.1,24.1-9,43.2,0.3,56.7c8,11.7,21.2,16.3,30.9,16.9v31.2
						c-11.3,0.6-26.2,5.4-32.6,12.9l-0.1,0.1c0,0-0.1,0.1-0.1,0.2c0,0.1-0.1,0.1-0.1,0.2c0,0.1-0.1,0.1-0.1,0.2
						c0,0.1-0.1,0.2-0.1,0.2c0,0.1,0,0.1,0,0.2c0,0.1,0,0.2,0,0.2v0.1v0.1c0,0.1,0,0.1,0,0.2c0,0.1,0,0.1,0,0.2c0,0.1,0,0.1,0.1,0.2
						c0,0.1,0.1,0.2,0.1,0.2c0,0.1,0.1,0.1,0.1,0.2c0,0.1,0.1,0.1,0.1,0.2l0.1,0.1c0.1,0.1,0.1,0.1,0.2,0.2l0,0c0,0,0,0,0.1,0
						c0.1,0.1,0.2,0.1,0.2,0.2c0,0,0.1,0,0.1,0.1c0.1,0,0.2,0.1,0.3,0.1h0.1c0.1,0,0.2,0,0.3,0.1c0.1,0,0.1,0,0.2,0s0.1,0,0.2,0h66
						l0,0c0.1,0,0.3,0,0.4,0s0.1,0,0.2,0s0.2,0,0.2-0.1c0.1,0,0.1,0,0.2-0.1c0.1,0,0.1-0.1,0.2-0.1s0.1-0.1,0.2-0.1
						c0,0,0.1,0,0.1-0.1c0,0,0,0,0.1-0.1s0.1-0.1,0.2-0.2c0-0.1,0.1-0.1,0.1-0.2c0-0.1,0.1-0.1,0.1-0.2c0-0.1,0.1-0.1,0.1-0.2
						c0-0.1,0.1-0.1,0.1-0.2c0-0.1,0-0.1,0.1-0.2c0-0.1,0-0.1,0-0.2c0-0.1,0-0.2,0-0.2v-0.1v-0.1c0-0.1,0-0.2,0-0.2
						c0-0.1,0-0.1,0-0.2c0-0.1,0-0.1-0.1-0.2c0-0.1-0.1-0.1-0.1-0.2c0-0.1-0.1-0.1-0.1-0.2c0-0.1-0.1-0.1-0.1-0.2c0,0,0-0.1-0.1-0.1
						c-6.4-7.5-21.2-12.3-32.3-12.9v-31.3c8.2-0.6,19.6-4.2,27.7-13c7.8-8.6,11.2-20.2,9.9-34.5c-0.7-7.9-2.9-16.7-6.5-26.1
						c-6.8-18,4.4-37.8,4.5-38c0.4-0.7,0.4-1.5,0-2.2s-1.1-1.1-1.9-1.1h-8.9l7.2-48.1c0.2-1.2-0.6-2.3-1.8-2.5l-7.9-1.2
						c-1.2-0.2-2.3,0.6-2.5,1.8l-8,50h-14h-0.2h-25.7l-4.5-9.5l16.9-17.2c0.7-0.7,0.8-1.7,0.4-2.5l-6.8-13.9
						c-0.4-0.8-1.3-1.3-2.2-1.2l-17.3,2.3c1-1.7,1.6-3.4,1.7-4.8c0.2-0.9,0.7-3.7-1.1-6.6c-2-3-5.8-4.9-11.4-5.5
						c-1.4-0.2-2.7-0.2-3.9-0.1l-1.7-3.5c-0.5-1.1-1.8-1.5-2.9-1s-1.6,1.8-1,2.9l1.2,2.5c-1.4,0.6-2.6,1.4-3.5,2.5
						c-3,3.4-2.4,7.8-2.4,8c0.2,2.3,1.4,5.7,4.3,8.2l-4.8,0.6c-0.7,0.1-1.4,0.6-1.7,1.2C155.3,779.9,155.3,780.7,155.7,781.3z
						 M235.5,821l-1.5,9.6h-30.9l-4.6-9.6h23.6h0.2H235.5z M238.4,830.7l1.5-9.6h4.1l-1.4,9.6H238.4z M244.7,816.7h-4l7.5-47.2
						l3.5,0.5L244.7,816.7z M254.4,821c-1.1,2.3-2.4,5.6-3.5,9.6H247l1.4-9.6H254.4z M249.1,974.9h-54.2c7.2-4.7,18.9-7.8,27.2-7.8
						C230.6,967.1,242,970.2,249.1,974.9z M192.7,912.2c-1.1-1.6-2.1-3.3-2.9-5.1c8.8,9.9,23,14.3,32.2,14.3l0,0c0,0,0,0,0.1,0
						c0,0,0,0,0.1,0l0,0c9.2,0,23.5-4.5,32.3-14.5c-1.4,3.2-3.3,6.1-5.6,8.6c-7.9,8.6-19.3,11.7-26.7,11.7
						C215,927.2,200.9,924,192.7,912.2z M192.9,859.5c3.2-8.5,2.9-17.2,1.5-24.4h55.5c-1.5,7.2-1.8,15.9,1.5,24.4
						c3.4,9,5.5,17.4,6.2,24.9c0.1,0.7,0.1,1.4,0.1,2c0,0.1,0,0.1,0,0.2c0,23.1-26,30.3-35.6,30.3s-35.6-7.2-35.6-30.3v-0.1
						C186.9,878.5,189.1,869.5,192.9,859.5z M193.6,821l4.6,9.6h-4.4c-0.2,0-0.3,0-0.4,0c-1.1-4-2.5-7.4-3.5-9.7h3.7L193.6,821
						L193.6,821z M174.7,775.7l-3.5,0.5c-8.1-0.1-8.9-7.2-9-7.5c0-0.1-0.3-2.8,1.4-4.6c1.2-1.3,3.1-2,5.8-2c0.7,0,1.4,0,2.2,0.1
						c4.1,0.5,6.9,1.7,8.1,3.5c1,1.5,0.6,3.2,0.6,3.2c0,0.1-0.1,0.3-0.1,0.4C180.1,769.9,179.5,774.3,174.7,775.7z M161.2,781.9
						l10.3-1.3c1.5,0,2.8-0.2,4-0.5l23.6-3.1l5.4,11.1l-24.6,25.1L161.2,781.9z"/>
				</g>
			</g>
		</g>
	</g>
</g>
<rect id="paddleLeft" x="361" y="556.7" class="st35" width="20" height="187"/>
<rect id="paddleRight" x="1569.1" y="543.9" class="st36" width="20" height="187"/>
</svg>
