<?xml version="1.0" encoding="utf-8"?>
<!-- Generator: Adobe Illustrator 23.0.1, SVG Export Plug-In . SVG Version: 6.00 Build 0)  -->
<svg version="1.1" id="Layer_1" xmlns="http://www.w3.org/2000/svg" xmlns:xlink="http://www.w3.org/1999/xlink" x="0px" y="0px"
	 viewBox="0 0 1617.7 917.1" style="enable-background:new 0 0 1617.7 917.1;" xml:space="preserve">
<style type="text/css">
	.st0{fill-rule:evenodd;clip-rule:evenodd;fill:#C3895C;}
	.st1{fill-rule:evenodd;clip-rule:evenodd;fill:#B57D56;}
	.st2{fill-rule:evenodd;clip-rule:evenodd;fill:#A97151;}
	.st3{fill:#FFCC99;}
	.st4{font-family:'ZCOOLKuaiLe-Regular';}
	.st5{font-size:95px;}
	.st6{fill-rule:evenodd;clip-rule:evenodd;fill:#4A2714;}
	.st7{fill-rule:evenodd;clip-rule:evenodd;fill:#C49561;}
	.st8{fill-rule:evenodd;clip-rule:evenodd;fill:#B6875B;}
	.st9{fill-rule:evenodd;clip-rule:evenodd;fill:#D1AC4E;}
	.st10{fill-rule:evenodd;clip-rule:evenodd;fill:#C29C49;}
	.st11{fill-rule:evenodd;clip-rule:evenodd;fill:#B48D46;}
	.st12{font-size:60px;}
	.st13{fill-rule:evenodd;clip-rule:evenodd;fill:#FFFFFF;}
	.st14{font-size:73px;}
</style>
<g>
	<g>
		<path class="st0" d="M575.2,97.2h558.9V128l-62.5,14.2c6.9,1,34.3,1.6,62.5,1.9v44.6l-94.1,13h94.1v137.6l-48.3,12.3l48.3,2.8
			v55.3H575.2v-39.5l53.1,2.3l-40.3-18.7l25.6-9.7l-38.5-4.7V145.2c30.7-6.1,73.9-14.8,79-15.1c5.4-0.3-44.1-5.1-79-8.9V97.2z"/>
		<path class="st1" d="M1058.2,97.2h75.8V128l-62.5,14.2c6.9,1,34.3,1.6,62.5,1.9v44.6l-68.8,9.5
			C1064.8,163.2,1061.6,126.6,1058.2,97.2L1058.2,97.2z M1065.3,201.7h68.8v137.6l-48.3,12.3l48.3,2.8v55.3H575.2v-39.5l53.1,2.3
			l-40.3-18.7l25.6-9.7l-34.5-4.2c168.2,3.7,444.1,3.8,468.9-32.3C1061.6,287.7,1065.7,246.2,1065.3,201.7L1065.3,201.7z"/>
		<path class="st2" d="M1088.7,222.5c7.9,0,14.3,6.3,14.3,14.2c0,7.9-6.4,14.3-14.3,14.3c-7.8,0-14.2-6.4-14.2-14.3
			C1074.5,228.8,1080.9,222.5,1088.7,222.5L1088.7,222.5z M627.4,222.5c7.9,0,14.2,6.3,14.2,14.2c0,7.9-6.3,14.3-14.2,14.3
			c-7.9,0-14.3-6.4-14.3-14.3C613.1,228.8,619.5,222.5,627.4,222.5L627.4,222.5z"/>
	</g>
	<text transform="matrix(1 0 0 1 712.5372 275.7851)" class="st3 st4 st5">Start</text>
	<g>
		<g>
			<polygon class="st6" points="479,385 470.9,385 469,415.3 462.1,385 434.8,385 434.8,917.1 479,917.1 			"/>
			<g>
				<path class="st7" d="M716.4,474.8l-444.3-99.4l-16.8,58.4l37.1,13.8l-38.5-9l-28.5,99.5l43.2,13.9l-45.6-6.1l-1.5,5.3l24.9,10.1
					l-27.1-2.4l-6.8,23.6L657,681.9l15.1-52.7l-68.4-13.8l62.6-3.6L647.3,601l32.2,2.2l22.9-79.8l-36.6-13.7c0,0,19.4,2.4,39.2,5
					L716.4,474.8z"/>
				<path class="st8" d="M278.6,376.9c-3.6,19-7,40.8-8.6,62.4l-14.6-5.4l16.8-58.4L278.6,376.9L278.6,376.9z M269.7,442.4
					c-2.8,40.6,1.2,79.9,22.6,97c46,37,327.3,52,389.8,54.8l-2.7,8.9l-32.2-2.2l18.9,10.7l-62.6,3.6l68.4,13.8L657,681.9
					l-444.4-99.4l6.8-23.6l27.1,2.4l-24.9-10.1l1.5-5.3l45.6,6.1l-43.2-13.9l28.5-99.5L269.7,442.4L269.7,442.4z"/>
			</g>
			<g>
				<path class="st9" d="M307.2,625.6L615,701.1l5.1,8c-22.6-1.5-46.4-2.8-46.4-2.8l50.6,9.3l36.1,56.1l-32.6,18.7
					c-19.4-5.8-40.9-11.4-40.9-11.4l27.9,18.8l-6.2,3.6l-15.2-4.5l8.5,8.3l-14.4,8.2l-307.7-75.4l13.4-55l37.1,8.4l-34.6-18.6
					L307.2,625.6z"/>
				<path class="st10" d="M575.2,691.3l39.8,9.8l5.1,8c-13.6-0.9-27.6-1.7-36.6-2.2C580.7,701.4,577.9,696,575.2,691.3L575.2,691.3z
					 M584.3,708.2l40.1,7.4l36.1,56.1l-32.6,18.7c-19.4-5.8-40.9-11.4-40.9-11.4l27.9,18.8l-6.2,3.6l-15.2-4.5l8.5,8.3l-14.4,8.2
					l-137.6-33.7c15.3-1,30.3-1.4,41.8-0.3c38.1,3.6,100.3-10.7,105.7-27.6C600,743.1,592.7,725.1,584.3,708.2L584.3,708.2z"/>
				<path class="st11" d="M460.8,727.7c6.4-2.2,9.8-9,7.6-15.4c-2.2-6.4-9.1-9.8-15.5-7.6c-6.4,2.2-9.8,9.1-7.6,15.5
					C447.5,726.6,454.4,729.9,460.8,727.7L460.8,727.7z"/>
			</g>
		</g>
		<text transform="matrix(0.9723 0.2338 -0.2338 0.9723 370.8492 458.5532)" class="st3 st4 st12">player 1 </text>
		<text transform="matrix(0.9722 0.2343 -0.2343 0.9722 297.8307 536.4415)" class="st3 st4 st12"> </text>
		<text transform="matrix(0.8326 0.2002 -0.2338 0.9723 266.9645 492.3436)"><tspan x="0" y="0" class="st3 st4 st12">press w for up </tspan><tspan x="0" y="72" class="st3 st4 st12">press s for down</tspan></text>
		<path class="st13" d="M404.5,755.7l-64.5-15.5c-6.4-1.5-10.4-8.1-8.9-14.5l15.5-64.5c1.5-6.4,8.1-10.4,14.5-8.9l64.5,15.5
			c6.4,1.5,10.4,8.1,8.9,14.5L419,746.8C417.4,753.3,410.9,757.2,404.5,755.7z"/>
		<text transform="matrix(0.9693 0.246 -0.246 0.9693 348.7661 719.4437)" class="st3 st4 st14">w</text>
		<path class="st13" d="M552.7,795l-64.5-15.5c-6.4-1.5-10.4-8.1-8.9-14.5l15.5-64.5c1.5-6.4,8.1-10.4,14.5-8.9l64.5,15.5
			c6.4,1.5,10.4,8.1,8.9,14.5l-15.5,64.5C565.6,792.5,559.1,796.5,552.7,795z"/>
		<text transform="matrix(0.9832 0.1824 -0.1824 0.9832 504.2742 756.778)" class="st3 st4 st14">s</text>
	</g>
	<g>
		<polygon class="st6" points="1246.2,389.8 1254.2,389.8 1256.1,420.1 1263.1,389.8 1290.4,389.8 1290.4,921.9 1246.2,921.9 		"/>
		<g>
			<path class="st7" d="M1008.8,479.6l444.3-99.4l16.8,58.4l-37.1,13.8l38.5-9l28.5,99.5l-43.2,13.9l45.6-6.1l1.5,5.3l-24.9,10.1
				l27.1-2.4l6.8,23.6l-444.4,99.4l-15.1-52.7l68.4-13.8l-62.6-3.6l18.9-10.7l-32.2,2.2l-22.9-79.8l36.6-13.7c0,0-19.4,2.4-39.2,5
				L1008.8,479.6z"/>
			<path class="st8" d="M1446.6,381.7l6.5-1.5l16.8,58.4l-14.6,5.4C1453.6,422.5,1450.2,400.7,1446.6,381.7L1446.6,381.7z
				 M1455.4,447.2l15.8-3.7l28.5,99.5l-43.2,13.9l45.6-6.1l1.5,5.3l-24.9,10.1l27.1-2.4l6.8,23.6l-444.4,99.4l-15.1-52.7l68.4-13.8
				l-62.6-3.6l18.9-10.7l-32.2,2.2l-2.7-8.9c62.5-2.8,343.8-17.9,389.8-54.8C1454.3,527.1,1458.3,487.8,1455.4,447.2L1455.4,447.2z"
				/>
		</g>
		<g>
			<path class="st9" d="M1418,630.4l-307.9,75.5l-5.1,8c22.6-1.5,46.4-2.8,46.4-2.8l-50.6,9.3l-36.1,56.1l32.6,18.7
				c19.4-5.8,40.9-11.4,40.9-11.4l-27.9,18.8l6.2,3.6l15.2-4.5l-8.5,8.3l14.4,8.2l307.7-75.4l-13.4-55l-37.1,8.4l34.6-18.6
				L1418,630.4z"/>
			<path class="st10" d="M1150,696.1c-2.7,4.7-5.6,10.1-8.4,15.6c-9,0.5-23,1.4-36.6,2.2l5.1-8L1150,696.1L1150,696.1z M1140.9,713
				c-8.4,16.9-15.8,34.9-13,43.5c5.4,16.9,67.6,31.2,105.7,27.6c11.4-1.1,26.5-0.7,41.8,0.3l-137.6,33.7l-14.4-8.2l8.5-8.3
				l-15.2,4.5l-6.2-3.6l27.9-18.8c0,0-21.6,5.7-40.9,11.4l-32.6-18.7l36.1-56.1L1140.9,713L1140.9,713z"/>
			<path class="st11" d="M1264.4,732.5c-6.4-2.2-9.8-9-7.6-15.4c2.2-6.4,9.1-9.8,15.5-7.6c6.4,2.2,9.8,9.1,7.6,15.5
				C1277.7,731.3,1270.8,734.6,1264.4,732.5L1264.4,732.5z"/>
		</g>
	</g>
	<text transform="matrix(0.967 -0.2546 0.2546 0.967 1142.7806 520.81)" class="st3 st4 st12">player 2 </text>
	<text transform="matrix(-0.9722 0.2343 0.2343 0.9722 1427.3403 541.234)" class="st3 st4 st12"> </text>
	<text transform="matrix(0.8281 -0.218 0.2546 0.967 1067.2905 599.7729)"><tspan x="0" y="0" class="st3 st4 st12">  press      for up </tspan><tspan x="0" y="72" class="st3 st4 st12">press     for down</tspan></text>
	<path class="st13" d="M1320.7,760.5l64.5-15.5c6.4-1.5,10.4-8.1,8.9-14.5l-15.5-64.5c-1.5-6.4-8.1-10.4-14.5-8.9l-64.6,15.5
		c-6.4,1.5-10.4,8.1-8.9,14.5l15.5,64.5C1307.8,758.1,1314.3,762,1320.7,760.5z"/>
	<path class="st13" d="M1172.5,799.8l64.6-15.5c6.4-1.5,10.4-8.1,8.9-14.5l-15.5-64.5c-1.5-6.4-8.1-10.4-14.5-8.9l-64.5,15.5
		c-6.4,1.5-10.4,8.1-8.9,14.5l15.5,64.5C1159.5,797.3,1166,801.3,1172.5,799.8z"/>
	<g>
		<g>
			<path class="st3" d="M1283.7,540.1c0.3,1.4,0.1,3-0.8,4.3c-1.7,2.4-5,3-7.4,1.3l-25.4-17.7l-13.7,27.2c-1.3,2.6-4.5,3.7-7.1,2.4
				c-2.6-1.3-3.7-4.5-2.4-7.1l16.5-32.6c0.7-1.4,2-2.4,3.4-2.8c1.5-0.4,3.1-0.1,4.3,0.8l30.4,21.2
				C1282.7,537.7,1283.4,538.9,1283.7,540.1z"/>
		</g>
	</g>
	<g>
		<g>
			<path class="st3" d="M1222.8,751.7c0.3,1.4,0.1,3-0.8,4.3c-1.7,2.4-5,3-7.4,1.3l-25.4-17.7l-13.7,27.2c-1.3,2.6-4.5,3.7-7.1,2.4
				c-2.6-1.3-3.7-4.5-2.4-7.1l16.5-32.6c0.7-1.4,2-2.4,3.4-2.8c1.5-0.4,3.1-0.1,4.3,0.8l30.4,21.2
				C1221.8,749.4,1222.5,750.5,1222.8,751.7z"/>
		</g>
	</g>
	<g>
		<g>
			<path class="st3" d="M1210.9,605.1c-0.3-1.4-0.1-3,0.8-4.3c1.7-2.4,5-3,7.4-1.3l25.4,17.7l13.7-27.2c1.3-2.6,4.5-3.7,7.1-2.4
				c2.6,1.3,3.7,4.5,2.4,7.1l-16.5,32.6c-0.7,1.4-2,2.4-3.4,2.8c-1.5,0.4-3.1,0.1-4.3-0.8l-30.4-21.2
				C1211.9,607.5,1211.2,606.3,1210.9,605.1z"/>
		</g>
	</g>
	<g>
		<g>
			<path class="st3" d="M1313.6,704.6c-0.3-1.4-0.1-3,0.8-4.3c1.7-2.4,5-3,7.4-1.3l25.4,17.7l13.7-27.2c1.3-2.6,4.5-3.7,7.1-2.4
				c2.6,1.3,3.7,4.5,2.4,7.1l-16.5,32.6c-0.7,1.4-2,2.4-3.4,2.8c-1.5,0.4-3.1,0.1-4.3-0.8l-30.4-21.2
				C1314.7,706.9,1313.9,705.8,1313.6,704.6z"/>
		</g>
	</g>
</g>
</svg>
