<?xml version="1.0" encoding="utf-8"?>
<!-- Generator: Adobe Illustrator 23.0.1, SVG Export Plug-In . SVG Version: 6.00 Build 0)  -->
<svg version="1.1" id="Layer_1" xmlns="http://www.w3.org/2000/svg" xmlns:xlink="http://www.w3.org/1999/xlink" x="0px" y="0px"
	 viewBox="0 0 1920 1080" style="enable-background:new 0 0 1920 1080;" xml:space="preserve">
<style type="text/css">
	.st0{fill-rule:evenodd;clip-rule:evenodd;fill:url(#bg_1_);}
	.st1{fill:#7A472D;}
	.st2{fill:#422619;}
	.st3{fill:#2B735C;}
	.st4{fill:#469179;}
	.st5{fill:#945637;}
	.st6{fill:#CC7D56;}
	.st7{opacity:0.2;}
	.st8{fill:#5C3522;}
	.st9{fill:#6DBAA1;}
	.st10{fill:#FFDE9C;}
	.st11{fill:#E3A664;}
	.st12{fill:#AD7639;}
	.st13{fill:#CC8E4B;}
	.st14{fill:#FFF4C8;}
	.st15{font-family:'ChunkFive-Roman';}
	.st16{font-size:83.1499px;}
	.st17{fill:#8A5C45;}
	.st18{fill:#84E8F5;}
	.st19{fill:#00C1D9;}
	.st20{fill:#008A9C;}
	.st21{fill:#FFC654;}
	.st22{fill:#5D9E89;}
	.st23{fill:#FF6D29;}
	.st24{fill:#58A68D;}
	.st25{fill:#1BAFAF;}
	.st26{fill:#F4F7D2;}
	.st27{fill:#ED0A40;}
	.st28{fill:#FFFF00;}
	.st29{display:none;}
	.st30{display:inline;}
	.st31{fill:none;}
	.st32{fill:#3F1CAD;}
</style>
<linearGradient id="bg_1_" gradientUnits="userSpaceOnUse" x1="959.5" y1="746" x2="959.5" y2="-339" gradientTransform="matrix(1 0 0 1 0 334)">
	<stop  offset="1.980641e-02" style="stop-color:#E4D3BB"/>
	<stop  offset="0.1435" style="stop-color:#FAF2D9"/>
	<stop  offset="0.2589" style="stop-color:#FFF3E3"/>
	<stop  offset="0.4024" style="stop-color:#ECEFBD"/>
	<stop  offset="0.5686" style="stop-color:#D9A037"/>
	<stop  offset="0.7116" style="stop-color:#D7761B"/>
	<stop  offset="0.8507" style="stop-color:#751F18"/>
	<stop  offset="1" style="stop-color:#350816"/>
</linearGradient>
<rect id="bg" x="-1" y="-5" class="st0" width="1921" height="1085"/>
<g id="TikiBar">
	<g id="PalmRight">
		<path class="st1" d="M1482.9,402.5c-2-10.9-5-21.5-8.3-31.3c-154,26-295.2,144.4-355.8,317.3c-35.9,102.4-37.8,207.4-11.8,300.3
			c14.2,1.1,28.7,0.6,42.6-1.2c16.9-2.2,34-6.4,49.6-13.6c-20.4-87.7-16.4-185.1,16.9-280C1264.9,555.1,1365.5,451.4,1482.9,402.5z"
			/>
		<path class="st2" d="M1201.5,653.8c-44.1,90.5-58.1,173-48.1,262.5c0.5,17.2-35,21.3-52,21.5c-1.8,0-3.7,0-5.6,0
			c2.8,17.3,6.6,34.3,11.2,51c14.2,1.1,28.7,0.6,42.6-1.2c16.9-2.2,34-6.4,49.6-13.6c-20.4-87.7-16.4-185.1,16.9-280
			c48.7-138.8,149.3-242.4,266.7-291.4c-0.1-0.6-0.3-1.2-0.4-1.8C1367.2,439.2,1262.8,527.9,1201.5,653.8z"/>
		<path class="st3" d="M1490.4,400.9c0,0-85.9-45.2-126.2,35c-46.6,92.7,16.9,193.2,16.9,193.2s-17.2-110.1,20.1-158.4
			C1443.7,415.8,1490.4,400.9,1490.4,400.9z"/>
		<path class="st3" d="M1467.3,392.1c0,0,71-147.6-33.5-225.8C1288,57,1113.1,123.7,1113.1,123.7s195.5,9.2,265.4,90.4
			C1458.1,306.6,1467.3,392.1,1467.3,392.1z"/>
		<path class="st4" d="M1467.4,394.6c0,0,1.4-163.8-126.4-190.1c-178.5-36.8-308.3,98-308.3,98s180.8-74.9,278.7-31.2
			C1422.7,321.1,1467.4,394.6,1467.4,394.6z"/>
		<path class="st3" d="M1467.1,395.4c0,0-66.6-149.6-193.8-120.6c-177.7,40.5-240,217-240,217s133.5-143.1,240.7-143.8
			C1396,347.1,1467.1,395.4,1467.1,395.4z"/>
		<path class="st4" d="M1470.2,392.7c0,0-32-160.6,88.6-210.4c168.4-69.5,321.2,38.6,321.2,38.6s-191.7-39.7-279.6,21.5
			C1500.4,312.1,1470.2,392.7,1470.2,392.7z"/>
		<path class="st4" d="M1467.2,395.2c0,0-110.5-91.3-198.9-19c-123.4,101-103.5,263.5-103.5,263.5s48.9-164.2,132.6-206.5
			C1392.6,385,1467.2,395.2,1467.2,395.2z"/>
		<path class="st3" d="M1466.1,391.3c0,0,36.7-159.6,167.2-155.5c182.1,5.7,277.1,167,277.1,167s-158.5-114.9-263.8-95.1
			C1526.7,330.2,1466.1,391.3,1466.1,391.3z"/>
		<path class="st4" d="M1464.5,393.1c0,0,101.2-128.8,217.5-69.5c162.4,82.7,179.6,269.1,179.6,269.1s-94.5-171.4-198.2-198.4
			C1545.3,363.6,1464.5,393.1,1464.5,393.1z"/>
		<path class="st3" d="M1464.2,393.9c0,0,145.5-75.3,226.7,26.8c113.5,142.6,52,319.3,52,319.3s-14.9-195.2-98.2-262.6
			C1549.9,400.6,1464.2,393.9,1464.2,393.9z"/>
		<path class="st4" d="M1464.3,393.7c0,0,143.3-2.3,167.2,109.4c33.4,155.9-83.7,270.5-83.7,270.5s64.3-158.8,25.4-244.1
			C1528.9,432.4,1464.3,393.7,1464.3,393.7z"/>
		<path class="st3" d="M1465.1,391.3c0,0,101.7,45.9,81.5,132.5C1518.4,644.8,1398,686.7,1398,686.7s98-90.5,98.8-163.5
			C1497.8,440,1465.1,391.3,1465.1,391.3z"/>
		<path class="st4" d="M1463.6,390.4c0,0,81.2,83,3.1,156.7c-90.3,85.2-227.3,46.9-227.3,46.9s132.2-18,174.7-77.4
			C1462.6,449,1463.6,390.4,1463.6,390.4z"/>
	</g>
	<g id="palmLeft">
		<path class="st1" d="M441.2,287.9c3.7-12.5,8.5-24.5,13.4-35.6c176.8,48.8,327.6,203.9,377.8,413.2
			c29.7,123.9,19.4,246.9-22.1,352.3c-16.8-0.4-33.6-2.7-49.6-6.5c-19.5-4.6-39-11.6-56.3-21.8c34.3-100.1,41.2-214.3,13.6-329.2
			C677.8,492.2,572.6,359.1,441.2,287.9z"/>
		<path class="st2" d="M740.1,615.2c40.7,111,47.3,209,24.8,312.4c-2.6,20.1,38.3,29.1,58.2,31.4c2.2,0.3,4.3,0.5,6.5,0.7
			c-5.4,19.9-11.8,39.3-19.2,58.2c-16.8-0.4-33.6-2.7-49.6-6.5c-19.5-4.6-39-11.6-56.3-21.8c34.3-100.1,41.2-214.3,13.6-329.2
			c-40.3-168-145.5-301.1-276.9-372.3c0.2-0.7,0.4-1.3,0.6-2C572.1,344.6,683.5,460.8,740.1,615.2z"/>
		<path class="st3" d="M432.7,285.2c0,0,105.8-42.5,143.3,56c43.3,113.9-42.8,223.8-42.8,223.8s33.3-126.6-4.6-187.5
			C485.5,308.2,432.7,285.2,432.7,285.2z"/>
		<path class="st3" d="M460.7,277.7c0,0-65.3-180.9,66.1-259.9C710.2-92.4,906.6,6.3,906.6,6.3S677-6.2,585.7,80.3
			C481.7,178.9,460.7,277.7,460.7,277.7z"/>
		<path class="st4" d="M460.3,280.5c0,0,17.9-191.5,170.4-207c212.9-21.7,348.5,151.3,348.5,151.3s-202.4-109.1-321.9-69.7
			C521.3,200,460.3,280.5,460.3,280.5z"/>
		<path class="st3" d="M460.5,281.6c0,0,95.7-166.9,240.9-117.8c202.8,68.5,254.5,282.1,254.5,282.1S817,262.7,691.9,249.1
			C549.5,233.6,460.5,281.6,460.5,281.6z"/>
		<path class="st4" d="M457.3,278c0,0,56.5-183.9-78.4-256.4C190.4-79.7-1,28.3-1,28.3S227.6,4.8,323.1,86.9
			C431.7,180.3,457.3,278,457.3,278z"/>
		<path class="st4" d="M460.5,281.3c0,0,140-93.5,234.7,1.5c132.2,132.7,89.5,320.2,89.5,320.2S747.1,405.4,654.4,346
			C548.8,278.3,460.5,281.3,460.5,281.3z"/>
		<path class="st3" d="M462.3,276.8c0,0-23.9-190.9-176.8-201.6c-213.5-15-343.7,162-343.7,162s198.9-115.3,319.6-79.6
			C398.8,198.3,462.3,276.8,462.3,276.8z"/>
		<path class="st4" d="M463.9,279.1c0,0-102.9-162.5-245.8-107.2c-199.6,77.3-242,292.9-242,292.9s130.8-189,255.2-208.1
			C373,235.1,463.9,279.1,463.9,279.1z"/>
		<path class="st3" d="M464.2,280.2c0,0-161-105.3-268.1,4.3c-149.6,153-98.8,366.9-98.8,366.9S138,425.1,243.3,356.2
			C363.2,277.8,464.2,280.2,464.2,280.2z"/>
		<path class="st4" d="M464.1,279.9c0,0-167.2-19.8-208.4,107.8c-57.6,178.2,65.5,326,65.5,326s-56.2-193.2-0.5-288.2
			C384,317.4,464.1,279.9,464.1,279.9z"/>
		<path class="st3" d="M463.4,277c0,0-124.3,41.5-111.1,145.1c18.5,144.7,154.3,208,154.3,208s-103.7-117.5-96-202.9
			C419.4,330,463.4,277,463.4,277z"/>
		<path class="st4" d="M465.2,276.1c0,0-104.8,87.3-22.3,182.7c95.4,110.3,260,81.9,260,81.9S550.7,503.9,508,429.4
			C459.5,344.7,465.2,276.1,465.2,276.1z"/>
	</g>
	<g id="Bar">
		<polygon class="st5" points="1407.3,1305.2 427.9,1305.2 468.9,867.1 1366.3,867.1 		"/>
		<polygon class="st6" points="1374.7,1305.2 460.5,1305.2 498.5,867.1 1336.7,867.1 		"/>
		<path class="st7" d="M640.9,969.7c243.1,0,570,53,748.4,142.2l-22.9-244.8H468.9l-10.6,112.8C517.6,973.2,578.6,969.7,640.9,969.7
			z"/>
		<polygon class="st7" points="1371.9,926.5 1366.3,867.1 468.9,867.1 463.3,926.5 		"/>
		<path class="st1" d="M1405.5,1332.6H429.7c-14.8,0-25.9-13.4-23.1-28l1.4-7.6c2.1-11.1,11.8-19.2,23.1-19.2H1404
			c11.3,0,21,8,23.1,19.2l1.4,7.6C1431.4,1319.1,1420.2,1332.6,1405.5,1332.6z"/>
		<path class="st8" d="M1427.2,1297c-0.2-0.9-0.4-1.7-0.6-2.5c-3.8,7.6-11.7,13-21.1,13H429.7c-9.3,0-17.2-5.4-21.1-13
			c-0.3,0.8-0.5,1.7-0.6,2.5l-1.4,7.6c-2.8,14.5,8.4,28,23.1,28h975.7c14.8,0,25.9-13.4,23.1-28L1427.2,1297z"/>
		<path class="st8" d="M1400.6,905.5h-966c-3.7,0-6.7-3-6.7-6.7V848c0-3.7,3-6.7,6.7-6.7h966c3.7,0,6.7,3,6.7,6.7v50.8
			C1407.3,902.5,1404.3,905.5,1400.6,905.5z"/>
		<path class="st2" d="M427.9,872.6h979.4c-0.4-17.4-14.6-31.4-32.1-31.4H460C442.5,841.3,428.3,855.2,427.9,872.6z"/>
		<path class="st1" d="M1448.7,862.2H386.4c-3.6,0-6.6-2.9-6.6-6.6V806c0-3.6,2.9-6.6,6.6-6.6h1062.3c3.6,0,6.6,2.9,6.6,6.6v49.6
			C1455.3,859.3,1452.4,862.2,1448.7,862.2z"/>
		<rect x="460.5" y="416.2" class="st8" width="43.8" height="383.3"/>
		<rect x="1330.9" y="416.2" class="st8" width="43.8" height="383.3"/>
		<rect x="593" y="416.2" class="st1" width="649.1" height="383.3"/>
		<rect x="622.3" y="416.2" class="st8" width="590.6" height="383.3"/>
		<path class="st9" d="M442.6,388.4v47.9c0,20.5-16.5,37.2-36.7,37.2l0,0c-20.2,0-36.7-16.7-36.7-37.2v-47.9H442.6z"/>
		<path class="st10" d="M516.1,388.4v47.9c0,20.5-16.5,37.2-36.7,37.2l0,0c-20.2,0-36.7-16.7-36.7-37.2v-47.9H516.1z"/>
		<path class="st9" d="M589.6,388.4v47.9c0,20.5-16.5,37.2-36.7,37.2l0,0c-20.2,0-36.7-16.7-36.7-37.2v-47.9H589.6z"/>
		<path class="st10" d="M663.1,388.4v47.9c0,20.5-16.5,37.2-36.7,37.2h0c-20.2,0-36.7-16.7-36.7-37.2v-47.9H663.1z"/>
		<path class="st9" d="M736.6,388.4v47.9c0,20.5-16.5,37.2-36.7,37.2h0c-20.2,0-36.7-16.7-36.7-37.2v-47.9H736.6z"/>
		<path class="st10" d="M810,388.4v47.9c0,20.5-16.5,37.2-36.7,37.2h0c-20.2,0-36.7-16.7-36.7-37.2v-47.9H810z"/>
		<path class="st9" d="M883.5,388.4v47.9c0,20.5-16.5,37.2-36.7,37.2h0c-20.2,0-36.7-16.7-36.7-37.2v-47.9H883.5z"/>
		<path class="st10" d="M957,388.4v47.9c0,20.5-16.5,37.2-36.7,37.2h0c-20.2,0-36.7-16.7-36.7-37.2v-47.9H957z"/>
		<path class="st9" d="M1030.5,388.4v47.9c0,20.5-16.5,37.2-36.7,37.2h0c-20.2,0-36.7-16.7-36.7-37.2v-47.9H1030.5z"/>
		<path class="st10" d="M1104,388.4v47.9c0,20.5-16.5,37.2-36.7,37.2h0c-20.2,0-36.7-16.7-36.7-37.2v-47.9H1104z"/>
		<path class="st9" d="M1177.5,388.4v47.9c0,20.5-16.5,37.2-36.7,37.2h0c-20.2,0-36.7-16.7-36.7-37.2v-47.9H1177.5z"/>
		<path class="st10" d="M1251,388.4v47.9c0,20.5-16.5,37.2-36.7,37.2h0c-20.2,0-36.7-16.7-36.7-37.2v-47.9H1251z"/>
		<path class="st9" d="M1324.5,388.4v47.9c0,20.5-16.5,37.2-36.7,37.2h0c-20.2,0-36.7-16.7-36.7-37.2v-47.9H1324.5z"/>
		<path class="st10" d="M1398,388.4v47.9c0,20.5-16.5,37.2-36.7,37.2h0c-20.2,0-36.7-16.7-36.7-37.2v-47.9H1398z"/>
		<path class="st9" d="M1471.5,388.4v47.9c0,20.5-16.5,37.2-36.7,37.2h0c-20.2,0-36.7-16.7-36.7-37.2v-47.9H1471.5z"/>
		<path class="st11" d="M378,416.2c-18.8,0-27.5-23.4-13.3-35.7c85.2-73.7,301.4-235.9,554.8-235.9s469.6,162.3,554.8,235.9
			c14.2,12.3,5.5,35.7-13.3,35.7H378z"/>
		<path class="st12" d="M1474.3,380.6c-11-9.5-24.1-20.4-39.2-32.3c-167.8,27.5-352.9,42.8-547.6,42.8
			c-174.2,0-340.7-12.2-494.1-34.5c-10.8,8.7-20.4,16.8-28.8,24c-14.2,12.3-5.5,35.7,13.3,35.7h1083
			C1479.8,416.2,1488.5,392.9,1474.3,380.6z"/>
		<path class="st12" d="M898.1,239.6c113.8,0,222.2-8.8,320.7-24.6c-19.3-8.8-39.2-17.1-59.8-24.7c-81.9,10.4-169.7,16.1-260.9,16.1
			c-79.3,0-155.9-4.3-228.4-12.2c-20.7,8-40.8,16.6-60.1,25.8C699.4,232.6,796.6,239.6,898.1,239.6z"/>
		<path class="st13" d="M898.1,344.1c169.6,0,327.2-19.5,457.8-52.9c-12.2-8-25-16.1-38.4-24.1c-122.6,27.7-266,43.7-419.4,43.7
			c-140.4,0-272.4-13.4-387.8-36.9c-13.5,8.3-26.4,16.7-38.6,24.9C595.8,327.5,741.8,344.1,898.1,344.1z"/>
		<ellipse class="st12" cx="917.9" cy="339.1" rx="155.8" ry="41"/>
		<path class="st14" d="M1038.4,358.3H797.4c-5.8,0-10.5-4.7-10.5-10.5V190.6c0-5.8,4.7-10.5,10.5-10.5h241.1
			c5.8,0,10.5,4.7,10.5,10.5v157.2C1049,353.6,1044.2,358.3,1038.4,358.3z"/>
		<path class="st1" d="M1027.2,344.9H808.6c-4.2,0-7.6-3.4-7.6-7.6V200.8c0-4.2,3.4-7.6,7.6-7.6h218.6c4.2,0,7.6,3.4,7.6,7.6v136.4
			C1034.8,341.4,1031.4,344.9,1027.2,344.9z"/>
		<text transform="matrix(1 0 0 1 847.5635 293.6473)" class="st14 st15 st16">BAR</text>
		<rect x="671.6" y="634.8" class="st17" width="189.2" height="30.3"/>
		<rect x="966.8" y="676.8" class="st17" width="189.2" height="30.3"/>
		<g>
			<path class="st18" d="M730.9,634.8h-53.7c-3.1,0-5.6-2.5-5.6-5.6v-63.6c0-3.1,2.5-5.6,5.6-5.6h53.7c3.1,0,5.6,2.5,5.6,5.6v63.6
				C736.6,632.2,734,634.8,730.9,634.8z"/>
			<path class="st9" d="M680.6,584.7V611c0,9.9,8.1,17.9,17.9,17.9h11.1c9.9,0,17.9-8.1,17.9-17.9v-26.3H680.6z"/>
			<rect x="693.2" y="540.7" class="st19" width="21.8" height="19.2"/>
			<path class="st18" d="M721.3,542.6h-34.5c-1.1,0-1.9-0.9-1.9-1.9V526c0-1.1,0.9-1.9,1.9-1.9h34.5c1.1,0,1.9,0.9,1.9,1.9v14.7
				C723.2,541.8,722.4,542.6,721.3,542.6z"/>
		</g>
		<g>
			<path class="st19" d="M1128.8,676.8h-53.7c-3.1,0-5.6-2.5-5.6-5.6v-89.3c0-3.1,2.5-5.6,5.6-5.6h53.7c3.1,0,5.6,2.5,5.6,5.6v89.3
				C1134.4,674.2,1131.9,676.8,1128.8,676.8z"/>
			<path class="st4" d="M1078.4,601.1V653c0,9.9,8.1,17.9,17.9,17.9h11.1c9.9,0,17.9-8.1,17.9-17.9v-51.9H1078.4z"/>
			<rect x="1091" y="557" class="st20" width="21.8" height="19.2"/>
			<path class="st19" d="M1119.1,559h-34.5c-1.1,0-1.9-0.9-1.9-1.9v-14.7c0-1.1,0.9-1.9,1.9-1.9h34.5c1.1,0,1.9,0.9,1.9,1.9v14.7
				C1121.1,558.1,1120.2,559,1119.1,559z"/>
		</g>
		<g>
			<path class="st18" d="M818,634.8h-53.7c-3.1,0-5.6-2.5-5.6-5.6v-89.3c0-3.1,2.5-5.6,5.6-5.6H818c3.1,0,5.6,2.5,5.6,5.6v89.3
				C823.7,632.2,821.1,634.8,818,634.8z"/>
			<path class="st21" d="M767.7,559.1V611c0,9.9,8.1,17.9,17.9,17.9h11.1c9.9,0,17.9-8.1,17.9-17.9v-51.9H767.7z"/>
			<rect x="780.3" y="515" class="st19" width="21.8" height="19.2"/>
			<path class="st18" d="M808.4,517H774c-1.1,0-1.9-0.9-1.9-1.9v-14.7c0-1.1,0.9-1.9,1.9-1.9h34.5c1.1,0,1.9,0.9,1.9,1.9V515
				C810.3,516.1,809.5,517,808.4,517z"/>
		</g>
		<g>
			<rect x="998.4" y="535.6" class="st22" width="21.8" height="49"/>
			<path class="st9" d="M1023.9,676.8h-29.1c-9.9,0-17.9-8.1-17.9-17.9v-42.6c0-9.9,19.2-40,24.5-40h15.9c5.4,0,24.5,30.1,24.5,40
				v42.6C1041.8,668.7,1033.8,676.8,1023.9,676.8z"/>
			<path class="st23" d="M985.9,623.2V653c0,9.9,8.1,17.9,17.9,17.9h11.1c9.9,0,17.9-8.1,17.9-17.9v-29.9H985.9z"/>
			<path class="st9" d="M1026.6,537.5h-34.5c-1.1,0-1.9-0.9-1.9-1.9v-14.7c0-1.1,0.9-1.9,1.9-1.9h34.5c1.1,0,1.9,0.9,1.9,1.9v14.7
				C1028.5,536.7,1027.6,537.5,1026.6,537.5z"/>
		</g>
		<g>
			<rect x="811.7" y="734.3" class="st19" width="6" height="60.6"/>
			<path class="st18" d="M855.6,716.3l-38.3,34.2c-1.5,1.3-3.7,1.3-5.2,0l-38.3-34.2c-2.7-2.4-1-6.8,2.6-6.8H853
				C856.6,709.5,858.3,713.9,855.6,716.3z"/>
			<path class="st24" d="M796.8,730.6l16,14.3c1.1,1,2.7,1,3.8,0l16-14.3H796.8z"/>
			<path class="st18" d="M831.9,799.5h-34.4c-0.5,0-1-0.4-1-1v-7.2c0-0.5,0.4-1,1-1h34.4c0.5,0,1,0.4,1,1v7.2
				C832.8,799,832.4,799.5,831.9,799.5z"/>
			<path class="st19" d="M828.2,794.9h-27.1c-1.7,0-3.1-0.9-3.9-2.3c-0.4,0.7-0.6,1.5-0.6,2.3c0,2.5,2.1,4.6,4.6,4.6h27.1
				c2.5,0,4.6-2.1,4.6-4.6c0-0.8-0.2-1.6-0.6-2.3C831.4,794,829.9,794.9,828.2,794.9z"/>
		</g>
		<g>
			<rect x="680.3" y="734.3" class="st19" width="6" height="60.6"/>
			<path class="st18" d="M724.2,716.3l-38.3,34.2c-1.5,1.3-3.7,1.3-5.2,0l-38.3-34.2c-2.7-2.4-1-6.8,2.6-6.8h76.7
				C725.2,709.5,726.9,713.9,724.2,716.3z"/>
			<path class="st17" d="M677.8,737.8l-0.2,0.2c-0.3,0.3-0.9,0.3-1.2,0l-40.5-40.5c-0.3-0.3-0.3-0.9,0-1.2l0.2-0.2
				c0.3-0.3,0.9-0.3,1.2,0l40.5,40.5C678.1,736.9,678.1,737.4,677.8,737.8z"/>
			<path class="st21" d="M659.9,726.1l20.1,18c1.8,1.6,4.6,1.6,6.5,0l20.1-18H659.9z"/>
			<path class="st23" d="M675.7,684.3l-36.2,5.9c-3.3,0.5-6.8,3.3-8,6.4l-13.8,34L675.7,684.3z"/>
			<path class="st18" d="M700.5,799.5h-34.4c-0.5,0-1-0.4-1-1v-7.2c0-0.5,0.4-1,1-1h34.4c0.5,0,1,0.4,1,1v7.2
				C701.4,799,701,799.5,700.5,799.5z"/>
			<path class="st19" d="M696.8,794.9h-27.1c-1.7,0-3.1-0.9-3.9-2.3c-0.4,0.7-0.6,1.5-0.6,2.3c0,2.5,2.1,4.6,4.6,4.6h27.1
				c2.5,0,4.6-2.1,4.6-4.6c0-0.8-0.2-1.6-0.6-2.3C700,794,698.5,794.9,696.8,794.9z"/>
		</g>
		<g>
			<path class="st19" d="M1058.5,739.9v41.7c0,9.9,8.1,17.9,17.9,17.9h29.1c9.9,0,17.9-8.1,17.9-17.9v-41.7H1058.5z"/>
			<path class="st21" d="M1067.5,757.9v17.8c0,9.9,8.1,17.9,17.9,17.9h11.1c9.9,0,17.9-8.1,17.9-17.9v-17.8H1067.5z"/>
		</g>
		<g>
			<path class="st9" d="M901.8,691.9V786c0,7.4,6,13.4,13.4,13.4h21.8c7.4,0,13.4-6,13.4-13.4v-94.1H901.8z"/>
			<path class="st23" d="M908.6,731.3v50.4c0,7.4,6,13.4,13.4,13.4h8.3c7.4,0,13.4-6,13.4-13.4v-50.4H908.6z"/>
		</g>
	</g>
</g>
<g id="pinaCola_x5F_right">
	<g>
		<polygon id="straw" class="st25" points="1659.9,833.8 1652.5,835.1 1641.8,771.3 1649.2,770 		"/>
		<path id="the_drink" class="st26" d="M1699.4,913.2l-21,5.8c-0.5,0-18.8-2.8-19.3-3.1c-7.7-5.3-21-20.3-20.6-18.1l2.8-29.7
			c3.2-1.6,3.2-15.2,3.4-15.9c2.6-7.1-3-16.7,1.5-16.7l55.9-0.8c1.4,0,2.5,1.3,2.3,2.7c-1.5,9.3,1.9,33.6,6.7,37.3
			c0.6,0.5,1,1.2,1,2l-1.3,24.1c0,4.1-8,10.4-10.1,12C1700.3,912.9,1699.9,913.1,1699.4,913.2z"/>
		<path id="coctailberry" class="st27" d="M1725.4,780l-3.7,0c-4.8,0-8.8-3.9-8.9-8.7l0-0.4c0-4.8,3.9-8.8,8.7-8.9l3.7,0
			c4.8,0,8.8,3.9,8.9,8.7l0,0.4C1734.2,776,1730.2,779.9,1725.4,780z"/>
		<polygon id="pineapple" class="st28" points="1689.8,792 1696.4,775.7 1736,782.1 1717.5,816 		"/>
		<g id="outline">
			<g id="fyld" class="st29">
				<path class="st30" d="M1683.9,920.1c-13.5,0.1-39.6-8-36.6-40.7c0.7-6.8,3.5-14.6,7-23.6c3.3-8.5-1.1-18.1-3.1-24.9l24.8-0.6
					l31.6-0.8c-2,7-4.9,16.2-1.2,25.1c21.5,52-6.5,65.4-22.7,65.6"/>
				<g class="st30">
					<path d="M1675.5,929.5C1675.4,929.5,1675.4,929.5,1675.5,929.5c-0.1,0-0.1,0-0.2,0L1675.5,929.5z"/>
					<path d="M1644.6,834.1L1644.6,834.1c0.9,3.5,1.6,7.5,1.7,11.7C1646.3,841.7,1645.6,837.6,1644.6,834.1z"/>
					<path d="M1675.3,919.4L1675.3,919.4L1675.3,919.4C1675.2,919.4,1675.3,919.4,1675.3,919.4c-12.3,0.1-35.5-7.1-37.3-31.9
						c-1.6,33,24.2,42.1,37.4,42c13.2-0.1,38.9-9.6,36.9-42.6C1710.7,912,1687.6,919.3,1675.3,919.4z"/>
				</g>
				<polyline class="st30" points="1656.2,833.4 1646.4,770.6 1654,769.4 1664.6,833 				"/>
				<polygon class="st30" points="1702.8,776.5 1696.2,790.3 1723.7,817.9 1744.9,781.8 				"/>
				<path class="st30" d="M1739.6,770.7c0,0,1.2-10.2-11.7-8.7s-10.3,9.5-10.3,9.5s0.9,8.8,11,8.7
					C1738.7,780.1,1739.6,770.7,1739.6,770.7z"/>
			</g>
			<g id="linjer">
				<g>
					<path class="st31" d="M1650.2,832.3l-1.5-9.5l-5.9,0c1,2.2,2.4,5.5,3.6,9.5L1650.2,832.3z"/>
					<path class="st31" d="M1675.4,921.6L1675.4,921.6C1675.4,921.6,1675.3,921.6,1675.4,921.6
						C1675.3,921.6,1675.3,921.6,1675.4,921.6L1675.4,921.6c-9.1,0.1-23.2-4.2-31.9-14.1c1.4,3.1,3.2,6,5.6,8.5
						c7.8,8.4,19.1,11.4,26.4,11.4c7,0,20.8-3.3,28.8-15.1c1.1-1.6,2-3.3,2.8-5C1698.4,917.1,1684.4,921.5,1675.4,921.6z"/>
					<polygon class="st31" points="1648.7,771.9 1645.2,772.4 1652.4,818.4 1656.4,818.3 					"/>
					<polygon class="st31" points="1693.4,832 1697.8,822.5 1674.7,822.6 1674.5,822.6 1661.4,822.7 1663,832.2 					"/>
					<polygon class="st31" points="1657.1,822.7 1653.1,822.8 1654.6,832.3 1658.7,832.2 					"/>
					<path class="st31" d="M1702.4,974.2c-7.1-4.7-18.7-7.6-26.9-7.5s-19.5,3.1-26.4,7.9L1702.4,974.2z"/>
					<path class="st31" d="M1733.2,770.5c0-0.1,0.3-2.7-1.3-4.6c-1.2-1.3-3.1-2-5.8-2c-0.7,0-1.4,0-2.1,0.1c-4,0.5-6.8,1.6-8,3.5
						c-1,1.5-0.6,3.1-0.6,3.2c0,0.1,0.1,0.3,0.1,0.4c0.1,0.6,0.7,4.9,5.4,6.4l3.5,0.5C1732.4,777.9,1733.2,770.8,1733.2,770.5z"/>
					<path class="st31" d="M1720.1,781.8l-23.2-2.8l-5.2,10.9l24.4,24.5l18.2-30.9l-10.1-1.2
						C1722.6,782.3,1721.3,782.1,1720.1,781.8z"/>
					<path class="st31" d="M1702.6,831.9c0.1,0,0.3,0,0.4,0c1.1-4,2.4-7.3,3.4-9.6l-3.8,0l-4.4,9.5L1702.6,831.9L1702.6,831.9z"/>
					<path class="st31" d="M1702,836.2l-54.6,0.4c1.4,7.1,1.8,15.7-1.3,24.1c-3.3,8.9-5.3,17.2-5.9,24.6c-0.1,0.7-0.1,1.4-0.1,2
						c0,0.1,0,0.1,0,0.2c0.2,22.8,25.8,29.7,35.2,29.7c9.4-0.1,35-7.3,34.8-30.1l0-0.1c-0.6-7.9-2.7-16.9-6.5-26.7
						C1700.4,851.9,1700.7,843.3,1702,836.2z M1696.9,874.7c-1-4.5-2.6-9.3-4.5-14.3c-0.4-1.1,0.1-2.4,1.2-2.8
						c1.1-0.4,2.4,0.1,2.8,1.3c1.9,5.1,3.6,10.1,4.7,14.8c0.3,1.2-0.5,2.3-1.6,2.6c-0.2,0-0.3,0.1-0.5,0.1
						C1698,876.3,1697.1,875.7,1696.9,874.7z M1703.1,894.1c-0.1,1.1-1,2-2.1,2c-0.1,0-0.1,0-0.2,0c-1.2-0.1-2.1-1.1-2-2.3
						c0.2-3.2,0.1-6.7-0.4-10.3c-0.1-1.2,0.7-2.3,1.9-2.4c1.2-0.1,2.2,0.7,2.4,1.9C1703.3,886.9,1703.3,890.7,1703.1,894.1z"/>
					<path d="M1699.5,876.2c1.2-0.3,1.9-1.4,1.6-2.6c-1.1-4.7-2.7-9.7-4.7-14.8c-0.4-1.1-1.7-1.7-2.8-1.3c-1.1,0.4-1.7,1.7-1.2,2.8
						c1.9,5,3.5,9.8,4.5,14.3c0.2,1,1.1,1.7,2.1,1.7C1699.1,876.3,1699.3,876.3,1699.5,876.2z"/>
					<path d="M1700.3,881.2c-1.2,0.1-2,1.2-1.9,2.4c0.4,3.6,0.5,7.1,0.4,10.3c-0.1,1.2,0.8,2.2,2,2.3c0.1,0,0.1,0,0.2,0
						c1.1,0,2.1-0.9,2.1-2c0.2-3.5,0.2-7.2-0.4-11.1C1702.6,881.9,1701.5,881,1700.3,881.2z"/>
					<path d="M1739.7,780.9c-0.3-0.7-0.9-1.1-1.7-1.2l-4.7-0.6c2.8-2.5,4-5.9,4.1-8.1c0-0.2,0.6-4.6-2.5-7.9
						c-0.9-1.1-2.1-1.9-3.5-2.5l1.2-2.5c0.5-1.1,0.1-2.4-1-2.9c-1.1-0.5-2.4-0.1-2.9,1l-1.6,3.4c-1.2-0.1-2.5,0-3.8,0.1
						c-5.5,0.6-9.3,2.5-11.2,5.5c-1.8,2.8-1.3,5.6-1.1,6.5c0.2,1.3,0.7,3.1,1.7,4.7l-17-2.1c-0.9-0.1-1.8,0.4-2.2,1.2l-6.6,13.7
						c-0.4,0.8-0.2,1.8,0.4,2.5l16.7,16.9l-4.4,9.3l-25.2,0.2l-0.2,0l-13.8,0.1l-8.1-49.3c-0.2-1.2-1.3-2-2.5-1.8l-7.7,1.3
						c-1.2,0.2-2,1.3-1.8,2.5l7.4,47.4l-8.8,0.1c-0.8,0-1.5,0.4-1.9,1.1s-0.4,1.5,0,2.2c0.1,0.2,11.2,19.6,4.7,37.5
						c-3.4,9.3-5.5,17.9-6.2,25.7c-1.2,14.1,2.2,25.6,9.9,33.9c8,8.6,19.2,12.2,27.3,12.7l0.2,30.9c-10.9,0.7-25.5,5.5-31.7,12.9
						c0,0,0,0.1-0.1,0.1c0,0.1-0.1,0.1-0.1,0.2c0,0.1-0.1,0.1-0.1,0.2c0,0.1-0.1,0.1-0.1,0.2c0,0.1,0,0.1-0.1,0.2c0,0.1,0,0.1,0,0.2
						c0,0.1,0,0.2,0,0.2l0,0.1l0,0.1c0,0.1,0,0.1,0,0.2c0,0.1,0,0.1,0,0.2c0,0.1,0,0.1,0.1,0.2c0,0.1,0,0.1,0.1,0.2
						c0,0.1,0.1,0.1,0.1,0.2c0,0.1,0.1,0.1,0.1,0.2c0,0.1,0.1,0.1,0.1,0.2c0.1,0.1,0.1,0.1,0.2,0.2c0,0,0,0,0.1,0.1
						c0,0,0.1,0,0.1,0.1c0.1,0,0.1,0.1,0.2,0.1c0.1,0,0.1,0.1,0.2,0.1s0.1,0.1,0.2,0.1c0.1,0,0.2,0.1,0.2,0.1l0.1,0
						c0.1,0,0.3,0,0.4,0l0,0l64.9-0.4c0.1,0,0.1,0,0.2,0c0.1,0,0.1,0,0.1,0c0.1,0,0.2,0,0.3-0.1l0.1,0c0.1,0,0.2-0.1,0.3-0.1
						c0,0,0.1,0,0.1-0.1c0.1,0,0.2-0.1,0.2-0.2c0,0,0,0,0.1,0l0,0c0.1-0.1,0.1-0.1,0.2-0.2l0.1-0.1c0-0.1,0.1-0.1,0.1-0.2
						c0-0.1,0.1-0.1,0.1-0.2c0-0.1,0.1-0.1,0.1-0.2c0-0.1,0-0.1,0.1-0.2c0-0.1,0-0.1,0-0.2c0-0.1,0-0.1,0-0.2l0-0.1l0-0.1
						c0-0.1,0-0.2,0-0.2c0-0.1,0-0.1,0-0.2c0-0.1,0-0.2-0.1-0.2c0-0.1,0-0.1-0.1-0.2c0-0.1-0.1-0.1-0.1-0.2c0-0.1-0.1-0.1-0.1-0.2
						l-0.1-0.1c-6.4-7.4-21.1-12-32.2-12.5l-0.2-30.8c9.6-0.7,22.5-5.4,30.3-16.9c9.1-13.5,9.1-32.3-0.1-56
						c-6.8-17.7,4-37.3,4.1-37.5c0.4-0.7,0.4-1.5,0-2.2c-0.4-0.7-1.1-1.1-1.9-1.1l-5.2,0l2.9-6.1l7.5,7.5c0.4,0.4,1,0.6,1.5,0.6
						c0.1,0,0.2,0,0.3,0c0.7-0.1,1.2-0.5,1.6-1l21.3-36.1C1739.9,782.3,1740,781.6,1739.7,780.9z M1674.5,822.6l0.2,0l23.2-0.2
						l-4.4,9.5l-30.4,0.2l-1.6-9.5L1674.5,822.6z M1654.6,832.3l-1.5-9.5l4,0l1.6,9.5L1654.6,832.3z M1645.2,772.4l3.5-0.5l7.7,46.5
						l-4,0L1645.2,772.4z M1648.7,822.8l1.5,9.5l-3.9,0c-1.1-4-2.5-7.3-3.6-9.5L1648.7,822.8z M1675.5,966.7
						c8.2-0.1,19.7,2.9,26.9,7.5l-53.3,0.4C1656,969.9,1667.3,966.8,1675.5,966.7z M1675.3,927.4c-7.3,0.1-18.5-2.9-26.4-11.4
						c-2.3-2.5-4.1-5.4-5.6-8.5c8.7,9.8,22.8,14,31.8,14.1l0,0c0,0,0,0,0.1,0s0,0,0.1,0l0,0c9-0.1,23-4.6,31.5-14.3
						c-0.8,1.8-1.7,3.4-2.8,5C1696.2,924.1,1682.3,927.4,1675.3,927.4z M1710.1,887C1710.1,887.1,1710.1,887.1,1710.1,887
						c0.2,22.9-25.4,30.2-34.8,30.2c-9.4,0.1-35-6.9-35.2-29.7c0-0.1,0-0.1,0-0.2c0-0.7,0.1-1.3,0.1-2c0.6-7.4,2.6-15.7,5.9-24.6
						c3.1-8.4,2.8-17,1.3-24.1l54.6-0.4c-1.4,7.1-1.6,15.7,1.7,24.1C1707.4,870.2,1709.6,879.1,1710.1,887z M1706.4,822.4
						c-1,2.3-2.4,5.6-3.4,9.6c-0.1,0-0.3,0-0.4,0l-4.4,0l4.4-9.5L1706.4,822.4L1706.4,822.4z M1715.5,771.2c0-0.1,0-0.3-0.1-0.4
						c0-0.1-0.5-1.7,0.6-3.2c1.2-1.8,4-3,8-3.5c0.8-0.1,1.5-0.1,2.1-0.1c2.7,0,4.6,0.7,5.8,2c1.6,1.8,1.3,4.5,1.3,4.6
						c0,0.3-0.7,7.4-8.7,7.5l-3.5-0.5C1716.2,776.1,1715.5,771.8,1715.5,771.2z M1716.1,814.4l-24.4-24.5l5.2-10.9l23.2,2.8
						c1.2,0.3,2.5,0.5,3.9,0.5l10.1,1.2L1716.1,814.4z"/>
				</g>
			</g>
		</g>
	</g>
</g>
<g id="pinaCola_x5F_left">
	<g>
		
			<rect id="straw_1_" x="150.4" y="791.7" transform="matrix(0.1604 -0.9871 0.9871 0.1604 -631.3452 848.6889)" class="st32" width="65.6" height="7.6"/>
		<path id="the_drink_1_" class="st26" d="M134.5,908l21.4,5.8c0.5,0,19.2-3,19.6-3.3c7.9-5.4,21.3-20.7,20.8-18.4l-3-30.1
			c-3.3-1.6-3.3-15.4-3.6-16.1c-2.6-7.2,3-16.9-1.6-16.9l-56.9-0.4c-1.5,0-2.6,1.3-2.3,2.7c1.6,9.5-1.8,34.1-6.5,37.8
			c-0.6,0.5-1,1.2-1,2l1.5,24.4c0,4.2,8.2,10.4,10.4,12C133.6,907.8,134,908,134.5,908z"/>
		<path id="coctailberry_1_" class="st27" d="M107.3,773.2h3.4c5,0,9.1-4.1,9.1-9.1l0,0c0-5-4.1-9.1-9.1-9.1h-3.4
			c-5,0-9.1,4.1-9.1,9.1l0,0C98.2,769.1,102.3,773.2,107.3,773.2z"/>
		<polygon id="pineapple_1_" class="st28" points="143.4,785.2 136.6,768.6 96.3,775.5 115.5,809.7 		"/>
		<g>
			<g id="fyld_1_" class="st29">
				<path class="st30" d="M150.5,914.9c-16.6,0-45.1-13.4-23.6-66.3c3.6-9,0.6-18.3-1.4-25.4l32.2,0.6l25.2,0.4
					c-1.9,7-6.4,16.7-2.9,25.3c3.7,9.1,6.7,17,7.3,23.9C190.5,906.6,164.1,915,150.5,914.9"/>
				<g class="st30">
					<path d="M159.2,924.5C159.2,924.5,159.1,924.5,159.2,924.5c-0.1,0-0.1,0-0.2,0H159.2z"/>
					<path d="M188,839.5c0.1-4.3,0.8-8.3,1.7-11.9l0,0C188.7,831.1,188,835.2,188,839.5z"/>
					<path d="M121.3,881.6c-1.8,33.4,24.3,42.9,37.8,42.9c13.4,0,39.6-9.5,37.8-42.9c-1.6,25.2-25.2,32.6-37.8,32.6h0.1H159h0.1
						C146.6,914.2,123,906.8,121.3,881.6z"/>
				</g>
				<polyline class="st30" points="169.4,826.5 179.6,762 187.5,763.2 177.9,826.9 				"/>
				<polygon class="st30" points="87.3,775.2 109.2,811.7 136.9,783.5 130.1,769.6 				"/>
				<path class="st30" d="M103.9,773.4c10.3,0,11.1-8.9,11.1-8.9s2.6-8-10.6-9.5s-11.8,8.9-11.8,8.9S93.6,773.4,103.9,773.4z"/>
			</g>
			<g id="linjer_1_">
				<g>
					<path class="st31" d="M187.9,825.7c1.1-4,2.5-7.4,3.5-9.6h-6l-1.4,9.6H187.9z"/>
					<path class="st31" d="M126.8,902.1c0.8,1.8,1.8,3.5,2.9,5.1c8.2,11.9,22.3,15.1,29.4,15.1c7.4,0,18.9-3.1,26.7-11.7
						c2.3-2.6,4.2-5.4,5.6-8.6c-8.7,10-23.1,14.4-32.3,14.5l0,0c0,0,0,0-0.1,0c0,0,0,0-0.1,0l0,0C149.8,916.4,135.6,912,126.8,902.1
						z"/>
					<polygon class="st31" points="177.6,811.7 181.7,811.7 188.7,765 185.1,764.5 					"/>
					<polygon class="st31" points="171,825.7 172.5,816 159.2,816 159,816 135.5,816 140.1,825.7 					"/>
					<polygon class="st31" points="175.4,825.7 179.5,825.7 181,816 176.9,816 					"/>
					<path class="st31" d="M186.1,969.9c-7.1-4.8-18.6-7.8-27-7.8c-8.3,0-20,3.1-27.2,7.8H186.1z"/>
					<path class="st31" d="M108.2,771.2l3.5-0.5c4.8-1.5,5.5-5.9,5.5-6.5c0-0.1,0-0.3,0.1-0.4c0-0.1,0.5-1.7-0.6-3.2
						c-1.2-1.8-4-3-8.1-3.5c-0.8-0.1-1.5-0.1-2.2-0.1c-2.7,0-4.7,0.7-5.8,2c-1.6,1.8-1.4,4.6-1.4,4.6
						C99.2,764,100.1,771.1,108.2,771.2z"/>
					<path class="st31" d="M108.5,775.6l-10.3,1.3l18.7,31.2l24.6-25.1l-5.4-11.1l-23.6,3.1C111.3,775.4,110,775.6,108.5,775.6z"/>
					<path class="st31" d="M135.2,825.7l-4.6-9.6h-3.8c1.1,2.3,2.4,5.6,3.5,9.7c0.1,0,0.3,0,0.4,0h4.5V825.7z"/>
					<path class="st31" d="M129.9,854.5c-3.8,10-5.9,19.1-6.4,27.1v0.1c0,23.1,26,30.3,35.6,30.3s35.6-7.2,35.6-30.3
						c0-0.1,0-0.1,0-0.2c0-0.7-0.1-1.4-0.1-2c-0.7-7.5-2.8-15.9-6.2-24.9c-3.2-8.5-2.9-17.2-1.5-24.4h-55.5
						C132.8,837.3,133.1,846,129.9,854.5z M134.7,870.6c-0.2,0-0.3,0-0.5-0.1c-1.2-0.3-1.9-1.4-1.6-2.6c1.1-4.8,2.7-9.8,4.6-15
						c0.4-1.1,1.7-1.7,2.8-1.3c1.1,0.4,1.7,1.7,1.3,2.8c-1.9,5-3.4,9.9-4.5,14.4C136.6,869.9,135.7,870.6,134.7,870.6z M130.9,877.6
						c0.1-1.2,1.2-2.1,2.4-1.9c1.2,0.1,2.1,1.2,1.9,2.4c-0.4,3.7-0.5,7.2-0.3,10.4c0.1,1.2-0.8,2.3-2,2.3c-0.1,0-0.1,0-0.2,0
						c-1.1,0-2.1-0.9-2.2-2C130.4,885.2,130.5,881.5,130.9,877.6z"/>
					<path d="M134.7,870.6c1,0,1.9-0.7,2.1-1.7c1.1-4.6,2.6-9.4,4.5-14.4c0.4-1.1-0.1-2.4-1.3-2.8c-1.1-0.4-2.4,0.1-2.8,1.3
						c-2,5.2-3.5,10.3-4.6,15c-0.3,1.2,0.5,2.4,1.6,2.6C134.4,870.6,134.5,870.6,134.7,870.6z"/>
					<path d="M130.9,877.6c-0.4,3.9-0.5,7.7-0.3,11.2c0.1,1.2,1,2,2.2,2c0.1,0,0.1,0,0.2,0c1.2-0.1,2.1-1.1,2-2.3
						c-0.2-3.3-0.1-6.8,0.3-10.4c0.1-1.2-0.7-2.3-1.9-2.4C132.1,875.5,131,876.4,130.9,877.6z"/>
					<path d="M92.7,776.3l21.9,36.5c0.3,0.6,0.9,1,1.6,1c0.1,0,0.2,0,0.3,0c0.6,0,1.1-0.2,1.6-0.7l7.5-7.7l2.9,6.1h-5.3
						c-0.8,0-1.5,0.4-1.9,1.1s-0.4,1.5,0,2.2c0.1,0.2,11.3,20,4.5,38c-9.1,24.1-9,43.2,0.3,56.7c8,11.7,21.2,16.3,30.9,16.9v31.2
						c-11.3,0.6-26.2,5.4-32.6,12.9l-0.1,0.1c0,0-0.1,0.1-0.1,0.2c0,0.1-0.1,0.1-0.1,0.2c0,0.1-0.1,0.1-0.1,0.2
						c0,0.1-0.1,0.2-0.1,0.2c0,0.1,0,0.1,0,0.2c0,0.1,0,0.2,0,0.2v0.1v0.1c0,0.1,0,0.1,0,0.2c0,0.1,0,0.1,0,0.2c0,0.1,0,0.1,0.1,0.2
						c0,0.1,0.1,0.2,0.1,0.2c0,0.1,0.1,0.1,0.1,0.2c0,0.1,0.1,0.1,0.1,0.2l0.1,0.1c0.1,0.1,0.1,0.1,0.2,0.2l0,0c0,0,0,0,0.1,0
						c0.1,0.1,0.2,0.1,0.2,0.2c0,0,0.1,0,0.1,0.1c0.1,0,0.2,0.1,0.3,0.1h0.1c0.1,0,0.2,0,0.3,0.1c0.1,0,0.1,0,0.2,0s0.1,0,0.2,0h66
						l0,0c0.1,0,0.3,0,0.4,0s0.1,0,0.2,0s0.2,0,0.2-0.1c0.1,0,0.1,0,0.2-0.1c0.1,0,0.1-0.1,0.2-0.1s0.1-0.1,0.2-0.1
						c0,0,0.1,0,0.1-0.1c0,0,0,0,0.1-0.1s0.1-0.1,0.2-0.2c0-0.1,0.1-0.1,0.1-0.2c0-0.1,0.1-0.1,0.1-0.2c0-0.1,0.1-0.1,0.1-0.2
						c0-0.1,0.1-0.1,0.1-0.2c0-0.1,0-0.1,0.1-0.2c0-0.1,0-0.1,0-0.2c0-0.1,0-0.2,0-0.2v-0.1v-0.1c0-0.1,0-0.2,0-0.2
						c0-0.1,0-0.1,0-0.2c0-0.1,0-0.1-0.1-0.2c0-0.1-0.1-0.1-0.1-0.2c0-0.1-0.1-0.1-0.1-0.2c0-0.1-0.1-0.1-0.1-0.2c0,0,0-0.1-0.1-0.1
						c-6.4-7.5-21.2-12.3-32.3-12.9v-31.3c8.2-0.6,19.6-4.2,27.7-13c7.8-8.6,11.2-20.2,9.9-34.5c-0.7-7.9-2.9-16.7-6.5-26.1
						c-6.8-18,4.4-37.8,4.5-38c0.4-0.7,0.4-1.5,0-2.2s-1.1-1.1-1.9-1.1h-8.9l7.2-48.1c0.2-1.2-0.6-2.3-1.8-2.5l-7.9-1.2
						c-1.2-0.2-2.3,0.6-2.5,1.8l-8,50h-14h-0.2h-25.7l-4.5-9.5l16.9-17.2c0.7-0.7,0.8-1.7,0.4-2.5l-6.8-13.9
						c-0.4-0.8-1.3-1.3-2.2-1.2l-17.3,2.3c1-1.7,1.6-3.4,1.7-4.8c0.2-0.9,0.7-3.7-1.1-6.6c-2-3-5.8-4.9-11.4-5.5
						c-1.4-0.2-2.7-0.2-3.9-0.1l-1.7-3.5c-0.5-1.1-1.8-1.5-2.9-1s-1.6,1.8-1,2.9l1.2,2.5c-1.4,0.6-2.6,1.4-3.5,2.5
						c-3,3.4-2.4,7.8-2.4,8c0.2,2.3,1.4,5.7,4.3,8.2l-4.8,0.6c-0.7,0.1-1.4,0.6-1.7,1.2C92.3,774.9,92.3,775.7,92.7,776.3z
						 M172.5,816l-1.5,9.6h-30.9l-4.6-9.6h23.6h0.2H172.5z M175.4,825.7l1.5-9.6h4.1l-1.4,9.6H175.4z M181.7,811.7h-4l7.5-47.2
						l3.5,0.5L181.7,811.7z M191.4,816c-1.1,2.3-2.4,5.6-3.5,9.6H184l1.4-9.6H191.4z M186.1,969.9h-54.2c7.2-4.7,18.9-7.8,27.2-7.8
						C167.6,962.1,179,965.2,186.1,969.9z M129.7,907.2c-1.1-1.6-2.1-3.3-2.9-5.1c8.8,9.9,23,14.3,32.2,14.3l0,0c0,0,0,0,0.1,0
						c0,0,0,0,0.1,0l0,0c9.2,0,23.5-4.5,32.3-14.5c-1.4,3.2-3.3,6.1-5.6,8.6c-7.9,8.6-19.3,11.7-26.7,11.7
						C152,922.2,137.9,919,129.7,907.2z M129.9,854.5c3.2-8.5,2.9-17.2,1.5-24.4h55.5c-1.5,7.2-1.8,15.9,1.5,24.4
						c3.4,9,5.5,17.4,6.2,24.9c0.1,0.7,0.1,1.4,0.1,2c0,0.1,0,0.1,0,0.2c0,23.1-26,30.3-35.6,30.3s-35.6-7.2-35.6-30.3v-0.1
						C123.9,873.5,126.1,864.5,129.9,854.5z M130.6,816l4.6,9.6h-4.4c-0.2,0-0.3,0-0.4,0c-1.1-4-2.5-7.4-3.5-9.7h3.7L130.6,816
						L130.6,816z M111.7,770.7l-3.5,0.5c-8.1-0.1-8.9-7.2-9-7.5c0-0.1-0.3-2.8,1.4-4.6c1.2-1.3,3.1-2,5.8-2c0.7,0,1.4,0,2.2,0.1
						c4.1,0.5,6.9,1.7,8.1,3.5c1,1.5,0.6,3.2,0.6,3.2c0,0.1-0.1,0.3-0.1,0.4C117.1,764.9,116.5,769.3,111.7,770.7z M98.2,776.9
						l10.3-1.3c1.5,0,2.8-0.2,4-0.5l23.6-3.1l5.4,11.1l-24.6,25.1L98.2,776.9z"/>
				</g>
			</g>
		</g>
	</g>
</g>
</svg>
