<?xml version="1.0" encoding="utf-8"?>
<!-- Generator: Adobe Illustrator 23.0.1, SVG Export Plug-In . SVG Version: 6.00 Build 0)  -->
<svg version="1.1" id="Layer_1" xmlns="http://www.w3.org/2000/svg" xmlns:xlink="http://www.w3.org/1999/xlink" x="0px" y="0px"
	 viewBox="0 0 43 39.5" style="enable-background:new 0 0 43 39.5;" xml:space="preserve">
<style type="text/css">
	.st0{fill:#7F5C36;}
	.st1{fill:#C69C6D;}
</style>
<circle class="st0" cx="19.9" cy="19.7" r="19.7"/>
<path class="st1" d="M11.5,3.4c2.7-1.2,5.6-1.8,8.4-1.8c4.6,1.3,8.4,4.1,8.4,4.1c0.3,0.1,0.5,0.1,0.7-0.1c0.1-0.1,0.1-0.4-0.1-0.5
	c-0.1-0.1-2.7-1.9-6.1-3.4C29,2.6,34.7,6.3,37.7,12.1c1.9,3.8,2.2,7.8,1.2,11.4c-1.1-0.2-3-0.2-5.4,0.9c-0.1,0-0.2,0.1-0.3,0.1
	C33,24.6,32.9,24.8,33,25s0.3,0.3,0.5,0.2c2.3-1.1,4.2-1.1,5.2-0.9c-1.5,4.7-5.3,8.8-10.9,11.4c-6.1,2.8-12.4,2.8-17.5,0.4l1.2-1.5
	c0.1-0.2,0.1-0.4-0.1-0.5c-0.1-0.1-0.3-0.1-0.4,0c-0.1,0-0.1,0.1-0.1,0.1l-1.4,1.6c-0.2-0.1-0.3-0.2-0.5-0.3l1.3-1.6
	c0.1-0.2,0.1-0.4-0.1-0.5c-0.1-0.1-0.3-0.1-0.4,0c-0.1,0-0.1,0.1-0.1,0.1l-1.3,1.6C8.3,35,8.1,34.9,8,34.8l1.3-1.6
	c0.1-0.2,0.1-0.4-0.1-0.5c-0.1-0.1-0.3-0.1-0.4,0c-0.1,0-0.1,0.1-0.1,0.1l-1.3,1.6c-2.1-1.6-3.8-3.6-5.1-6.1
	C-2.4,19,1.8,7.8,11.5,3.4z"/>
</svg>
