<?xml version="1.0" encoding="utf-8"?>
<!-- Generator: Adobe Illustrator 23.0.1, SVG Export Plug-In . SVG Version: 6.00 Build 0)  -->
<svg version="1.1" id="Layer_1" xmlns="http://www.w3.org/2000/svg" xmlns:xlink="http://www.w3.org/1999/xlink" x="0px" y="0px"
	 viewBox="0 0 30.4 27.9" style="enable-background:new 0 0 30.4 27.9;" xml:space="preserve">
<style type="text/css">
	.st0{fill:#7F5C36;}
	.st1{fill:none;}
	.st2{fill:#C69C6D;}
</style>
<g id="Coconut">
	<g id="Ball">
		<ellipse class="st0" cx="15.3" cy="14" rx="14.4" ry="13.4"/>
		<path class="st1" d="M27.8,8.1l-1.3,0.6c-0.1,0-0.1,0-0.1,0c-0.1,0-0.2-0.1-0.2-0.1c-0.1-0.1,0-0.3,0.1-0.4l1.3-0.6
			c-0.1-0.1-0.1-0.2-0.1-0.3l-1.3,0.6c-0.1,0-0.1,0-0.1,0c-0.1,0-0.2-0.1-0.2-0.1c-0.1-0.1,0-0.3,0.1-0.4l1.3-0.6
			c-0.1-0.1-0.1-0.2-0.2-0.4l-1.3,0.6c-0.1,0-0.1,0-0.1,0c-0.1,0-0.2-0.1-0.2-0.1c-0.1-0.1,0-0.3,0.1-0.4l1.3-0.6
			c-2.5-3-6.4-4.8-11.2-4.8C11,1.1,7.3,2.7,4.8,5.2c0.6,0.4,1.8,1,3.6,0.9c0.1,0,0.3,0.1,0.3,0.3S8.6,6.7,8.4,6.7
			c-0.1,0-0.1,0-0.3,0C6.2,6.7,5,6.1,4.4,5.7c-1.8,2.1-2.8,4.7-2.8,7.6c0,4.6,2.5,8.6,6.2,11c-1.8-1.9-2.8-3.8-2.8-3.9
			c-0.1-0.1,0-0.3,0.1-0.4c0.1-0.1,0.3,0,0.4,0.1c0,0,1.6,2.9,4.1,5.1c1.8,0.8,3.8,1.3,5.9,1.3c7.6,0,13.9-5.9,13.9-13.2
			C29.1,11.5,28.6,9.6,27.8,8.1z M11,3.5c-0.8,0.7-2.8,0.8-2.9,0.8l0,0c-0.1,0-0.3-0.1-0.3-0.2c0-0.1,0.1-0.3,0.3-0.3
			c0.5,0,2-0.2,2.6-0.7C10.8,3,11,3,11,3.1C11.1,3.2,11.1,3.4,11,3.5z M18.4,3.4l-0.6,1.2c-0.1,0.1-0.1,0.1-0.3,0.1
			c-0.1,0-0.1,0-0.1,0c-0.1-0.1-0.2-0.2-0.1-0.4l0.6-1.2C17.9,3,18,3,18.2,3C18.4,3.1,18.5,3.3,18.4,3.4z M22,24
			c-0.5,0.4-1.1,0.6-1.6,0.9c-0.1,0-0.1,0.1-0.2,0.1c-0.1,0-0.3-0.1-0.4-0.2c-0.1-0.2,0-0.4,0.1-0.5c0.5-0.3,1.1-0.6,1.5-0.8
			c0.2-0.1,0.4-0.1,0.6,0.1C22.2,23.6,22.1,23.8,22,24z M23.3,23C23.2,23,23.1,23,23,23c-0.1,0-0.2-0.1-0.3-0.1
			c-0.1-0.1-0.1-0.4,0-0.6c3-2.6,4-5.7,4-5.8c0.1-0.2,0.3-0.4,0.5-0.3c0.2,0.1,0.4,0.3,0.3,0.5C27.4,17,26.5,20.2,23.3,23z"/>
		<path d="M0,13.4c0,8,6.8,14.5,15.2,14.5s15.2-6.5,15.2-14.5c0-3.8-1.6-7.3-4.5-9.8C23.2,1.3,19.4,0,15.2,0"/>
		<path d="M15.2,0C11.1,0,7.3,1.3,4.5,3.7C1.6,6.2,0,9.6,0,13.4"/>
		<path class="st2" d="M9.5,2.5c1.9-0.8,4-1.3,5.9-1.3c3.3,0.9,5.9,2.9,5.9,2.9c0.1,0.1,0.3,0.1,0.4-0.1c0.1-0.1,0.1-0.3-0.1-0.4
			c-0.1-0.1-1.9-1.3-4.3-2.4c4.4,0.6,8.4,3.3,10.5,7.4c1.3,2.7,1.6,5.5,0.8,8.1c-0.8-0.1-2.1-0.1-3.8,0.6c-0.1,0-0.1,0.1-0.2,0.1
			c-0.1,0.1-0.2,0.2-0.1,0.4c0.1,0.1,0.2,0.2,0.4,0.1c1.6-0.8,3-0.8,3.7-0.6c-1.1,3.3-3.7,6.2-7.7,8.1c-4.3,2-8.8,2-12.4,0.3
			l0.8-1.1c0.1-0.1,0.1-0.3-0.1-0.4c-0.1-0.1-0.2-0.1-0.3,0c-0.1,0-0.1,0.1-0.1,0.1L8,25.5c-0.1-0.1-0.2-0.1-0.4-0.2l0.9-1.1
			c0.1-0.1,0.1-0.3-0.1-0.4c-0.1-0.1-0.2-0.1-0.3,0c-0.1,0-0.1,0.1-0.1,0.1L7.2,25c-0.1-0.1-0.2-0.1-0.3-0.2l0.9-1.1
			c0.1-0.1,0.1-0.3-0.1-0.4c-0.1-0.1-0.2-0.1-0.3,0c-0.1,0-0.1,0.1-0.1,0.1l-0.9,1.1c-1.5-1.1-2.7-2.5-3.6-4.3
			C-0.4,13.6,2.6,5.7,9.5,2.5z"/>
		<path d="M21.5,23.3c-0.5,0.4-1,0.6-1.5,0.8c-0.2,0.1-0.3,0.4-0.1,0.5c0.1,0.1,0.2,0.2,0.4,0.2c0.1,0,0.1,0,0.2-0.1
			c0.6-0.3,1.1-0.6,1.6-0.9c0.2-0.1,0.2-0.4,0.1-0.6C21.9,23.3,21.7,23.2,21.5,23.3z"/>
		<path d="M27.1,16.3c-0.2-0.1-0.4,0.1-0.5,0.3c0,0-0.9,3.2-4,5.8c-0.1,0.1-0.2,0.4,0,0.6c0.1,0.1,0.2,0.1,0.3,0.1
			c0.1,0,0.2,0,0.3-0.1c3.3-2.8,4.2-6,4.2-6.2C27.5,16.6,27.4,16.4,27.1,16.3z"/>
		<path d="M18.2,3C18.1,3,18,3,17.9,3.2l-0.6,1.2c-0.1,0.1,0,0.3,0.1,0.4c0.1,0,0.1,0,0.1,0c0.1,0,0.2-0.1,0.3-0.1l0.6-1.2
			C18.5,3.3,18.4,3.1,18.2,3z"/>
		<path d="M10.6,3.1C10,3.6,8.6,3.8,8,3.8C7.8,3.8,7.7,4,7.7,4.1c0,0.1,0.1,0.2,0.3,0.2l0,0c0.1,0,2.1-0.1,2.9-0.8
			c0.1-0.1,0.1-0.3,0-0.4C10.9,3,10.7,3,10.6,3.1z"/>
	</g>
</g>
</svg>
