<?xml version="1.0" encoding="utf-8"?>
<!-- Generator: Adobe Illustrator 23.0.1, SVG Export Plug-In . SVG Version: 6.00 Build 0)  -->
<svg version="1.1" id="cocunt" xmlns="http://www.w3.org/2000/svg" xmlns:xlink="http://www.w3.org/1999/xlink" x="0px" y="0px"
	 viewBox="0 0 43 39.5" style="enable-background:new 0 0 43 39.5;" xml:space="preserve">
<style type="text/css">
	.st0{fill:#7F5C36;stroke:#000000;stroke-width:0.25;stroke-miterlimit:10;}
	.st1{fill:#C69C6D;stroke:#000000;stroke-width:0.25;stroke-miterlimit:10;}
</style>
<g>
	<circle class="st0" cx="22.5" cy="19.8" r="19.7"/>
	<path class="st1" d="M14,3.5c2.7-1.2,5.6-1.8,8.4-1.8C27,3,30.8,5.8,30.8,5.8c0.3,0.1,0.5,0.1,0.7-0.1c0.1-0.1,0.1-0.4-0.1-0.5
		c-0.1-0.1-2.7-1.9-6.1-3.4c6.2,0.9,11.9,4.6,14.9,10.4c1.9,3.8,2.2,7.8,1.2,11.4c-1.1-0.2-3-0.2-5.4,0.9c-0.1,0-0.2,0.1-0.3,0.1
		c-0.2,0.1-0.3,0.3-0.2,0.5s0.3,0.3,0.5,0.2c2.3-1.1,4.2-1.1,5.2-0.9c-1.5,4.7-5.3,8.8-10.9,11.4c-6.1,2.8-12.4,2.8-17.5,0.4
		l1.2-1.5c0.1-0.2,0.1-0.4-0.1-0.5c-0.1-0.1-0.3-0.1-0.4,0c-0.1,0-0.1,0.1-0.1,0.1L12,35.9c-0.2-0.1-0.3-0.2-0.5-0.3l1.3-1.6
		c0.1-0.2,0.1-0.4-0.1-0.5c-0.1-0.1-0.3-0.1-0.4,0c-0.1,0-0.1,0.1-0.1,0.1l-1.3,1.6c-0.1-0.1-0.3-0.2-0.4-0.3l1.3-1.6
		c0.1-0.2,0.1-0.4-0.1-0.5c-0.1-0.1-0.3-0.1-0.4,0c-0.1,0-0.1,0.1-0.1,0.1l-1.3,1.6c-2.1-1.6-3.8-3.6-5.1-6.1
		C0.1,19.1,4.3,7.9,14,3.5z"/>
</g>
</svg>
